<mxfile host="app.diagrams.net" agent="Mozilla/5.0 (Windows NT 10.0; Win64; x64) AppleWebKit/537.36 (KHTML, like Gecko) Chrome/137.0.0.0 Safari/537.36" version="27.1.6">
  <diagram name="第 1 页" id="TLEVO_F_EMvpwWV8gj48">
    <mxGraphModel dx="902" dy="464" grid="1" gridSize="10" guides="1" tooltips="1" connect="1" arrows="1" fold="1" page="1" pageScale="1" pageWidth="827" pageHeight="1169" math="0" shadow="0">
      <root>
        <mxCell id="0" />
        <mxCell id="1" parent="0" />
        <mxCell id="EP9idgTvT9CNdn5mAOOD-35" style="edgeStyle=orthogonalEdgeStyle;rounded=0;orthogonalLoop=1;jettySize=auto;html=1;entryX=0.5;entryY=0;entryDx=0;entryDy=0;" parent="1" target="EP9idgTvT9CNdn5mAOOD-26" edge="1">
          <mxGeometry relative="1" as="geometry">
            <mxPoint x="570" y="450" as="sourcePoint" />
            <Array as="points">
              <mxPoint x="570" y="480" />
              <mxPoint x="500" y="480" />
            </Array>
          </mxGeometry>
        </mxCell>
        <mxCell id="EP9idgTvT9CNdn5mAOOD-36" style="edgeStyle=orthogonalEdgeStyle;rounded=0;orthogonalLoop=1;jettySize=auto;html=1;entryX=0.5;entryY=0;entryDx=0;entryDy=0;" parent="1" target="EP9idgTvT9CNdn5mAOOD-27" edge="1">
          <mxGeometry relative="1" as="geometry">
            <mxPoint x="570" y="450" as="sourcePoint" />
            <Array as="points">
              <mxPoint x="570" y="480" />
              <mxPoint x="650" y="480" />
            </Array>
          </mxGeometry>
        </mxCell>
        <mxCell id="EP9idgTvT9CNdn5mAOOD-4" style="edgeStyle=orthogonalEdgeStyle;rounded=0;orthogonalLoop=1;jettySize=auto;html=1;exitX=1;exitY=0.5;exitDx=0;exitDy=0;entryX=0;entryY=0.5;entryDx=0;entryDy=0;fontSize=16;" parent="1" source="EP9idgTvT9CNdn5mAOOD-5" edge="1">
          <mxGeometry relative="1" as="geometry">
            <mxPoint x="305" y="408" as="targetPoint" />
          </mxGeometry>
        </mxCell>
        <mxCell id="EP9idgTvT9CNdn5mAOOD-5" value="" style="shape=image;verticalLabelPosition=bottom;labelBackgroundColor=default;verticalAlign=top;aspect=fixed;imageAspect=0;image=data:image/png,iVBORw0KGgoAAAANSUhEUgAAALEAAACxCAYAAAH8LmxTAAAAAXNSR0IArs4c6QAAAARnQU1BAACxjwv8YQUAAAAJcEhZcwAAFxEAABcRAcom8z8AAFIRSURBVHhe7X0HmFXVtf+8qPRhZm7vvU5lep9hhmn0PkwBHLolaoIm0VhiRQQp9t4iHaQNgijYogL2XpKX8v4vxcT0REWBs/7fb+1z7j33gHkRQYGc9X37u/eee84++6zz22uvvfbaa6Wl6XS0lOVwzzf5Apu0x78SWQPhT5Z11dLC9mpaOLmaP22hGGnPOyoSFdbQ9ficXM2f17dXU7o3/NVuYI9kU39PmM5qKaUfjq2kwf4ILZzfTdZwjG+oPf9LkS0cI0soSof2riJp3yr+PLRnJR3as4Ju6a776pXT+1uJ3tokKt67ii75ziy+gT0cI5PHv1F7zb9Nnz66hOj19SS9uDpR+R+ffYgrN/oj1M/mOfrWO6I5tPCSc7jScWNHkASW7F1JB/esJDyV9vwvTWaP/12l1aKspOmdEyT8V1ubTdKWJgrkRPn3URFa2dfqpsmTRpPBLyCIY9LWZvrn9hY6tLWZ34H2uv+TbOEo2SNx6m/38Mu1BkIfNkw/iwY6I3RoaxPR0618E3Pwy1V+ek17Dw1pHk1mX4B7JT3TxhXUTOmhinGdRFubqY85RLSz5UtVnGbxh6hmygxCy2s7ZvLF+cVxskdzCJXjP9w8LS0tQ3vt/0l1nbPJEghTdXsPV8KY39VC+U0j+Sm48ik95IjlfLlWg3AxKsenJ3cIBQrL6P0fN1Be43C5YlFsoeiXr9zsCyYqr2mfQdZghG/CTyJXXNc1mwxOz1cTw/ZAoNrqD9yVYXc+mGF1fC8tLa2/9hyddDqOZPT491hcrjzt8aMmjOpQH3i0b6+m7vqiL98DtYSBWOgmNQkVYklHDR/rbzC4tOf/24TKHKEoXT2xmoaV5JE1FCPp6TtZfTgq2aHQDe01JO1dTYcU1UEug5w+sgSPsuIsu/MqiM5D+1bTkMoKUem+VXTg9UeIXll79AOw0R+mM2w+rvDlDbckWiu9ulaivStp//YlR1cxCK1KVLh3FZ3ZPZF1kVfXLZcc0eyjrxhUUFqSUBP4c89KsvhDf3LEcokeayF6vJWc8dyjuwnUg7Fj26ivzcMjO44d3NpMjkicBjijPKprr/mXhLFu6LSzyOTx7aCf9tLpZifZghEJUIPeQU+2cuX4rr32C8kaCFOsuoGHJfymZ9sYu2ZvgEpHTaZMj6j8UG8z41t7/ReSeiCF3ueJRvjius5ZQmWYMuPLa0r2aHZiYAUyysZ2ED3dxt+VARYDrvI0/zbhBYmKRSW5Q1vpmVtqyRnL5XLUFWdZbddVT5mRaB0+/UNKEpVxxaEIq2faa/9t+lFa2rdMbu93M+2uB0we//0mp3e49hyddNLpG6P09PSwPRynQd4wTW8spgWTqumHYyooFo+xvP3SovB4ksnjezPDFxYak6I5ydYdNsDIRhgcO7ullKxiwHhfW8/XRmZ/6NPLx1Wy5iWKsBpxkXVJfC8ryOHGzh9ZLuE4bDEYnLT1fS2EV86qYjhGB7bfIN11xWxpwphhNLdrBD11+/ck6fEbpc923yFJrJ2spPphQ6Xqoly+xny0WuBXJVs4TpePrSRXNJs1SehkqRYXqFFyQcP3rKT7Fl4kTa4r/Go68dESW2f2rqZ+Vg+rufi+b+1yyvAEZf0ahi5h7OpjcdONl50rK5sr2YQHG5UpIHSXr42g2R58a7OU5Q1I9O6WpA2Rizwx2Cdb6BRO711F9OZG6mvzEv18+9GZRo4VYZbCjZMbOXnyaAnzBOC2rLZKbrBo9GBPUvUxOFxXwIAEUYlPo805LbXm40zolP1tHqKX1xyGa9q3isz+MCnzDksg9JfLziolaPX0ZBs5IjHWRvF77Ig8Mrt9u7X1HxdCxwLOHbCSPb6I/rrtevrLlmsl2rWYpk9qlWyRWGJ618caEgr91mYa4IhSP1uYaHdr4li66zh10sFW6xQ0tGH62WTy+lnzVc85wXk8QOI3q+Q9fC6uw2QMcyZAo481TP1sEZ6V0E+Gs4qeuNGxIjQAljqhpvdQqLSKG1M6ejJBDBoMBmeGO0IZ7jAZbbYSrCgUDIN9MkqB4gpxXccMskdiFMiJ0JXzSsnoCycmg8eczF7/S1WTpifmFcqkBdbZ2o4ZPKczOD2TH1taRW/eX09mj3e5sOL2UH33XDLLbwXn4xMPb/YFf6+9zzElR0Se0ilG2XbxvbZzFk+KlKneoS1NXPAdszQL/lM/aCg5oTruyhRjs72HMLNTN1qBCmCCCS6s9Vm+KGHSa/KmNljb6KO2v3xZsvjDf8MD4OZoKAaKSHkt29aLR05kyEBJKhk1mQqaR1O0sp5c8Tw+F/8Bz8dsfU8nnXTSSSedvjGyWr0+k9e3Psvt32tweC/V/n/CkDI05+Zm06VjK+i6SdU0taGI0r0hNqpnZWXlaq/5xgh68NzmUrGgJy/q3SB/x7Gbumopyx8mo9N9n/bar53Q2Dum1suWIrnBKpOXYkW6fnIVDWJuf4MKELS3S0ZXSIpNDlzlBh6h8H/tNXTntLrjN/P4v8gajqZwUeGw2qh4S3ctmYJRnj7hOBZBB39VL6+jIZttkDkSj9PNXbVShj9CjSX5BOPi1ROqaXZTCbnDYjZ9OixKjy2k3OJiunws3kYNzRhWTBavf5G2zuNKmTbHFVMbi9mNbezwenr5vh/Qd2eMoYljhkmLL+yij7cvpv2briXppTVsTIQdA7aKG6bUsB3aEgi9p63zuFK61XrVnOZSimVn07tbbpOEvQ2ucjAoymuxyjHZFvfXvStpoDdMV02oJKPX94q2zuNKmRZnfklBLq+A0ivrDrMMJRuq2OJg+XyYYTK5tpDMLs952jqPKwkbWoz62dyJRvqy84heWy/b5MDp1czxwW6/fM5KwELCAIOFVm2dx42MLm/vTVfNJ+m9LVIoryBh4YSRhV7fIHNYNJbe7yVHNJ54qOldE+n93tvpN7vuh7ngl9q6jwtZAqHffvTsCol2LyVTIJxozLqbL5fYzTOB5dVsAL9rwUWSAgtY8X+/8VqJ3t3KpgNt3ceLToPnJr3wILsvJg3f6k+5pNiaV9Igh5do733Uz+qWBgwYYNNWfNzI5PFuBoYVF5CDcgfbfu/1kvSz7UJqfNAr3XX9D1IajE4KDBvdvj3aOr8WsgTCB9/ecpuM21VEb2+kMywubhi/hXc2CW/gvavo81c3pFjqufNF4oz9rxMebH6lNzekvP6EOGPX5ZVEr6xJ2NaMRmPUEowR7W4jaUszSVub6B/bW/htZWRkZGrrPy6Exnz47MOp+JXL56+uTzEE4jv8f2FEbKzPo3OnFgm3mW1H6bJ7NGR0eRZYAhH2MnfFsqW5UydKuSUlvMKU6Q1Rls3Gnhtmn3/1qmuruIHDhubSWd3F1Dl+CP18VSMfu6CnmLIcjina+o8pWXyBn8HQx9B4ZjnRU8vof9ZeSdLjiyTasZCs0NbCUdiIXwJm4VqMxv3mkSayBmM0rDGP10LYSv94y/GzJVt8/h1QG7GUC4M2jsGufM3F50j00mr68bJLE7qvyeMnX36xeKinhgsIwNdraxN9f2YRTRlTwA3+nzUNZHR5f6K911cmNNJXIDyAhk6bR0Vt48jk9MzBf7ZQ9FBfG5YIxPA7yGiMxarqqb57DncsSxDe4M103fmlbFvGWsjHOwSHT7eIBz+mBE+4srFThA92KEpDp86juu45hOPwlBvsxiJMC2V5xMQUZejUubycwG5NHj89c9dQCQ184tZa+vO2Jn6AS84q/urue1rC7NcahOu1WL+o7ZrNjcY6Bj5Nbt9uKDaD3WIRxuDwLLTDmbxD+HrDSo8HxTpIf3uYZnYVSe3j8ynLi0HoOCyLgYt1XbN4qQCNyBnaQpHyGrGGIePVEc8l2jciMUhYA2LJANZ6OK7zg3bM4DcjuzIM0t7nmBG4pF6/wCKNsg+AV5D8wQMYufC6LaEYOPk/4D6vhfgCjGNwGA3GNZbAccCsmpTGwe0uWj2UF2ew1gH/PnzHA/WxhLnB/RzhxN6C/GEj2U0PDc9vHEHKspojdowxqyaPx5MVKCqXGzxD+GXKK0tmf5C5l13bRBf0iJFr0XfKKVhcQfVdsxNvgRvfOIKqJ5/J3/GgWU7n8XEHHGgwNAGzCodj1Y1JeHTMZO6CyxjtsHQLfQH/QZQpi4yC2yOoctI0/o5Vp0ybY5n2XseEIE+jFfVi7a59BsVrVA1un0F1AsPkzimgffc3cIfCqmld1xzVg4HDw6lqsoBEYdtYMrm987X3OmaE9bZQSSWLMUAisZME0GifwevRyiI5PotHjE82NgGJNn7g7JrGr8cKlGV3zYbIwjBr8QcZn/4hpZRd10yFbeO4g6HB8dphVDxiAuUMbSV/YRmfZ/EF+T9cn+V0X6Wt+2ujeGGhN9NiH2tweX6UaXffj6028LG1+YPLXcHg7D7p6WHtNTrppJNOOumkk0466aSTTjp9Ccq0WPLN/uCvMAO08WqIMC2aUYLiO4wImMriHLM/9EmmwzFKW49OGjK6fY/CBIrptcEfwUYourW7jq5HiB2Vy4vWSeO2qbX07dYSMvhgI8P6cJxMLs+d2vr/o8kaCH8OZA72huj2qfXM1ORuNJVPkYbJKS478jkL4BUzqZoy/WFh+feHPjLZ7bXae/7HUIbV2ojuDuer26fWJZgHN6EEI7+oaBisuBwp2wPxom6bWk+XjamgwR6BcJPb94K2Dac0Ge32sbDWucNRWjylRjA2iVLhbCYXJT6HlsGJ48om0UlVHCapIDebbpyS3JeJ/85tLWVXE4s/+CdtW05ZwppXujfCG0/BhOWdtSx/wfCEgxwzLyk6FN/JRVNq+LpLxlSwA2imX+zFOMPqoZ23zZcGe4Jk9kdoaYcci02W6UX5OXye0WYr1bbnlKMMs3kC5GVbRUGCmaZQjEz+CKW7g7wqxRtYwjFelkBhTQKfoRhleEPUx+6l+oZq2nfPDyTauZg+7l0E3zl2hfjr8w9TpjdI2B5969Q6SRE/l46pFE4nnuOwZHyiUZbDcx0Ydk5rGd3QXksd9UXMwEWXzJMO7VtJnz99t7T/seW0f9ti2t97A32yZSF90nsDIbjcZ7vvoIPPPUDSi2s4yFyKyxy+yzHhEATtv4x2guvot1vLWEZjUGT1Lxj+H22bTjnKsDpmgKnjawrp5q46Fhvw3cJ+4MN8tr6wJJ0plcIOlntWJj5pz8M0tLFWgu/tovZqumhkubyh379F26ZTkU7HIh9CGxYW5LIo6L3rWvbeS2ywhgvXy2uJWASoNl6rdo6rGU44H36WyjHZe+rQq+ukdJeffX0gvzGxycjICGgbdMqQwWAYbI/lsIPpwsvOo7lnTmEGw8cTW/GZkbIz6rtbbmdZjG359Brc0GTGyv+rGU/vbaU+FhcHO7rhhyKcZJLZK2jGNGzQjVFpVSXde+MlNNDhFf4eBlu2to0nPZm8gY8MvhD99fnV0oFn7iPatZz6O3wExxZ6bZ3K1XMl/XbX/Yw+xDkQYkQlFmTmKnHH6J0t9F8GB292X7v88gS6FX/sMzvHsUPjm/dfJh145l4JL6Wf1U324+Eo801TltN7LxB1+Xfn0IHnHiR6fAn1c3ilfojW+fbGwwK1HRYVQ4nXoBErysCnOL2rnd8RgSBSUMBq3ec7FtOBZ+6hvauXCtnsC3wzrq3Hm4wu9yNgNPzWr/7+WVJhWSkhbsQfn/mxlBAFCZGQFA0Eb+sUxgqmq53ylTgq6pcD1Pa1uSnd6aMVt14hYYDF/U0e38vatp2K1NfiCywwefwPQD5muP0SvbWRGXOQo4rIaN63iooqysgZzaa+VhdNmjSGrpk/T+rqGM+xMpyROHsmwj1YUd8UdNOLq6igrEzIX5d3jdnjW5aelmbUNsTqcuX2S8+qcgVdIe1/pwxlZlryIE/PMLuIfvaorIYlZS8jUtZ9P3r6AXptzVL6f4/dSfTuZiIEZFaYq2IyxA+YD5fRTJN1pHKvgQPTLLgX0JzuivA5Y0YU0HfOLKKRw/Mp0xOmTG+E9XbZ/flbqa09yQkDER6spKJcovc2p8jWZFkph1dSZLHqP+jGb2+kmd2TmIla1z9nPI+M/hituq6afchFlMQW+ltvMw2ty5XoCREOWnEwvmQefH6jRx9Q8kQmiy/4Ipid5QtRvLCIXt5wM2/VoVfXMaLBZN4K8dJqwsv49ZMPUl1jHUEfxnXWYPh36vqysrIygN4BjjCH1oH3IBj5z8ea6VumMG9fM/hi/JmWFSRpdxszn5n9kzZ2hv5GAyAdazK63HeJfSExckbj9OlTy6Up45ukgU4/oWT5wqzawUA/0BXgKFCjhtfRR5uvofPOHCeJ1ZJsynK7r1HqtPiCBwa5InJkHRmpvU1UXZ3D91m3sJZDA+GYtFMw92CvjPStzfS/a4eRKcCD5VOprT156HSTL/Aa/LBh80Xsbv4MhH5l9gd/CWT2s3tJem8rHXjmbumzncul/dtvpM8eWyYdePIOog+2kC83T8jQSBz7BdbgelswIq+SZPN/iLmkBIYSSMY2lGb6U28zVdbkUl8rEB2n00xh6bMnWgSTZUbj5aS7I3BD/YO28ScsYVorlpkYHezZCYYUjZjA7qu+ISXKFsPTcb7B5pyEGE5gFnZKlddUy5OJOMtLo8N1kVI3ujWYxQHsJ3Qn1gJRnrylLoFOqbeJRrTmSqeZw/TemmGEyLYLzi+VYP3rGFPA0fTBZGxcgkc17mVyONpTHuREpMFmcwtkI7aHFQ8fzz7q9V1z2HHZlZ3P2x9wjGPo+0Nk9vn/V7nW7Av+L5iMTSb0ymiK5ovRH5tREud4/GttoQhVTuhOBPKHmzmc9T05BXz+fZdX0qGtw0Rqgu3NtGZhDdmCYutaND9Of+ltkhIi5VGEQ8uXENzL5PauTzzIiUoWf3A/kJsL13bsVpCdqIuGj2eG8gTB66chLaOZQf6CEmFPlnevQ86mu6O8NY6eaCVpVxsNdgOlQn6ziIBGEc3husvHTiGTDw7cMUI85pKRk6i6/Ux+oUZ/lNrHFkj0TCszGrvXaBdyQTTxnqp/7mimSL5Av6xZnKF9nhOOzN7A3yEjq2UXeoXByifc7cFodG0gHF7u2N9i8gUQk/GQUg8zm+Wr2LkBJij/GT3+P6AOZX9N1aRpzFy8uKHdcxOe8fgPO5aya4fxf8riAF4Oi5q4GBsMDkdP4gFOdMqyOqaAMbEqbHlR7ddRMbl0TDs/mNhEpCSn6KHC1rHMALPbe7HZbB4EUTOjvZDl5RVnlXIXh39GpslWB5mZU9ecqBPXg5G4PrdBbLFR35c3fbT3UEHTCH5xRpf3Qm3bTxoSGgM2Nc1NIhcb9YKRxH4hfviOWSw70Z2BbOVcTCCwT9/sDezL9Ebps0eb6FBvE9HuFk77Yg6Efg1mY0sbNlpx/Z2zFX2ZKidOTdwD231wDOOAcgz3wuaVr3Uv/7EmdEMlAHuiIK0Kx61vlPdHCZSB+XghUON4L598DJH3wDRvPEq0vUXE69zWTIWlYnqMbl8/VYgEiAtcb/T4qH7qPBWyxa4fiKTUGIs9FCyuZJk/cOBAq7b9JzxlWV25QFnKVii5QMNQkgMkRATvOkIXHsnM8+YVcrfm7X++APWxhUh6sk1iJj/RQoiQiXpE159BnnyxVphTL/aNoRzO5NQehFI0YvzJKzIGGgzNykMnMwGITXNgTpyRLPakaV8CkMmhFwNhKh/bIfZcBkKU6Q1L9FQruaJYEI3w9RXju7k+7GDFoJaU6xomDxtxBCb3UJk8Jpg8vtu1z3BSEEZsdHdslRS5o2ZQ9RSZyUB4QlwkGZMo/ALOlHXmADMe3w2+KDMfdWL3OJgvZK+KufKGVjWjmck8FmBnI+ruIaT0gkyWbRN9tO0/aSjTaj8PshkigBEnT50DxeXMHGxWZPnJcnhmIpGXkmADv4uGj+NBC0jEtbyBPBihguZRyXOVF8bXzeT6IGrwcqomn0mRilrhHRoMJ3RzqGwItKBt8ylBWVlZHrPbe4nFH3rFGgjxLnrYLzjiTyQuImfLhiIx2VAmHGJyorjS8m/lHNkGrLjTgoFiOo4gJKGPrP7Aj002V522LTrppJNOOumkk0466aSTTjrppJNOOumkk0466aSTTjqd1IS08iaX73azL/SC0e3bZ/L4XzA6vfdkOdzt2SfzYuY3SWaPbykHWZcXU7FGh7zD2OeMLLqKsyD7EkeysbS/WVuHTkcgk9u7guMHhaKUFYATSoRaygvoOyPL6eqJVbyZ/OoJVXTB8DJqLM3nbWbGgFiJxl4Pi9e/TVunTmlpaUgCAiSCURn+MNUW5XIciyUdtalxhFTBQvB7aWcNLe2oofIhOZz3Cz7GiCOUlpb2X9p7/MdSusk0UkGtNxJNBApRgnmoA4JoI7Koj93UWUsIFW8PRb65DPcnGiGGEPwlIFuRlmlJJyKlaOMHyQhW51XThLlRvi/vqqVYHDJb7KMzewMrtPf8T6L+HIstFKU5zSW0UBXCJsE8DWLVcYO0v5XzbplaS+mekCwyRFTwdJMpor35KU+Km9QIhLaRkaoUkeXvC4osf4/EYCGba2hZZy3y3VFtUR7vFJVFxmnaNpyyZLA5zuTdSv4wMyPJQETBkiNhqbp+4vMLEKz8v6xTFdiJw5VV08iKAn6RiFqobccpS9hXAbl73USFSSLEWMpApjCTv6dGxEqgVv4EWhtK8ijdG6aFk8RxJRgT/hvsCbHO/LXlovomyWg0OuC8h667pCMpFpiJMnMFo8VxEZlQzVzBbOjEGNQQA2iwvDmc1TxvmNO1Jq+vphmNxbKvsHertj2nHJm8/gfxsF31RcysGztq6Mb2Grq5G5EIwTxVcDtFbKjQvayrjnXfyXWFlOWP8IwuyxuiYcOqqLamnAPhXTqmIiEiFNFhQK4w1d68U5Ys/uDflQhUYNrQknwyIZamL0K5OdnUXldE3xtVwek/r55YTVdNqKILR5bTpJohHF0w0xcho7wdbJArQNlFBdKHm66lTx+5mv7+/MMSYrZhBrhUlu1gMnRrxHE7pTaKfxFxN/aJyIOQk9F4nLfRYqM4ol8pfsBKUDwU4RMMuR2hfnYfx2K78rwOOvj4jdJnG6+hz5+5l2O4YVd/rLCIrz+vrYwz4aJAFGFT5H/EBIQzi/nCLBIgHvDg2IkvPX+z9Jt1V1HvkvPp0nOmUPeEFpo4dpjUPq6JfjB3Ij187Tz67zVXSbRrKUlbr5M+3baYDr7wEDM2EZdiz0o6+PoGGmD3co+4tbuWXyJCQvoiCIPAW7xObXUNKELMy5u66hB6kdJ9iGTl4mgpB59/iD7bdZu0f/sS2t+7iCMOfrp1ofRJ72Jp/86bOHjSwT0rSHpprSrYhzrgx0qS9qygGy45h1Gc6RUvUmEw7B1eb1o/bZtOKQKCIUehASxur+G4mRzX5/VkMDvEAuLUtvx5hEhXqiKCfqgDLokUorXD6iWIFmgQYLAnDBFxEm9S/HcJyEqHiOiqoyl1Yh/cjO6J/wcTDz+WelwdvmYlHXphBUmvruVIg6FYjC1zkO//ETIYqhJsvWAw5C8iovz6iXs5VbCacQhyh3TCWqYeHptN8z+HclyRyOg7yBum+3uG8iREydl5SpPJG3gdKJ4/slwyBpE70UX0zuaUUI4c5+eNRw5n3mGxMgWTESsTMTOVlMgcFWvPCmpoamBZ/L1R5WyYN/tCf9W255QiBATlGRf21MnhDB5Y9AOBXlUczEfvvo4yXH56b/vdqsiDCnPlTwXJb2zkmEBnz+6WIK8T4cP2rKRfPHqHBNWOl5mg8oUQ5YrFxKkVCgxk8gY/xH62cP4Q+vGtV0kGb4iXfH7/5INJhiHB/OvreaKA6XRNQx1HFlSiDoqosKliYull57MezTHd3lPH1FzJPQPRBQ3eIN216BJp1Mgm8XKD4UQMi1OGsIB5utlJ9IudRC+tozk97TzwfLhbxeC9q4ne2MBRtsG02sZ6KcHgvasEQlWMhpxGzE3ot5ioIBCeWnxI72yW+ts9ZApE+cXRG+vJHcuW5MHulFqRzsAAEy8qInrtEfrkkatpducoXin+6ZZbU5iCWMUI1YjS1T4mVYNQxIUir/etppVLL2X161tGO9Hbm4QuLGsTQPAAB2Z+2RL1Xkf04ho6f04Xq29mt7tG28iTloxGYzq6fCgvn+jV9fTJpuvougs6eavsKxtuSmEwI+/VdbTksm8n4mUm5a46nKP4RBC8uxZcKP35Jw+rQjfKUbhfXS9luGGvGEIHty7gWV9P9wQRZcVsLtC286QmTDBYRPx8BzP4wR/N5gddu/yHUhKZMoO1IXUV2SszlVEtMzoZ0hz/p6ptf3z6IQnB/xsaq2n/pms47nGG239qGn3MHv+76JoTx49kObvvnksljOrnze6UkmIgqUkkBjKVdpFguOYzOWUWRWH2kw8tYq0FUQbpxZV085UX8CBn9of+qW3fKUHYGY8HjOQX0OMPLJQQfTtcMESC3FUHghZiQB70Xlwjy9vk/8p3jux6BOQqcvjcWZ0cvvGma+ZLtQ11bI3DDn2E79W27VShwSJ0bZx1Ujw8Zlsw9KQwSGHgGxs51vt72+8RL0H+H4z98NkVUklFOZ+TimLxHb0EqqBQy+S4bLFs6tevn1vbqFOOTE7nCIs3+KDZH/ojBrqX1y1PymFV1//kxdWsBUBfjg4pki6+YBZdfMEsKae4hFcx0AN+tfOeZKYDVXziT/at4YQplmBEynK6789yOKZo25GRkZaVnpVVabBYKqzWtIHa/096MthscahvWF2mt8TUOMX+sGcFvfPoHdJgd4DSXQFGImaAmd4Q9bN5qPeea3hKnCqDBcLLa6o4UIfR7upS33PQoDSTyRf4BQcGkXsT0I124JjJ63v+lLIZWwPhg3jAhxZfkrAlKFqCMlihu9PrG+hn226jtx65iT5HpgPovCq1TFJF2X5v212cOghaivpeZp//URZRIRHdtbwym87qLKTZkwspvzTOxzAocm4Rl2eZ+tqTllxpaf0RY3Kg00u/+8kKiU2NGjUtKWPV35PyVmEsCr23jU43u1gVMxgMTuU+Fn/wd2De6ZYwPbq8luiZ4USI1LpZhM7Fd3p2ON12aYXUz664Xvn2pbb2JKUsq7UDaOtr89BPd9zN0bO16SX+z7JnBX386iOsa6Mug8P1I6V+s8f3KBiW4QlzpOxEuNxHm+n8nmLplosrJCXa9kEEG32mLYFmozMZPPqkJoPN+V1e7fAG6dzZnUQfbNOgVpTDjO9A7bub6YbLzxNZZaLZiE28VKl30KBBZnT5Mywhop8M5yDPHAJ3Rwu9saKBo8AOdETol5uaOCwuguRxoLyn26ifPcwhIVNbehKTwWCpsIfjEganPmYnXTZ/DkmvbZAgb5EWQllCwne2Ab+7me66/ns84HEkKiDX5pykrtPsC/4RKuGum+sTMeGlR5uooTFXsoXiHI4cMtkciNHZ04olKRGuvIkWXVjOerTJ7XlEXedJTUAbumZfO3IcxWiwJ0ADHT4qqa6g7vaxNH3KOGlo41AyByI0QM6DBEsarrGGopK2Psj3vtYgIbIgiwAw+fEWjmec4YrQb7Y20ysPNkhnWMJCm9nRwoH3GcXPtnFgaXk1+qSn0ziOGlycAmF67eHLpR9fPYcCebkSGJjhEfZjrExk+sLU1+7jbAR3XnqmRK/fw/4SQBuuVyrsi7DokWxqHZYnIYCzInsP7GimDE+UMj0Roj3DOdAzAkfTLlk+M4pbOHipLzthpD95KdPqGMVe7rzaIcKGp7uCtOv2iyRp6zVEzyyn/TtukH638Vr69borpX/0XidJTy3l/z5+bDGdbvUkrgWD2Vpms9Vn2GyTgOzF3ylLhB9H15d2NFM0Pyo5ozHqbw+TPRSlB66q4LwczFykjoBW0dtMjQ25kryWN1jb7hOeDA53jy2MnUIcuU+OBphN6VlZVbAZIBnr5RfNlejN9fT57lul/TuW0v4dN9LnT9xMtPdB2nrPtdQP2cMi2WRwui8Ru47iIrwjRxUUS1TLLypPoFcREwhLft13ysgciNJgd4Tl9/CWPJK2yUyGiNjaTMMachURcfIwOMNkKmZxoLhJBcMiYurYDv5tcDq/Oxj8jwl5jJiYf9m3RuKB7ZW1JL25kfKKSyTM7BCuMctubzXYbNmoExG0EVxUiV+JzDWTRheoRATSRTQRPdnKiKWdzYR48AOdYRrgiPLxBIN3NJMrcpK5XCGBCBgBG4Q7p4CZhyiuCCKKAsZYfIH/Vs63+IJ/wPlZ3iB54tkUzM0XmWQE6j9W1Xs/xEPVRERgnZHYS4cyyBlmxCqMO7irhdIMISoojpP03HCJnm8jJEcZ4IhwIH/O3cETj1aRr0PsXDrxyYJpMTzbvX6qGN/F0VnB6Chiw7fPYOQh3K02TLjZ4ZjBDA3CVRWelXGy+nw3qs+xBEKHEtGz5bjuyqCH6z5Y0ZgQEfRUGzMY2cL62yM0yBXl73V1OSJ/kvwibrywTMzoPL6V6nudkMTMhTgIhKlh2lkiuUlBcSLitRIL2JNbyAz2pgkfskEGQxxiwBSM0cNXVdN/r0cqHzmLl802ValfZKaJJeILI6gzZHGgsJTv2ReZZZ4bnhATUNtGtOSyzg0d+IfnlHIUbjHIYaLRSv0dkZMjCZXB7X0RSBLBl0U0a3wCcRjcgDoOK865OcYx8kwe3xUmu73WHstl2/GN88t4VAeDdt1Wz6shYLLR5jhnsNFWCoTHEyHORW9g9PmDnD0BOrUjEuXZHOvCYOLuFjL7w1RTnyNycvTKs7hnWul0TJUhmmyOs7TPc0JRenp6GIgEMxumzUsyoGsOB78HM81+8TD1CObMA1SQJw3ChCiC51fX5Eqc6GRXG5VWimNioIxDhn8OlyxkJ0DgZnduQTKBisdHQ6fNI3d2PuvN/Wwheu2hBjHIyQMZbWti0YCJxR2XV1I/m7DEGV3ex7XPc8KRJRiWkAoCMjcRYlyFsuIRE9i7EswobBvLA50SRVuWxZmWQPgAuj8S9WV4I2I1RJ5QKHKW5W/3HJHgJCi2CyAzjYj/jowGsylYUsHHoX30t4eotTmXvj+jRDq3q4iKymGuDDPq5VxL12mf5YSjQYMGmWB/RaO1sddZ5rb3UOnodg4truTogPiIVNSxHgvVC/WkGwzlQBRG+X42OPHFKNNuVwzppwPpvvwiHiiBYMhVMD1/2MhEKHPcH/esnjSN1S6IJtELspNZZGI5ZPUHkbSVE16d8GTy+B/DgyIjgJq5CQRPnctiAt1ZyZ2BUjV5OiMNjoJcj9d/Awaiv21rJunJVinLx11/B/4zur334h6c1UC+HqiFvBcvTSQzSbxUpbT3iP1zXj+StJ6c27uE0RppGpKyN/mwM+XsXUEuSlYX/Keoa4oNwOT1/74/siQ+3cajex8bAuoLESFehJIKQlyP+yEDATIZKC+O7wltRR5McVyVpeDkJO568DGTH+pIBfnjsHkbci+prvVQuKyau+8g+yATZDFmWpwJcWcLloMkhTG4hzevKCUVhMh1J2S6kj1MLaJE6SFPfiG7XZnT0gZp237CU5bZXA1ZGK2oS3mwIc2jWddFziPlmDsnn3MilY2ZourGM+VZnv8nYGJpeTaP9pjyjm7LE3qww7MTSC4f15moC4OcJShiRyj3wIvzFZSkZJRBKWwZzeODyeWZpW3/CU+ZDucNGESKR06Uc2AIpsH5RElOojwo8mygm3NXl1U5DFZWZSAKx2jJ/HJJ0VPXL6hKTIOhhilylnVrjz8he5WXJXTuAKteyd7Uw+nbWMR4TgJ1TEtGt+951k3lUTyFwZxBJslgFLwIDDoC3YIJQ+RUaVh1+O3axsRE4ONtTYSBDv9FK+sTdSBXEupA7iTWHmSxwDId8jaanSKulIRWJm/gH9r2n/Bk9gU/gj6roCvB4HguJ/IDg7X5jjy5Q9imW9Q2jhmk5D7qaw/zJEDYCMSi5BlWpOlB/ajnTE4UCOY6YzkpTBSDpoLgVAYriMeL0rb/hCdLICwJUZDUIKqnzCBXPE+l8yrMFQMRNAEwFP9jYgAmB0srWUSsvqaKs3ah7LmrnicbsMYxEztn8ZRYmbUpKllCRLBdIhXB+E9MagTjte0/4Yl3EHkDh6loWKVNEREaFGuZhfMwKRjoDLHJUWgRImeRYB5UMj/r0khWdaSsXZxe7TAZLO6F605KVQ2juzr5HmfrahcITpoVhcKvZjB+c5pKThglMnOx3TgUo9fvH0q/5sTUUXJGc0RGRjnfUX7TCFVdycSugsFytsRINtWcKgw2+0MSI1VhpCwiWAbz8VRkawvS/kI0IK0wG4ACIV5dKC7L4VlabedMMaiFY2ySVDOUmZfCYCAYRnqtDEaGRv9h9ueTggxO9yqgCykgIeugTSQZDMOMIoOPlG9OoAsDFnRpb0ExJ8YGM3klJDufgiWVCRWO5fURGKxMLuq7hRqoiAjWbDpmUm59C/cAo8eXWEE5qUiYE6PcDZGDua57blJEyAzWahKCwSLpHs6BLgwmhkoreeIB1Q/M5Wm4Mliq6lCQq0UwtAW0B2MCJibYZAPmOk52zx2zN/hX4dEIw0pAmAv9oYQBCA9f1z1byEZ1Mj+ZaRAlsFUk8szJpkowVwyg8sCmStgKlCJLrZIosGJCl1yHsI2wa0A0G205eEpECYTZ0uwJPgoECQ934cOAQQyMYvkYirEeHCqp5OSruQ3DaUjLGLYXl4/v4qm0YHCUkYz1vJJRk9jegJST8domCpdWkSevMIFufqEBET+NxQknDYQPcPCNQYMGxbXtPGUoy+kcYfb5V5r9wY/w4FhP02ZLFC9BlZpdnS0x8Vt2NpFlMW/Vhf2Z7buokwdEyRIIvWjyeucPHjzYoG3LfxoNNDkcEZPTO8LqDczIsNu/b/OHl5k9vvsGW+0PDrY5Hxhsdz6YYXc9mOX0PGALhO4xOFyXO/zBC9Ot1tE2d6AkGAy66VTo9jrppJNOOumkk0466aSTTjrppJNOOumkk0466aSTTjrppJNOOumkk0466aSTTjrppJNOOumkk0466aSTTjrpdKzInpY2INPqHGnxBm6x+IOvWwOR/bxTSk4bIXY8yUXeASV2QoloV8p3bFOz+kM/N3v860xOz9yMjAyf9l466XRMKMturza5fRssgfAhsbVPbGRFwVZqQzDCubmRfDfLL3b/usNRTu3si8bIG4mSKxzhxI9Z8nkZCO4NEKu2ASr7NkV8Uv8LRqtjtLYtOun0b5PB7vyOxR/6OyQn70GVAQuwAoj5udnUXl9El46tpKUdtZz3HHnJl3XVcpL5xR0iCbxSFk+poSUdNbSss5Zu7q6lW7pr6cYpNfSDUeU0sWYIxbJjnHwz0y9vBg6JAJSQ5oicnOU4wcOW6nRiULrBUmH2BX/JAYrljdNIhYCM2KUFOXTJmAq6bWqdBKBe315D10+upuvb5YLvR/i9sF1VNP8rx/H9hvZquqmrlm7trqWLRpZRYV42DfKEODGesllb7G73bTglwgbodGwp3WgcYw2ED7DURRiFUJSBW1OUR9dPqmYpuxCgba/hzyQw1d9VwJTBik81gPm48qk5nnJuuwD1bVPr6IdjKigUi1GGTxWuIYLcS86L9agCOgG8UbM/9GcFvKZghDO8z24qodun1tENKaBNBWxKSQGgOC9F2moAmpDaKumtnKOAXH3u8s5aumpCFevZGBkQihmqDYdFRu4XtN3jfRBZM7TPqNMpTAan63YBABHnKt0bpmlDi1j6XT9ZAe+/AHFCXRBqhQLcIwJYVRKS+AuOa0uy7hoG8/ltpTS6cggV52VzOq2EhEb4p1gOmb3B/8nKyjr108b+h9NpZo/vbUWCZfgjVJCXTTd11vEELAFcBYQMRHFMSGZx7AYFaGqgakGrlsKaY/9KnVADPfFdfZzPq+EJJTpdR10RZXhF2HAGc5STP/1Q++A6nRp0usnje0+J9Qa9F1Lttm5IXwGMwyQuA1oNavn7EcCZkL5HAqhKbbh+crWk/S9xzuRqurGjlm7uqqULR5bR2S0ltKi9hi0eyfpVo8Pkau58yzpqKJ4dJ0NATATxjFmq9Jw6nSJkdPu2QwIjjx9MZWOqhtCt3XVSCoBZ6iaByJO5xP8akMpASkjV5DmiTnVR6lOBFWqLIm2XdtSwdWJecwkFonEa7BMmNtiM0dlqi3Lplu46KXWUSG0T1I0heTKQ5YQ6BpvjTC0fdDpJyeB0TuewpqEYZfkjVFKQy9IuIWXZzCVUBlYbEtJXgFQZwtWSmEGI4xqQK8DUqgUKcCFpb+muo6VTauj84WVUVZjLwMsMiNTajnCM0t1BynAHWO/FMXS6+uI8uq279jCJrPyGLfrq8ZXkkC0seF6zL/AHozEtXcsPnU5CQo4fDs+K2LyBCF08ukJa0lHLQMDL/9H4KirOz6F4PEYNpfk0t6WUrhxfxRLylq46CaCDpFzaKRYp1AsZi6bU8uIGwAk99abOWj4XZQmANaGKvt1WRmOrC1n/RiatdF+EjEFkKhQmsyxfiDPFRocU0G2XnEmf9i7gzLJ3/+gs6TSLm8/BNc1l+Ww5UYMY5jjuLO3VGFloREU+gx5BQFk/drhmavmh00lGBqu1DEvBAExWIELlhbkMNCEpawBKKTc3W0qASi7IjGAKRinTH+EJID5NkIwhLCPHuLgjMXLje0RkJDcGxGRROR91Il69AlZMvjI8Qepj85LBF6Tm5lq654pZ9NHmBUS7bqTPN14jfbxtMR144SGSXlxN9N5mWn7FeXSaycn58wb7I1RblCfd1l0npYwcMqCxIjh/RDkZ/dCNYxx13OL1r9HyRKeTjOBcw+GIeViO0OS6Ih7O8eIhSa+eUCV5IjEGG15+cVmhdPHc8VJLc40UL8yXLKEIpbsDnPYZWeTxOdDpF8UVoIEufPppgBN5WHyc2LyfwydleIOSJydHqqwpozmdw6W7L59Jbzz4Q2n/Y4slafdSSepdQB9vvIY+3bFUOvDsfSS9tIbopTUk7VtFh/auFGXPCgbyfdd/TwKQeaEjGKVANMbgXdIpRhNFMmOUgOSHTRkqBeYABo/3RS1PdDrJKN1svZo9x8IxyvRFWFW4qUssZizvquWhHsfxfz+7l+ZOHStJe+6V9vfeQAd6FxJtW0jSY4sk2rWU6MmbiJ5cTrRrGUm7l0tcdi2TpF1LxefuZRI9sYRo52KibdfToS3X0Webr6NPtiykT7cvlT7ffTsdfO5BlrLSS2tJ2rc6CdhEUUC8ig7tAZBXEr31CO1bu4Qy3H4eDTBxw4RvfPUQukOlXqBTLphczc5HZowsyHwdCP3K6/VybmCdTlLKcjqvhfcZXjzAenZrKS3vEpL41q46GlqST5l+saTb3+ahR265XKJ3NrFElF5cQ9KLawXgWEquTkrKPQ/ToRd+TAf3PMzl0N6V0iG+Rgboy+uI8PkigLqKpL0rSWKAKkWANnlMAbBKEvN14je9uIoOvbWRpkwaRaeZHCyVMSH0R2IJUxvMcQsmVSVADJ3YGgh9MDkt7TQtX3Q6icjg8FympKaAOjG1oZg9zjCx+8GoCgkWAPyX5Q1SUUUFfbp3tUQAHkvJIwHsKAukquaYAmAFqCn32aOcJ6QxlxceJnpjHf1qx52SMxKTIJXh1skmONmD7rKxFWQLIgUHQJyDBC/I0qvTyUwmh2OUYnPFxGhYWT7UCQl21aL8HMoKCCncx+KiFUsuJnp3iwBwCojlAimckMZqoCkg1JzPAE2tB4BVinK9+nsCtKrzEyDes0IA+Z2NdFbPZKmv1c1WCOjy3x9VwZaLec2lieVogNjqC96h5YlOJxlZrdaB1kDoQzjMYIj1R2MwnUkd9UVstgKA+9ncNLVjPAM4dcg/ApD/5fF/u0hqdQGqRlK1UOnFaumtgBiTvVfW0LubbuZRBMnoYXXJy8mme6bXUUNpHpvY5CT3ktHtLtHyRKeTiDLt9m6TN/CONRQ9KBIoCdOZJypMYqxiuP1UVlNF+19eL6sRQtompbH4BMDozU30x2dW0Etrl9M/XlhN9PoGGWjKeQpINdenAFj+nTh3FeG+9NZmen/rHfTWxluJ3tjIxwSgletldUMGM727iZZcdq50ullYLWCNgMlPJIkSo4s1FJVMvuCHBqcTvhS6H/LJRJk227RElq9wnAy+EPW1ulhlGGD3JGzB0Ck9sWz6zRP3E7267sgA3LeaTV+fvrSOiirKqb/dy7s90gx2mjVtEtG7W5PSW3WN8psng2rgqsArOsZGevKhxQQwQqrClnya0UGP3n2dRG9tpEP7tBM++VoA+e1NNGnCKBrgQJvEUnOmJ0B9zE7qY3HSIKdIj8wrgbFcMjidN2h5pdMJSBkW+xzeBxeOkcEbIn9OPr3/2P1Ev9hJ9P5Wol88QaNHD6dBTh8Z/WEK5RXQ73c/SPTy2gSI2fSlkqL0xgbat3a5lOEJcQo8hwyW2mFDSXp9o0Qp4FV9h7VCrV+rAa1I4fe20hXz51Ifq5vrdUSyqa/NQ4suOYvo3c0pgFdfx9aOtzdJ07smUH+7h8Gf6QnSvvU3E/3qMaIPeone20I9XRP5f/CD3TU9Pl1HPsHpNIPH/x4kMG/tCcfoZ9vvJXrjETZ7fb77DpJ23yT1dIyk/g5hc/Xn5Em/fvxeoldkEKtBpwLxi2uXU6Y3KIM4m1feahvqSHptg0QsXZOgV3cGBq1cpzDRJQGOgo51JUBscZEjKjpIH4ubFl16HoMwWV/SHKfo0fTOZjpzqgCpWGGMSW+suEai5+9j8yDtW0n09mYaM6ZNGujwsiO9xR86NHjw4KCWcTqdOGQwegN/BoihQuQUFUl/fW6VRK89QvsfW06fbrqWaPcyunjORF5dw4vHEP7OlttU6sSRChYcNtLFF8yktCwbnWZ2MYifWXmjRG8+coTz5aLWrxMAVKsWq4leXkN/en4lVdbXsoqSlmWnusah0l/RCV5SrlOb3+QFELTpjUdowuhWGuTyi0lrbh79YtVVhNXAzx5bJoD8Xi9dfO6ZEiavQrWIk93na9EyTqcTiIwe/2vs7AM/BXeA9q29ieidLbT/8VulTzYKEC+4oEuC/wJe6kCHjx6982oG6WEg1BRIXOihUAEgnbW2X5aQalVEkdCyHpwwzWkL9NuXVrP6AOkLYAtLhHKOAuIkkNGWz19aK1XW10joUNiFXVheLP158wLpAFYKH7+JVaSDL6+XquqqKcMT4DmCxR/8x8CBAy1avul0AtFgi6VZWCLirPP6c/Lo98/8mEH62e47JdqxiLYu+jb7OuAcDONLLj1Xkt7dIsxeKv1VLUGVYzykfxEY1f+lXCurExp9WClJ05oMUsUunAJelSQGiF9dRx9su0Oyy34S8OOYOKpBwhL5Z9uXCovHB9uofeIoSUxGhUOQ0eH6npZnOp2AlGV1dMDspJjVzrC4aPLEUfTbn6wg+tVO+vtzD5E/O0cyBsI8wRs5qoWtBJBuirQUwNJO0tSgPByMCniFT4Tq3JT/j3ANFwFSxWacAO1h58sgfncL3bXgIgmdEM96htlFt199gST97knp4JsbaeElZ9MAu5fnBmydiOdSltN9tZZXOp3YlG72+Pc64yKOBF4k9GSYnga7fDyBUmzF6S6/9NzKG9nRJhV8mqKoCUrZI0xkh15ZT/TGJqLXtder9GIVEOmVdURvbSLplfUSfyakrgqse1ZKB1PUleR3dLaDL62lqroaiSebsnkNgO1nceF5Eh0Y4DX5Av/dr18/fQPpyUxZdudcszf4ARYBOFZaPJcc8Tx+8TiW7vZTQ9NQschwmORbRQdTlpdlIL24mj7et4Zyi4slmMdgFvPGc6VbrrmQPnoOkrKX6P1t4vO9bURvb6G/Pr+SHlxyqZRbXEKnW1w00OmjTG+Ifr7jbomtIwqYZXXioABzqkqBSd37vfSj+bN5hBG+ynG2Ayux4MSujuCHJofr8rS0tDO0/NDpFCKD032jCFUVI/ghnDWjg/VIMaQfDlxh2pKlIsD05gZ6atWNEpZ3hR9DjCU8dHEAFMdQeJHF4SWDP8wAQ4G0PMPspJuv/q6YVGIipwBY/jyobQfu+e5mWr3sUqmvzc2WBow0Jo//Be2zfQENMDmdI01u781mb2CfxR/8IwIbYreLJSDiyFmDkQMWf/DXJm/gcZPb+8MMk6lYW4lOJxgZXe71TkixCHwoPLwCBtvtF1oStJM9WBZeW8dWi33rltJl82dTS9swihYWkj0aJzPAEYqSN55N5dUVNK+nnbbcdTV99vIagssnTGUAZ6ourJLIiQ60guinvXTzld+h082QwEL6WnyBt7GTW/tcChkdrnMs/uBvRFROsQjEkY6CMcr0RGigM0x9bWHqYwtTfzvmCBHK8gLMcqBDvo+I5GnxBV7LstlGaO+h0wlAJrd3saI7Q2+GK+M7vXcwyISEVMxnSpGtFNrCwJdtuADpq2uJXl9P9Np6XkyBT7Da2SfFKiFLYOF3rABZru/VtfTPVzdQTUM9S3QhgfMQ+Wer9llAg4zGmMUffJ/jysm7Wga5IjTAEaJhjXl08yUV0psPNdD+HS1ETw4nerKN6Kk2ot0orfT33mZ64c46uuLcEioozZb6WkNk8Cl7AnHvHDK5fU9ghV97b52+Qco0mwusgfB+JbwqpHJ5bY30u+dWiAnfnhUqH4kjAPgIJQnUI5VUoB72HarDq+t4seLc2d3Ux+oSEzi0D9uU7Pax2mdIG5xmMHt9P0WHxDMY/THqbw/Rj75dRp/vahNg3dpMh1B6W+jQlmaibQByG9GuVi7S1iY6xEWcR73NRM+00a83NdGUcQV0uiVE1qCYKLuyuSM9pjsXnWBksNvPVyQOPmGm8sRzaMtd1/CEClIxqTMnh/vDi/jvMBvwvyoA7ouriH66jd7YeifVDa1jxyDF+iAHRblJ22ZQps1xDgfxxpakYIxVhIevriL6yXCStghQHmTwyuBE2TOCFs0vk9LSgzTAEWWAvnpfA9FTAHPyXOVaBvxzw+kHs4vpDEuIrTu8eyQYPpRhNg/Rtkmnb5gMVkePNRD+jAOuhAGMKE/QIvlDaOmPLqA/Pr9SAtiw9CvcJtXgPRJotcAXagOrGfCReH0Dbbj9SqmmvpZtvqZAWPY+AzARCdN9pbaNCmU6nDeIdsYo3Rmhmtoc+uyJFqJtqSBkIO5spQ+3NFHXhCGU5YmQwRuR2PGIJ6W4PkzWQJQumlNMnz3eSvRoiwC/Gsw7W+hXa4eRJxYjk190MAB6kMlUr22bTicAZWZm5luDkUPCHCdsr0mbs4u33tc11kmXfncWbbv7Gvr5znvoU/gsvLmJzWpwwBFlC0kvb6C/PLeS3th4C917w/doauc48uXmsaow2B0QAb2Ve/Amz/DnWVZrrrZNaspyODrEhC1Og5xhGtGax+oBS9JEESoCJOyS+WV0minEgEXBRC6QHaWCsmwy+yMSfuO4LRSnDHeI3r5/KINWLZVZkm9vpo82N1EoT6gtPPELhD62WCxWbRt1+gbJYHedZw1GPmdAhaM02BOgttah0o0/mC5FC/Koj81D/R0+EY9CBjkWHLK8IV4JxCSsv8PLnyjwXwD4rYnFCbFcDD+OYF4uXTu/m86ZNoYGOvws2XCOxR/6KMvhmKJtm0x9zN7Ar3gvXSBK3liEfrtuGNH2VOkpdNsm+ri3mfKK4pLRJ6wTjmiU/tTbKtETrUL3hfR+qpW+O7OEhhTG6KGrKllP5jp6ZXUk0SmaeSLYe2MNDXAgWAvqy0Eww1u1jdTpa6ZBgwaZTG7fLmXRQAlundgJ4gmSKxqjlx+4VKKX7iDavYT+34arqXfZ+XTNBR3UPbGZGhoqqLCiiLILCyiYm0sAfGF5MZVXldD4kUPph/Mm0JoF8+iDlZcT7VxE9NQSjvhzQc9Y6m/38X1ElEthDuN2wP7s8DwE4CptzbLZ2ngBh+3cIfr29CKehGHCpgawAjx6ug36rHSaOUxO7IgOxNgSM6drCK2+tpI+WNEgA7mNQY96FOCKzxbVd+jIzfT59haqrMqhDK9YSLL4Qz8r1hdYvnb6L6PdNc7iC+3GkKxEzQSIGEiyM5HFH/q1xRf8raJ7IscGwk89fP35Er10Px3YuYQ+3Xwtfbrpavpsy3XSga0L6NC2BXSoV5TPOQbFNfTp5mvoE5y3dQHRC3fSzzctlhqH1dIZVk8CsLivJRD+M+6jxFDGQgRLZwAlGCGj03uvye27hbM2wT/EGqbbLi4nenp4inUh+R2gbGLJ+vJ99VJuUZxOM4cowyM6C1QIuKamuyJ0ujlEI9vypA+3tBA9lpTq6okhgxjliRYa2ZwrwYQH3pm8gY9009vXQAabbaLJG3xdibYuwCL2pmHlyhXPoyEto6mgaRSC8rEUBIgMBkN2Zmam1+ILvCMmXHH2IIMFYfiIZumt7XcT/XwHSa+vlw7BFxgxKJQCV8uX17Ll4S9710jzz54u9bd52dGeLQ8cMzlCRptzHtpo8gV+huHZ7AtSqLSKKsZ3kSe3kH+rdXPlO6wR35tVQvQMQHy4FE58721mfZkebWbJfHBnK731YAPdcVkFtQzLocGuME/ynNE4g/nhKytZMivXJoosiT/b3kxlFdmUCUkMp3tf8BfZ2cnRQqdjR/+VZXdeaQmEDijWBrx4SyAECSurC1Eyef0Uqaij+u65VN3eQ9WTzxTb3uEJFs0ho8uzTl2n0elZwk7msm0ZujH8GXJLiqUlV1xAv3ziPunAS+vpt0//mB5efjk1NDWwAxL8f9mMJ+e2g61VncfO7HDN4Fx30LH9QSoeMYFqO2ZSXdccyh82AsvMCfAqBYsROUPi9I+tqVYJNZAhVd9f2UDjRxbQ+BH59LNVDURPtrKE5v+faKFfrG6QjNgtHY6zlG6qyyXpsRYJOnPK5A469O5WenRxNdui0Qa4eprcXl0nPpaUYbEMswRCv1NnRIIkswbClF07jOq7Z1OwpIqBAgmMVbCajplUM2UGl6FT51GsugFDpGx/jRwy2GzZ2vuwdPYH1mF3sWJfVkANx3z4UiQBx3r2Z2ZvYDMku7autLS0b5l9gfcAbnQwX0Ex1XXOEp2qvYfquueQv7AsRSILfT1K/exhmtc1hOhZtXVCnoT1NtP+7c0ENSLLG2VJm+GOki8eo+/MLKYbvl9GU8YWUBarF2KbFCTxfVdAEsuTOzWAtzfTnzYPY+sEzGzc2QPBv6Wnpxu1D6TTUVCG2TZZSE8hzQBaiy9AOfXNVN89h+q6ZrO0zW8cTiaPj0EAUJSMmsTSrlYGcW3HLKqcOFWoGkqAPrdntfZ+oPT09Ig1EHod/hIMYD9UkyidPb2ECorjNBA6YwQWB84m+meYxrR1gLKczjmKZIcqU9g6lttcM6WHCyRy1aRpSRUoBEBCj1fiyYWpa/wQCWqFxJIzqUpI25rpwK5WmjetkM6whGmQS04vJm9+BbBNgRhh4ldaEadfrh9G9LiYzKWoETtb6P+tH0buWFRi85qcoNJos+kxLr4qDTYPDpr9wb8weMXkiF9S2dgpNHTqXKpp7+ECEJeNniJUCVYjApTX0EZDp80T4JVBLKTxXIpW1rOqASmKSVaWxVKp3BN2ZLM/9FtF2mNydLo1REu+XyGvljWz3fa1hxrJGY3ysM/A4ZWuCBkcKdHc+8GDTGwjCpEvv5jqumbJAFba1MOghorBo0owTJ68QhrSPIrbiJ0ekIxGX4SevbOOrRViKVkA+mBvkzCnPdlK0p42afLofDrDKkyE3zKGaN3CaqKXhrOkVYOXFzmgR/+klX4wp4j6WMMSOg2PGIHwx1ar1a96Dp2OhgwO1xVK4ECAA1KseMR4AV4ZBAKcPVQ/dS4FSyplYCYndN78IspvHMFAh6TmazpnUtXk6SzlkH6Lt737As9m2GwTzIHwJwxe2fwGAGPB4fHldRImTQIEYqEAk6NV11TRAKyIyeezJJXtyyan53yDzXGFYm+2yLqwIoXR8Wo7Z1Fh6xhupzUAPVR0CDwHRpXGnnP4P4BbhBWIEvTbe35URfTsCFmqNqmkKvTgVvrvlQ20c1kN/RVAfUyW3jCx4f9tTUTPDqffbW2izvEAPEJkKY5AuWRyeR7UvgudjoIw4VJSeuEFBorKGLy1HTOopkOAVy1dUQCKouHjWIpZfEEyKxM8nvCFyewNsLSGPgoJnV3fLCZUbMUA0ATYAGKzJ/CqxRfYofgmw71xyfwKac89jdLTN9XRvnuH0k3fr6ABjmS6W6PLv9Po9q1ihyPVaqCitweLK6i+CwAWbYe7qOh0ShtDPIK4s/OpqG0sP48yylS3n0me3CFkZsksWy/sYU6f0DN5CG1eUkO/faRR2ISfbiN6ulWUp+AM1EKfbG+iVx8YSgvml1FxRQ71scKcKAKF82SUJ3CejRg5tO9Cp6OgLLv7PpFQUUikeE0jT8hYdVB028OKPHmTJ0uNZ55LhS1jeIKnqCGYade0n6mqYyab3hQVxRqMHjI63Vep22J0e+/lziQDR0hcqCDJxRKAwCg8vxJkcjqHm33BPyXySAcjVDGuk0cBVmm651KwtCoxckBKQ/0ZNuPbVNOu7pyqZ+6YySMOrBmsX3v9PJIooIbuO9gdpf72CJvnUPrZ4V+MFUc5wr2sw7NXHGzAvsBr2IirbrtOX5FMLs8sXlnjITVA0cq6wwBcowD2CNIYLxqfkHIAhqjHTzl1zVSPelTXYFgvbBvH9xFghDR1LVC3x2BzTuT/wnEy+aJ00axiuv3KSunKc0slazAqWTHrx3VOb4ozT4bdPk4BPt+/voUBqG4r68EjJ3I7AUYAHXpz2RiMFrPl5xGdLTkxlYs8msBkOKRlDI9U0KW5rWJV8p/mQOhDsy/8B2sg9DurP/Sm2eNfZ3R5L4SLqrqtOh1DGjDAZDf5Ah+zgT0Q5uETQ38KSDWgFceSLzlpQhNqAoZxgIL1UFnCCaALywD0ZCw8QN/mlx+MSAaDIa60yez1PQGpleGJUE1NDh2A07k8iZowOp+lnDCdBX/jSnP1ly87w+wP/kqZzHnziqgeqgFUocOeYSYDEqMEgzgQYnVITP4OV5vUow8fk0cenhMUV/DII0yH4QODzeZQkrs6fS1kcHtuU6QwQAX9FnZfLWBTf6uKDBIAOQFMWRIKs5Y8sVOBAJ9iAURYFuQg1nvRnkyLJR/SDZ0Kk5+lF5YJPwZ5UWDdtVVSPxv+FyqF2emezs/h9N4q9PkomwLLx3YkOqP6vpC2UDFwjrwszU7pdZ0zEyOK+vwjPWuCD52zqGJCV4rpEHn+tDzW6TiS3W43Wf3Bv8mxxcSCAKRXiikq9aUBfHjZ/MJV6oaQTPMou65J2IyxI8Kj1q1VkiwxIRwvlqNlHRdmMqPTew1P8uAdFonQz1cO5RUyBvG2ZvrblkZeUTP4BWhMHt/jBqu1HCBi9cPrp1xWI4Qaoy5s08ZKnTyxw6QzWFwuOlpCJ07akcXzTpd5ktoRlcKmw6qhXJfwlw5ThslUpOW1TseJMiz22Yo+BzDlNY5ISE5twQt1xXNZVTC4vZRd25TUNxUA8Kxe2F6TqkWAh3YcT6lTNr8l1JDEooPQhbHZcur4Anl3hGzOgunq6Vb64dxiiU1UqokfCtrmKyhJdkTuZEkVBkO/MqmDhQTmNEz2cJ4CTu6M3XNoSPNoMrg8rGqgXbBUqOcFCb50zKLycR2ybizye2AXtJbXOh0nMrq8G4RFQgyHFRO6E0NqEmz4FMcUq4LJF6BYTaMswWRprLZidM6k6ik9LCkh4XkCFQhTxfjOhAkrAfruOTxBEhYNZUlZmNd23VTHPrrKYgEvFDzWTO8+NJR3iGDmL8AvbNqw6WKkSIKth1UKOP3I2+gF2EJRqpzQfZjurxQ8Vx5WIWGJwIplJJtt3Km8SXYQdHAvTIyBkOyB5v8ZIotq+a3TsadvmTx+9vCy+DGhK+SXkQpepcyk6nbZ+gDbL0BcLYM4cT4kX/IaSDSoERhqxQoY1AsfS14cx//q81G3MtNPd0eoeVgOSY+3aHZWwHOsiSd4UycMof6yvfhwPVhIYYwU8epGMnmFegOLSKikUh5Bkgs3is6vSGNlKR3PCb35yCBOBX0s8ZzsGyLpe+W+Burbt6/P5Avybgu8rEh5rXi5KeBNLZDEAIsAcUPCS42vSTHHJQskb/m4ThFUhE1aIvAJ/BYSE6/OmSwZlREhyxdln4OPtwk9WJHCCRDvaqUxw/N5S5Ci2xa1jWOVBSMAOiPqQ9ZStJdt1v4glY6aLNQaua1H0nFRFN05AeJoNlVNSgWxevKHxZSCppEJtQh+HxlWa4+W5zodYzI6vUN5MgQQewOUrbLpHqlUq9UJbxLECugZzEe4TimoO1JRm3jR+AyX1YhJnwx2OA4BbPgfzuHNjbkk7W4lqbdJBrHYVTFt4hBeUEDbUQ+GftEBhfRFh1SkPxYngkXlVD9Vcf4Rq4/4PMz6oAZx4whWm3hhI5JNlWoQH2almE0lIycJjzjFwcnpXqTluU7HmAYaDE1iqBTDbG5D62ELAygAr/IdLpap6oRQC4Q0TlUPGBAaqQ6gQj9FyCfeYcG+GUG2UmAypSyEKMu88CSDWyOAK20ZRvRMK313RgmcZpILKvKCBoBXwosYiOcgL2IEsIjRnpC+aqmrlqSp0nhmUp3wBmQfaEjiaV+oTmBEwX14FVIGsdUXuEfLc52OMRmt1gYevmVdUbE2JAEpQAldWAFyUhL7kzqxyjKhBe3hRVkkmEfx2mFsigMYeUIEvXPiNGo482wqaB6VADL8DeZ1DiF6YyRd++1SCTEdGMAeP+UObaGG6WfxZA5tE5JQgDtWVa9addSW1HapAY1PRZ0AXxRJDHVC+Egf4frOWVQ6uj3hzYd5RqbduUTLc52OPQ0we/0cWwx6IxjPM23VylpCVZDVBayiKSCG/ZfVj4QacfjLPRJQuOAa2Q6LWb2yQIJPrJyhXiy6iBU9bMSMUjhP+E4oAMZw33jm2RQoLEuqDr4gg1kBVurkTStxD1cllMUMrTrBHUy2j6fq/oJHWIoOFJXz/XnlDnq92VytZbhOx4H6G40lkILyuj+DAQsemOVDiglPLgFgABnqBACfCmIVMNUv+EhSWX0ur9oJuzJMe8okTFET4OIJe7PY9iQmfMK7LsB+C4rey3ZiTBoDYR7SoZIo+rlWfTgSiLXnoajVCXaSj8SpctI00WZ54qhYWKDn84KNPL+A1DY4HDO1vNbpOFOm3XEnXoCyQ5ln83Cr9AVYssFMBkBhedYSFCDGylzD9HMS5qmEGqIFrrpoVBWlKCoGpC/8e1lfDsMLTVgyFAAzUGTQKrZhBdRJs53chiN1okTRtlM98sykhulnJ6wNYt4Qp5LRk9njDQ72aKPizYZOhFEMHdzo8m6DbNDyV6evkWB2y3J4lpl9wT8IUGMnshzGVLWNB98hwXmBggPi5fN+NezcyG1oY58J6IiVE6aKZWo43PBWpjliEiZPxOq6xSdMVJD6mCABQLBSMFjlhYnUIsALtaawbSw19pzL/hB8PRfUhUmiXLfqHqxitPew+a10TDtPKGHZiFc3sOSHKqPsyeOVOiWrqHxvtIn5EssVCzmB8OfwUtOXmU9wMplMdrPTM9Ho9N5i9gVeMftDn3BcCX6R4mWKmA0qh3RlAYKz1CfdHeEwD70R0hMFEyfonSj4DfMaA0j2R2ZV4TAQi+M8IZTPReF6/UGuE1JSfMpFdtZntYPjTqTWkyhK9lTZYZ2tDFg6D4T+aPL6d5scnsvSLZYKPXrlKUgZGRlZ2L1sdnnbzF7/2RZ/aLHZF1xl8YeftgbC71kC4d/YI/H9tlBEEg7i2AQq9EeoMMkigKMtWM1TOgzcJ5PfxScXuQ5Ow6B853uIzoWIk7Zw9BNLIPK/1kDkHYs/9KTVH15p8foXGh3us9B2g82TjWfRPp9OOumkk0466aSTTjrppJNOOumkk0466aSTTjrppJNOOumkk0466aSTTjop9P8BP1u1xiJNcA8AAAAASUVORK5CYII=;fontSize=16;container=0;" parent="1" vertex="1">
          <mxGeometry x="70" y="358" width="100" height="100" as="geometry" />
        </mxCell>
        <mxCell id="EP9idgTvT9CNdn5mAOOD-7" style="edgeStyle=orthogonalEdgeStyle;rounded=0;orthogonalLoop=1;jettySize=auto;html=1;exitX=1;exitY=0.5;exitDx=0;exitDy=0;fontSize=16;entryX=0;entryY=0.75;entryDx=0;entryDy=0;" parent="1" source="EP9idgTvT9CNdn5mAOOD-34" target="EP9idgTvT9CNdn5mAOOD-39" edge="1">
          <mxGeometry relative="1" as="geometry">
            <mxPoint x="480" y="408" as="targetPoint" />
            <mxPoint x="370" y="408" as="sourcePoint" />
          </mxGeometry>
        </mxCell>
        <mxCell id="EP9idgTvT9CNdn5mAOOD-10" value="聊天框中输入&lt;span style=&quot;background-color: transparent; color: light-dark(rgb(0, 0, 0), rgb(255, 255, 255));&quot;&gt;需评估的客户取现信息&lt;/span&gt;" style="text;html=1;align=center;verticalAlign=middle;whiteSpace=wrap;rounded=0;fontSize=16;container=0;" parent="1" vertex="1">
          <mxGeometry x="150" y="352" width="155" height="62" as="geometry" />
        </mxCell>
        <mxCell id="EP9idgTvT9CNdn5mAOOD-11" value="查看信息特征并&lt;span style=&quot;background-color: transparent; color: light-dark(rgb(0, 0, 0), rgb(255, 255, 255));&quot;&gt;人工判断是否有风险&lt;/span&gt;" style="text;html=1;align=center;verticalAlign=middle;whiteSpace=wrap;rounded=0;fontSize=16;container=0;" parent="1" vertex="1">
          <mxGeometry x="355" y="358" width="155" height="48" as="geometry" />
        </mxCell>
        <mxCell id="EP9idgTvT9CNdn5mAOOD-22" value="反诈中心" style="text;html=1;align=center;verticalAlign=middle;whiteSpace=wrap;rounded=0;fontSize=16;container=0;" parent="1" vertex="1">
          <mxGeometry x="535" y="428" width="70" height="30" as="geometry" />
        </mxCell>
        <mxCell id="EP9idgTvT9CNdn5mAOOD-26" value="" style="shape=image;verticalLabelPosition=bottom;labelBackgroundColor=default;verticalAlign=top;aspect=fixed;imageAspect=0;image=data:image/png,iVBORw0KGgoAAAANSUhEUgAAALEAAACxCAYAAAH8LmxTAAAAAXNSR0IArs4c6QAAAARnQU1BAACxjwv8YQUAAAAJcEhZcwAAFxEAABcRAcom8z8AAGTHSURBVHhe7X0HeBZF8zjv3b09PW/ypvdC79K7DVHpIFKtgCDSpJfQUQTB3rAgoJRUWhJ6ERFCRwUE1M9KsX1Ysdz8n5m9vdu7BD4L+Av8M88zz/XdvdnZubnZ2ZlKlcoBQHB0JkSmN4IgfxrgcWJiost601+C4OgM8Gc0JsQCt2zZRNvI9MYQmdEYQuKq4vFfh4jU68Cfzgrmhe8/sJ+2dA6vETb66xVg63jB0VWag+JwU8GK0wtRlZvr17AC67P/E7AALGz37ndU3Lo9Xoj0x4DT6aLze7Tz0VVa/PXCNYDklAxITE6HxOQ0SExKY9vkdDqP160P/CmQZXkvPqyW5EDHW9oAHCwAtSQb4PAqaNu6Ge0rigwORXnN+uz/AoADefD129lUOOzNBtibA4D7WAEel2SDerxIxevWhy8KwV5vG2wVVlC9SgYrdA8WlgOJiXHUYpWOs2HZ45Pg6IYlf77wwpceoQKwcFmSPsFCqfXHigCOrwc4VsgqKMnG6+etz18SiK4lOWC32+dop1jhAmqk+PMt5sALwN1xK87AzOJfeUEmlB1ucDo991ufvySIhY9feQbGrzgN4wi/BHdQJNtfzs795dZLkvQzHCuGGs3bUcvHE56G6esugCvYT1s8h9emrf3vX69AA/AGB1OLH9sGVAGKBGwxVsDe5jTEVr/pbxVOMHXtTxAY5oPxK7+GiPRGMH7lV3rBnGTWZ/408ILufbSA5PmgJzfphcOJjX+bLATYOuxYLATJwrhIK/zvsiSH1DqNYPBTG9Ws/DMQn14dJueeptan1mlMo/QfFS7bnbwAE9rdQeBwMfFrfeZPA33SdGxk2kfhZr3//wOw2WygOD0QkVIPfCn1AOmP56z3/WnAh5Ge7OPbCDp07AjXX9+G9vnX/i9X4HQ626Auwr/6Dk8IbN68GbZs3gSuwHD9a4/XHQ53R+vzFwVJVnQ1AR9G7YpYzGaDsPjq4M/Q3iSjMUiK/c+3WrJJ3yMZ7r77LrVTx45UaLjPD6FhPtrv3Lmzevfdd0FkekOQJOl76/P/CyAuPompD7rqYKgQcXFJf3ugwOiBfXQZgZ8v/v3Eof3stBGk+FgfuiRwmQBH11PBQ+/urnLVYdygvuxbuTcbXprx8J9v9c+H1lLL+na5BeDdNUxteG8dHM5/gRX47jpDNzm5AVwuxwhrGWUC/2o77fZpVLB23OS6OtC8UT1dXYBD+X+upRqAii08slp/iArGc3sZjUl12EOk+vOw+vlZKuzNBdizEsYvPw1Zq36AKau+ghbdB3FaQsvuA/R96/MXhWnD72c03ZujqQgMsRB/Ujr4E9nvB35pZm/8/a8VHhIaQvRDFSAr/5ymDpyGTkPnQbdRz+qVZRWcg9gaN//5ggWgFs3dBjBnK+ivP73wAkwv/IX2nR4PhIWFxVof/DOgF+gK9IErMEJUB/6e1qSB/pX24z9M5Wa6roHXYF/u3yq0ki82iWhNBWc0BX9mU72ioPAI6mTrM38KbDbbH11GPg1jlh6DqQVnYUrBWRi99Ch0G/McyQlt6P91sNlsOSKdRezUtpX6twuWJOkD9unnn39DDahXp+Zfl27lGurVq+exnvs/h4CoqAgkc3hSbd3IwLsBz0dHR9PW6CaG4Ul16HxYmDvOWuaVBPrN5woCaRm6tkGGC8K3396p76OKw+/lag8eR6G54K+qPn8DdIbmKhFvADY8qnIzauSGDeth//59sGPHdjrG80zT4Xoaf45R/0oPDEYprQHcAIO4cOFLsG/fXnjrrR1QUrJH3b9/LxpmYPuO7bB/315YsGA+H7VkCTIazdjJWtFlBU2TpYbgNjgkFJLIsCMYdXDLUdDSklMyISg4lJ7bV7KHtn9ZM/4HAA67gyqdOrw/eLwBOsUvhQGBgTB7NFMu7Ewh/lcaDHB0HcCJDQAfbIQf9uQbVpbDBUzJM1ldmL2I8PAqZpjS7unRoa3a4/brAf6z+YpRG9Q9K0mljYryk/ZJL3CoQNeoTha+ws6V5DIdkDeefYjh4w2v0yeOWdpyyFb17VvLdV3cWuE/BYNiJzfCgJ4d4YtdrCEiVXXK8gbTVmuksOXIWSY0MLCxtcJ/BLIkfQ37NEueZnuUZem4cIulwVrjjq6Fb3YsB3iPq/VC45nmfdkpq0NCQpxONar0w43gcbvXY6U2m+0HRVFed7vd1+Fxh7ZtAD5gf0tm6jPTZe+ut13ZxnL4GqllaQRWPG6lYQHj2xot2sHUNT/DjCJmqYQP2TzCzOLf1BlFv0HDW3uDzcZYwpdcH6IqtwS73dXbWuflAJIWoi1WcSjsrwJ/ZThqhskhz24Bh5tNH0RmNKWt4nDAyNf2sxeklzXuv2vGcmz4HdZKLxtEREREybL8XvdRz+pqOjYKG9B7yuvQa8oi6DNlETUGbWL4tXO63XRf3ymLoNeU16H3lEWk8tNzK8+CrZLtfVulSietdV1pgDFL3ochT2+Ge+esgvZDHqU/VDwfIZglyXpbuTk1VPyLQhv06MVHwGaTvrMWfCVBpzpvxMziX8CXch3pFDithdZ4fh3Zgzd6Us6nULXx9bTvdDoftBZ8xcAVECgY25lxPTatGpmtuTaYWruJRm3G/7jvDgzSxwk22lruFQVfbLLe/SRFcMph+ZfUkKjKNLUGY5d9qU9FcAyNjNE/RP96o20227SoqGiIio6GmJhYiI6JgdiYWJg0aSIc2L8fRowcwc5HxxDifVFRUTBp6D0q7M/9v6G0zWY7aP4pEP+A2V8KHou6M25DQ4Lh441LAE5tAJfDMd5a7hWF4ODgEOu5PwOSJK2WZfkt6/kK+CvQr18/V//+/e3W8+UC7Hb7E9ogAndIFPiS6kBkWkPGs/HVwB0cyQcZKLL8l6e6LxtIkvSLTVaYS4Jgywjyp+oNDI5KN9k58E9cku1X7O/kUgD+zCa6yUDHTPY3vnnzJkImn9kL6X/tJFma/KuizSTGWAOYjSMwMhm2bt2ijhgxAgYOHEjGGaS4bguh+xoxJNvGlae0PvnFZbA4Z4XXb7jxBijZsxv27NkNbdq0oXNmS5JZdl8xSgcGBoZHZjQxW4EsDUCKde/WTUV/HrQi9evXz2iwZsThZjL945LR+G8b3C8JsmzfgbynU1XvYuTdphCRdh25NdgkRR90OMC8oTGWZ1gjjZdtApIk77LW949BURxZ3EmJf2qD/CnUsFatWsE7u3epu97eCe+8s4ssS/v2lRAP79q1E97euRPq1atL94bEZOjsgFTGMmXZPt1a3+UCrSsbUuUHDuyH9euLdYrKsgzBIWHkKOWL8ENAYBAXYYTri4vgwIF9tI+yGsu6YjwsAHTp0gXq1GG2Y7TNJVjtcpo9zrQvOGLhsz169GATGgA2awVXAiA4OBSSUzMhMUlrmNhY6zGdS4ckbHRqJj37b1BWB1mWVYfdDutfeUxt2oAorZtkL4UtmtSH7UufBHz2X/na1azp9/LKbdr8FJkIDtBkLjRvXE830jDLUg40b1yfrpH9zmLakiXpZ2sdlw1sNtuvbz41nSaF0aBIjdAbp7ngkXVTsA4hUkO5eUuzxx1dpz2fDRER5IJweQG95+DDzVThdbVrABxnkkG3YJbkwNNThgMczGcmMO0cXd+fCzMfHqBTlzdaf+FjheB1u4dY6/zbkBkeHvj8jFGs8P15cFe32yE+LhbiY6N1Ey3/T3tiwhDjnHZ+2fyJ2vQm7wnGLnQO909tAl9gYLq13n8CugEbPtoMR9DL4VgxzSYxCmvdfKzYcJ5MSoBZowao9MzulXSNl8G3rMGX2fLp8wWmXziIJlahkt0a/364yWySFXEf+ztmDdQGoDYI6ZkPGEvJsvyVtc5/CkZlJdnwTQm5ghFFHE5nKapxu8O3u3PhvHavyLd84IWEhFw+qooQGxttjGwacNX1ihyKsvy3o+tp+sBEXTw+WsRQlBa8nFNbwK4o+eaaLgPEh4fHwPuFpkFks0kmyqDw/2ynhSW4DNZZgLNGNpx+B8u4Qh8MWZL+g9MLIuU0dqBKZVk67FSUB9xu91A8d74ERVquLh3Exv96aC0953Q621rruZygDxJ9NunLnXDrgGlkL5uY8w05xU5f9wPcPXsljHvzkBoaFaO/FEd3gBem5H8Ek3NOqIGR7AfV2lOXCyw8iEJ+PYxbfkrwRTbMr3g/bkMi/fDk1JGQ8/wsNdgXAWM1Y+HDr79HW4c7mKYVtBe6fGDSFTQK71i6QJ21/jfNeqmZXjVn6hotblGnF/4GOO/BqTuz+A+YteEPaHhbL93hafzKc9DijsHq03tV1eFwXV77WvOGdU1U7tflVnVS3ne6udWYBzHMrojRVVpCTNXWoNjZ7xLrEW5XZs9OW3fh8lM5KytLwkKXzJ+s4jcfJ9Ox2zlLTMz9Rp+Ewe2Eledg3DKj4egMPm7FWZMRHJ/hL+dLpT+XKwMOh2MCawRrLE6D3T93DfR/fB30ylpEEzJZBd/BxNzvwBMaQ4j7k/O+gj5TX1fxngHz18H989YS20Qk0P8gWpC+tdZ12UCSpK859dLrNoUxS4/DzKI/yG+OudWfhRmFP+lGlhlFPxNVZxT+Sr50U1b/CGPeOAUzi36GSfnnuXfLlaOyFaauOU8V3vNoPs0w4X7XkU+DP7MZ/Q33mvSqir0xOf+/UOPm+4jfpxX+BOi7jmyUVXAeolL+5gKnvwpBQUGpM9cbEgGxSad7ICAkVKdwWFQsNZgPNqJ28W8w4tUDqj4OVv7n32lwYGBIexzppgkYTR7zqQOD543ZJ3zmgQVFar9pS+m6dKU+1VZwuDxjJhd8rzXmNIzTprlYgxmFxUHKnSLxmWemjyKpA+8Xw79m+JZl5cUJOd9SQw2xdRbsrgCdwoorAMYuP6Pdw8QhirUH+3Vnsv3UJvDa7dWsZV8RsNlsG/GrZXwQcBXPL2B3B+oUdniCyRNA/JRPyPka7urcjn1BT26EkMDA26xlXxFQFMdr41fwBhtdPnHlKWooLqCalPOxZZLxDIzP/gpG3NeTNfjEBnA4HJ2sZV9JgFZ3DoV7ZufCw4veh/HLTsLUVV/B/O2/qAve+p1cvMcv+xBGLXoP7p6dDy27Dya+xr9u0lNOboAon6+FtdArCTTLiTOeMTFs5hPPHTx4gAyFuC9ew3upwWjbQLX1aJGakpISbC30yoFgmfwziHowKv+TBvclA0vRwkfw/L8HyKfifIc478ElhflaI1AcHkblK+Q2dknAFVuRabxBRgPNDTZfcwaEkxngveJF4HK5RlrLLJdgs9nO+3y+aOv5CqiAawS8Xm8bRZKy8WdEnNO5FOJ9kiSdURRlscvl+le/ReUaQrwhNSRJ+oYTyhkQBuGJtSEKndczm2oCkk2QoVBEf4Cw+Bo0Q4hrEvEYr4tfg6jMpuy+xFq0OFLohF/cbndDaxuuSZAkaSX/VkekNgCcxOZE4pPXNDHNP5FpjSA4So+2AMePHYVtW7fA0WNH9XMhMZUFQgsoTGxjPRFpDfT5ZUlS1lrbdtUDH/bIaSIhDMKWRiQSci4+17VrV6hSpYq6desW2LJlM/pnQGZmJnTo0IHmUsITawnPmjuMT9AbLhSNICqTrWPR8OoGm006hy+CK41MOpHOrQZBdULwxT2ZTcmYhM8fOnQQnnjySZEw8NRTT9F53A/wJZBXg5W45PkglikokURsFugER9ZfXqlcLgC5l/1T4wszonI3Ea6QmjjZso/hZQICAuHUqZMqLkbavGmj7g6FuGnjRlqk9NFHpyAgIICW1OtlCKvhDQ7Xjq1iJb0R/Ur/Gx5JlxXsducMEg/0cTLWyHECcg42iCJyssBpmU0BIxKJHCwiyvaQ6AytHsP/jHesuVyxTj6SuKsMEx92u32e9V3KLaBXKzousSEsvKyJo9hL8vV83rBYPoljwri4OGjSpAl07doFevXqCb169oTevXtD+9tvp/PR0dGlfDiw7qCoVHISJBTbQMi/CdoIy2gMsuJAJ6qd1ncptxAdHY1rZiEyrYH2Mgb3oEkZZSgnSIvmzSkGxe53dsHOnW/B3r0lsGzZmzBgwACoXr06/sOWIryIYWFh0LBhQxg2bJiak72SnsdySkp2Q2HhOmjQoIF+b1BkMkTrbqSGfMb1CHjd7yfflqsOUF2iFwtPrEkvkpiYCAcPHSBi3HPP3SYuDAoKgdi4JEhOrczcozS/Ld2nyxoRQ3OTQr8vvB8xNi4RAgKCTB1x7733qFgffijT0lhoA19SbepwmyTz+65ucDqdD+CLpKen6y8eHRNPC1E5EQ1CWvzMhPNJ+iJWq0+aFs1MR/MxEh/r43VnZmRQ5zqdzkHWtl7tAJIso+u5icsQFbsdvAGBEBbmA78/hrgxITGVETYlQ+NUg1sZZpA3Iq0sTkqn+/E5dLUMCQ0Ht9tD9VnrkiRmtLwmuNcKZF+w2cBhV9APj14Sp0K4vwi5wb2Pi4bXA5zbDXDmHbao8uAq+KkkD37ckwvfvLUczm17k9bW/rgnV/2pJE/948BqttAY7/9qD8DJ9QDvr6WAJbpPyon1OoHtikK+hFfMH+XfBM0DCCrZJHhu1mg4u30FHF77Kh2jTgqnNpq8Nmj/+Hpchqje0qapemPLxmB3ukD9AD2QRB8afr/mRHG0iJYsdry5NXS4qSXIDofgoGa4UMG7qyE+znBViYjwqTe0ZI7DSPR/HP3y3wQ+FH87ukGb+MgB+HgLnfti6xvEvbi/P/d5iqEoErmUsxyh4BklOB8Zx+KibF6O4BSqX9c65r011MnD7+lh1HGUcXp0dHSC9X3KFTjs9uexod/sxdgAhiPUM1NG0At8tSePpsXQoS85MZ4cUUXCcUJc0Dy2EN9fvZBd4/eYiMz967Lho+JF+jMXUHwInWN2G8qmdd943+5lTxnnjzHvXC/zKCufIEnS7wGBATQkjZfHmFarAMOoLZg0lNYA4Is8O2MMbU3iQvfhQ2dDPcAh/PoexuAUOBjdQAVXUP7cb+8yIlG5Jzca1zlH6xFJs0mu0320iB7buhJGD9DXn5dPQPFQJSNVJd9DkXP2ZMOLWmw0+sDtWQmHV71MxyXZz5kIJYoBXTyI5/fmwIl1C6FRnRrQoHZ1WLZgchnPiuKi9Hm+37xhPXC6XJD97HSoX4dZ+Rx2+xbre5UbkCXpC4/Xa3zJyWta2+7Pg+XzJwN8shUWZA2jl1EkqQi325c8cRGCCIQXiY6dpC311RE5WtNORNHBZTI/b+znwGebmPuM9T3KLXhdrp7EpR/isDdeSPzg9O7YVrXZbL+Jz/Ff7vxnZ1IgDk4gLi6Mj5RB5GPrDZkr4odb39TrshJWP9ZWVOx8g5lKg4KCwsT2lHeANx6fKLykQRx6wQN54PdHom6K3FsKJJvtF+qkj7bq3KlzNudmQVyQCLEMfdN1vQytk7no+mgrEVey2X61tqFcg9NOK+hovYHIdSIXw/Eiejm73d7H+rwIks32Lt7XAWNxf7hFe95CbJ2wIjEvdoyE3Qx3drqFEVeSPrDWeVUAfuwe7NvFvEyBcx7nOEFLSK/fGnpNXKi26DZATandGDxBwaWGfllYq0YVmDXqAXjnzafg3NY31Z/35MLve/PhQkke/LA7Gw7nvwgLJg5Rr9M+YGWhTZK+VBTHMOs7XA0An29ZKsg/g+NMHKYRuv+8deT/JjruMZ9PdKw2AnTMLGZOrF1HPEHHU1b9BEFhPlwZAfDFLoDDa8mNEo6sA/j2AHg9Hgq3OX3drxTQ4/o+I+n5KQXMMTu6civy20eMSGVuQJz4V4PrAHy2eYlZFgsyFPfx/HktpNaMtd8bLvg6cvdP8/mZxT+RhWzA/ELWCcu/hKz87+HWAVkmDr1twDTIQr/X5adpUUTPCS/R+VkbfmPPFHwPM4t/hnsfzYPoFC3EMYoPhUWA+zeiEv4jUBRlAzaUrR8rzcF8/ylNdZu65idGRDHWkxHzSRXjPyHO3vAHPdfyjsEws/h3qKQFqkI/cjL8V9FXlcDsDQDVmzP5O3P9H6YlCXzkiJ04dfWP1DGtew7hZZRfCAkJScRGBgUFqRhjGXVlk6jYmwO1a1RVMf4vrr8wc63hxKwT38LV45afgQbtehIhni5hkXlxegr/IDmBF7zNzl/fe5jgVi7UoUUfMwJznYbpa3/Sn0dXSVw8a323cgk+ny9DlqTDvPGIGWnJZE68vtcIk5s64pQ1P9M93Uc9c1GxIRILOa9ygza6Rzn6hFZpdKPuD226VzjH67tj3AtUH/r089BuESn1MY7wF7ivKM7B1ne6mgA6DptHvtX4UcMPGbrjzyxiy5uGvrSXVs6JnSPiXTNWMO4rZPeExlcnIofG0YJMdXohixPW9eEnSj3LET+KI147RPu4ngw7bMhz20jux1Rufi4ssTa/9+qGFStWyIGBgQ0dDkeWIimFNpv0H3yxSblnabmAw1V26of6bXuQ2Bj1+rt0jHNybDJWCxG29LjOrZx7p6w+D5OFtW54bXI+C4c3bS0uEGHnZm34HZxuY5LWbrfPtbb7qgaPhxyTYfq6n2DkKwfoJR/Z+CtMXf0TTMj+mri+84gFdD6r4Aeo0fI2muaPTGdxgHCLiQ/q33yHal0G9MCT22H0khMGkZefhulFTDyNXnJU7xCxc3qMf/Ha4GYLNMeXQvlIMnrVjzBl1TnoNHSuWu/mbjDoiWJ1ZjGuozoDU9f+TEM7KIrHbmHOMcExTC3LWvWjRiwmjw3iMVmP+9O1ZEAD5q01OmTFGVqOh6IMQ23idb8/Mcna0KsWJEnqjy+FH0DOidaPFT8/MfsTRgDNS4gTGdU5xulnaZVdWRzK9/mHVsSkpHh4ZPxD11iUeAFsNvlJfLnJBT8wbcCkwhkciIRudedwIgrGTOUEZl4/LAxY23snlUFkY80xloUL72ySDWaP7K/PF5K6eYzZVwKio33WNl71oNgdhd7gEJiQw9czi8iH/mlaUWuTKpF3p9lJkHn/4HmczsJlxPxZEhl8UbeGuPYuMCQEBvXtZhiRcHuS/fYHuYMw7PC1BTabtCE6paqwINwgrFlk4C81s0Og5yXmx0DHcH9GM80TsxKtFsbfauuzooyekP0VhEUnQJ9OtxgEJiKz8N/uf3n94L8CTqe3Db4c5ljBj1vp4W4Me9yOXf4FZOV9ZpKp01afY8TlMt0S7dXoqDPwmJbLRZ885YQ+wYgc4HZ3sLbxmgCn0z0AX9Dp1NNzXXaUZEl3WHx+ygiAPdyuohFZc0/wer01rO27JkBRHEvxBRVFAbfbDUFBwRAWFg4RERHgj4oSFrjGESEmT5oEhw8dhEOHDsDBAwdg6NChdJ6H/8VnIiMjweeLIE/PwMAgIjCWj/f1bH8THCl4EerVqqaHBv72bRYoydq2awZku2Mb82FGTaEpJTrCPzn8q8M1HWzRTmPwpV4H4cn1KOuLL7kubRnWhvDkuuBLrqcv8uHRHhgyv2f8QKJ5s3n9WhASHAS3tGqiz950atsaZ06uXOi2/3uwHcElCGaNQUTxnKhZXOresraNwOFly81ubtOMcfGelbD4sfHXNhcjSJL8Ha7dYxyIWbWaMU7MxHV8bF88R5yJx7TVjtGhm/aR+zkHC/va86jqoZl06P29ITqarZ13KMob1jZVQAVUQAVUwKUB4/jeVu82T9euXd3WaxXwJyEmMDDc4XCMlSTpCP6U2Niixf+BNh4ZYJ/D4RgREBBw7Rl4/gkEBAQ0lyVKZqUTDReWO72hEBiRROkNcP4NF5xzFQz1YNSLQ2OrQIAvERyeIDEUG6Fks33qcDj+naBL5RHssv1Zg6ASBEamkB5rBGI39F80YSJRg6LSIcifRmvs8JyoJ+MxX4UaGIETtsYiS0VW3rTWf82C3W6fz1/cExLFdFa+QtVEWIbimjoMkYu/2qxTZG1uz/pDwgluXuzOCC2/bG3PNQPh4eEx3NjjDY83EUdcemsirhAWYdy4sbB9+zbY+dYOuO+++/Tz1EEXWXyul1O5hb7SFeV6sNN57UwlISiKgg59tPqUE7bMNdXConW8BzuCExJXi2Isiy1bNpERiJ8P9CWUIqhYpvj7jHVzNyxFUUZZ23lVgsyGJXhCo2nI8kQrRAiRsAKBiRiZLP3esGHMkoYhFRiBN8PefSV0rl27djT/psexKKvDLHEs8F5cCI/Pyf+X+YAuByiKMpG4zI8fMJHDxFQ81sgAbMvFw+LFi1WvNwD9HaB4fTEUFhayj2JgICXc5WJC7zCRyJphSDyH92GuuZDYKhqR7TOt7b4qwOPxROELeMPiSg1fbhFjRDAPaU4EvI7P9+3blxLjpGqLyRFx3TUGQ+zWrZtGYK5RaOWZRoMl+ovQFlQD8XmnMyjV2v5yD6T8ywqzmIlD1cplFk5mqhrjXh49ElMlYRwhJOrBg/tpf8+ed+iaz0dZLpiV7RJix0x0Q0TJdn2m5eoBp9NzM39pehkxZpD1ha0E17b4/LPPPqMeOXKYhbfZZIS54ftHjhyCF19kjoFiMBIj5ZPRaVzTsGobXNY7HI6O1vcot2CzSf+V7S5GWG3oimJBl4tEhNLxfvCZoCgmEkJDQ+Hpp59W92KGp/17Yf++fZTp6bXXXqVpI7wnICJREz+CjL+YnLcQGBHbapOkn6zvUZ4BQuOqaC9r4VSrqDBxsMhhDSk8DZ++Lwud3hCBcwXVj+oTYgmJHajHGTKIHRpHwcOvKjGhp9+yvpyV2OIwZrMRTSAssSb9GGDsZMpSaERH0RHlO15zBYRR3r2IlHosdA3/8eDE1IltqZtQEylpLN2Y9SXKMxixg8p4KV1UoDpWpTmEJdQg52wrEb1eL2RkZKitW7eG3r17UYCmXr16Qe9evaBFixaQmpqqlhVfCBfP+JLrQHQV898il82sfsbhfLRcdQTGYae/nEZM03FaAxNRI/2RMGLEcCgqKkS1TEUt4a23dsDbO9+C3XvegX17S0hdw2x7JSV71N2734Gdb78Fb+3cQRoFXlu1qgDuvfde3V6BiJOfnKO57GftMEQEhpC8qggsSdIXpKIJf1jsI8deiK/VQD+GOY8+Qln9tm3bSoHxtm7ZDHPmPAo33XSTytW0iyFGC0hKSoLOnTurC+bPxzIo6NOOHduoI7KyjFVOkuywEJfL4iYkgrDN1vcotxAWFhZHXBxfTRue7M+Mp63Fob9mzSp11663ifMee2yOGp9g2B04OhxOCAwMhrDwSPBFRFE8oAh/NKVfDAoOBbfHqzubiIgRth6b8yhpG7t374KCgnw1ICCAfqtdgT4tCq35A3dFMndeSVAUx+vY8JDYyiQL+YcK42EePnyI4rTFxcXp4cWQmL7IKIpalZJWBZKSWbAlFuFKiGRlzcSYnE6BmVLSKtM+El9R7DqxExISYPmyZSoai17SdGYcQfhBDIlmTt+KYsfItVcf2O32x0XO+uSTj9VHH6HQ+OzF7HaIjk3QUlkK4cUuElrMRGz9XksnaPtI8JjYeBOHPzJ7Nnz2KXP+5miX7U9Z231VQVpamlOSpP+4nMYCGTTe8LhtF0UrtwpE1mO4lbqXc7qQd1RLhop18vodTieGcfi0UaNG18YEqsvhelrnGLuD5ClPqIpbg4gCF5qIawl+JxLddC/LLssxKYXVgYSPjIwmMaQT2UEi7NoARZLIbGm3KxQ3TRyieOx0uih/cERkFMTExEN8QjIkJqUS8Y2geBmQkppJyAPjUdC8ZEzrmwqx8UkQFR0P4b5I+jA6HNr6ZgG12Wd+jG26NkCW5a7ENXY7OBwsoy7+IGQ/MxN6d75VTUyIg0pl/K39XZQUBZKTEuCubu2h4IVHwOP1UJ1YPwbFw3ucioJ+y9cGhIe7Y/Cl8AWdGmdNG36/EcNifx7AkdUUHAQ+3QbwzV6A/2wDzH6J8SZ+2psP53dlw7mtb8BX25fB+V0rMRKh+ktJLqU/hP9sZc98vp2Vgcl9KRIWC9/wwnQWNgFHECew1+utaW3nVQcYAFSSLP4K2jF8tKXUiv9z6CQtiJCPN2H4BWOBurg0gIeuOVCACw8lpu7ZJPVDekaI6EIBR9gyAowsyGN3YjtkWT4ZcBXEoSgFcWFhsXwG+cbWTeHQqoXw3ds5MGpgHzq3+qXHtHzBRuwKxAkP3qUmJcRBv063qAlxMTBmYB/G5ZZIV/gMEXhvNgzo3VnFhev9e3VUkxPjoG+XW7WRYQ6+9PlO5uGORMZt/z5dIdIfQfsOu7zV+g7lFrwuVy9sdGSED+DUZsZBe3NBfX+digS5rk51iIryM7EgEFePwsLPo9M0PmeNyqId6+fwGU0c0LP7cimSVSku3rMSTr+dDYomouDERoADubB/DYsZ53U6b7S+S7kDj8dzPza2Z8dbKC4le7FsmDDkHqik2AEOFsDEQX3ZC76L1w0i6VzJiWYlJo9QZeVizqV6iByDqMZCGAP3Zz/L6qdohOy5mtUqYzRajLBVfiEgIKAyNrxfl1spXBh/ud+1YJ95T0+n+JihoSGAgZE4UU0cjHi0CNo0bQDf79MyzuvBm6yENoj9++G10KrJdQDvF5njEgkiguPSuRMYgT8wclYXPDudy/1yDZCekkSxMXVO/ECLpIoi4WA+lOQ8R8ff7skzAouKwZn25UJ6KpvprWSzqaRZCBGyzLJYw8MFtFofn0lNTjTEhYnbjf2JD2J4dRsbYVqZa56fWb4JLEnSZ8QVH6PMRa5jHPQjT8X+n61weN1r/CXgs23LDA4WCXx4Femw/D5cqVmKqAJH074W9w3R7nSyINMaMU1bCi2ZDW1bNVF9vnAaZXw0dLi5FXpj/mF9r3IBoaHe6vhy/9nyhoVbcuB44av04u8WsdCLrRrWJYV/aD+2rlgXC0Kk11H9e9G9dWpWBR7YlHO3GOmViYxsugfvxWemDL2vFHG5tkHnDuRBWFioen2zhgaXf7KNnvW4XKOt71YuAAmWkpSgBQg1iIv7I++7kxykz+/Lp33UKvBlDuawKK+cCzmhaXsgD77fnUs/HrrcPbIa6teuriYlJahpqUkq/oDwMGRU12EKga4amonRDpNM1rj9qaxhTJX7aCPExWE+kXLqFxHocjXGBv/+XqHBJRw/ZMtXB/bqwo6PF4HH4wEZtQmME8+Jw4c8j0Jo/aghHiqArrfeQGF02zS9DuDdteZOKYVGO0wfuePsm7B0fhaMf7CfLloyMzMDre9WLkCSpN8SE2IB9hvDkb/QvXe0Z3L0w81E3GpVmHF76tB7iXt0UWIlqB5gVORCjXBiIGjxeW1frN84b5xb8hjTIBDJNqGUY8dsHgb3c032Wrnnu7eWw9mtS0F9v4imiPBeRZI2E9GPMQ7mBC2TE7nWgMMeP3ZENI1g+COBWQ90ecxEgEhg85ZpG26PB61pH1rfpVwCz25Aab4tL0T7+/Ogfds2RFhZkn7HZ+ppnfJB4Wug0op4kUstXKgRPvepaVRGwcJHWRzMo8VQ/Po8du6ZqaZnrITm8Y8Rz2m/ypGRkX7ru5RLwH/6wX270C+oThRhyyOOeFwuU9hcnN2gjqF48WYCczEh7sN7a+H6FiwNhIidbr2BrjHOt3Su8KtM3P5BMZ85xtx75R+0/NjwM/1t8ZcTRAS+1BGWvSArK0uyPo/nmzeoq+qZD3TCliEqODef2ggXSnKBTJSntN9c0zNGZ5k6en8u5fXQOubqAD6ZiZwhciEf1vhi/9118fgMbrcb4+jAoLvuICIbXCyUIf5gcHlsIqJxv9hJ+n24PZAHD/dnIb4CXa4m1naUW5Ak2491MdgF/bFpnKJ/rBgRDuc9f1ECIzjtzrvw+g2o9GvRYMvkYpHQWudZ7zOLGu345Eb8a6M2OO12rOuqAnhjHsaGN7+8TuySbFg2f7L6v/JgeDz2OlymHlzzCpvVsBD4YsQ2ca1I8COr4diGxbqsvurSEletWtWBDf9lX4HxUeHcywmwJ5sSjUiS9CN/UUSccJQk6XNJktbZbLZZdru9e2BgYIYkSV/idcXhhJznZzHd+dAqg5gmLjaLCTpGMXNqM2xYvABcbg+v65C17VcFBHu9N+ALWLPGmLfZ0PHmVjphhy98W739gWlQo3k7iExIAbuz9IyvFd1eL/TudAtkPzVVPVH4qvpzSS78ujcfftubBz/vyYNP1r+urnlhFtzbo70aEFi2DzGbRVZWezweHClXB9jt8mwi8HHUf7VhqX+EBDy8CrYtZSFrZxaxEOIUmmvlOZiY+y1FtJ5Z9CvMKLoA09aehxlrvqV5tXo3dVF7jHtOrdKwdSmCXQxTazWEvlOWQEqthhR1+8Z+o1Rce+EKYlNCHGXZvkPTgMovKIqy3hsQoJsFuc5a1td88pC76cWyVv2gx0uzBqZjAfdPs6D5vVm4xRkYU3jZaRiz+DAdD8Cofp9uB3iviOGJjfDE1FF07aHnd1DctFnrf6fjDkPmqBiI3xMSTcH2/ZktCEOidRdVXC7wufW9yg1IkrQzPDxMJXuq9SNkwRubN4RgXySFueWBQq3BPsXjWetZEOf75uRT3Eok+gNPFNO5oKAg+AP/5E5tgoT4WOL2gQsKVbwHO6rb6Gfovkc3A8RXqWUQ0yZBQEQyI3blliArundP+QRFUda4PR61VNx3gYvp/IFciIyMgPS6zWA8hVhkUf5Kx3wXQ4qfgYz6LWiYT12NUVy/hHHLvoAZa7+F4AjDVzgsKhamrf5GFzszili6iTrXd6bRgPXhuYk5n1LAfoy0jdftLkNW2+2uO63vVi7A43Tegw3ELC46MTXimoj9Pkt3dkOf0UIGAyGo/sozMEHMbqARedYGxsW9pywmDkYc/PQmIhD+7nI32MFPbdbzedz2ALNXzN7wuyVGJusAjM499o2joDgUaNb5fmjc/q7yzcXYuDfmTdL++UtzMO1rgTn7TltqChBqEFTbtxAYY1XedBeTr5gKovs4No/nDomiUF6InmDGzR2GPKaLlY5DZmvcq5XFsxgI4iir4Dxx9+yNLB2FojjK54Jwh4OFSjx/eF1pIusEZgb3kS/vNYuDsjiYxwTWtshxil0Gd4A2pNGXLSiCBeHIbAoObyhgCF28hvNwLq9X+5AKokerhxHX6EQ8nrbmGzU8JrF8B3KWWXInmJ81nH51+R+cTuB3C4kAk/PMHzQxL4aZow2uow/eBhZGvFWPB6H7qKdony3dYpOi/aavgGbd7tc4nYkGE5o42CBuN60sxcls1MHBwSnWdys34LTbp2pcAD063AyfYv44tHQdKoBz21fQ+RlFmE3G4CR82Yk5X1NcYJSfBpENTmMqHH68MCb8GcoUg2VhxECe32hGMRL1LKWPEJ/ldXDCshQ+51SsE4+Ta9QHV1AkRFVpRZl5JVneY32vcgd2u32KGLoW0//Wr1WN9vFnwiAw46KeWcxWwIgjDGudUJzr2f70dd/T/TwcORG48EfTc9QpvHMEnLb2F8YA416i4/YPzqbjuNptwRMSc1Rr89UDTqfzRrvdns3tENMwaL5AhLHLT8NN/ViSVsxWMDnva+gzdRH0mvI69J6C20XQZ8oidfAzW3UiPfwqi3Dip2itLPfGqEWHWIz35WcoSVWfqa9D76mvq1gOlTF1EWTlfw2TV/1A99981wQqi+fiEJoMwQkJocLx1QGKoizExo9fdooybGHGl8n5mGDkLDS6tR8oTgclIukygqWaLAunrEbx8iV0GsqmiHjQUNzvNvIp4vBLZaHpMmIB/ZY73G5occcQEjuYJQxjx8uK4z+xNW+m+2S7fYG1/eUenE5na2vEa0m2QWRiOgSFR0JAaDhMzMafBRYefO42gMc4bgWYWYyhyZkeW61pW4rrQIsZMcaD4oSaLdvrIwOzhqG4mVF4gbaI09b9Qh2Af5GB4VFQo8WtbEQs/xJGvsZGREhMFXAG+PBv7+qOKRweHh9jt7t6OhyuVyVZPlzJZvvdn5RB3NzhoTmlOI/jtDXnKcuAOyAA3MF+CgWDRMZ9ynSAHWRRxfAZXR8mTeIcRKVkQFqdFkK8+NPQcyILRyPgtQM2m+1EWt0WKnKwOzAQWvUYBPfNWQ33PJIP9z5aAIOeZBOm980t1EUAxtjhMSf42mL8gIkftP4LNkNklethUv454YN3Bio3vhH8SWlEbH4v/tDMLPoJ+s/H9O9o64i7qrLhXhIkm/RDzRa3qZPyvgO70w0tewyFWcVoO/iGfhjmbGEZBfo/XgwzClkOuYi0hvp6Z9zHc7MwfY9A4Mn530KnkS/AxJyvTJpFneu7EMdPzPlW0FAQvyRRgmU5HFdnLtEyARPttezxkIry8JYBzI6A6BYWCyJOXXMexr5xnPZRg8AcG7SQW4vpM2HFJzpxDYIyohqcehpa9xoGdpdTnZT7nalDECdkn4NQfwzaikus7byaAW7sN4Zl31qOZsrfYegLO9Xr2t4B7QfPVCfnfq6SgWb5l9A7i3lmYlhxLiI4ge+alWcirv6Tgvsrjf12A2bQ/ZiIit+LHz+st//8QtIyJGZEujYAtYtuY5/XcxXpaEl3htx33S09yaZrpEfDYBosBEHzrg+YnyeicjQI320sm+FGTWXYS7vhpn6j0U6tL0SXZfkoxie2tvNqBuiTtdTgNgtBxi3/koiP00thUXHg8IRAhCnmRGMKfxuTWoU0EYPIAgcLhO8zZYlJ9KBHfJdbb4Dw8DBcLL7W2rhrAaD//GITYRhBBFvEijM0pPHegIgkXUXjQT1wlgLdAjAjl1GOmbh8O/BJZjqFT95ii19woeLebGhcryYS+OrMSP4/AB54cpNOULO50iA2T4wdnlhbI7BBZDyH12YU/1aKg40yWVkPPsO82MkjU58kyIZbWjfBmedvrY27FgBGLnrPIMRFCDyl4Bz7wJGRhxNXwwwWUG7amv9aCMx/MAxxgekpicAn0azKbdbZcF/PTrg249r5uAkAo5ceM3Mbn07SiI3XOOdFVWmhiwbOwai24bURr+w3iwVNe6AO44R/QyMwOrQI01yD+3Qpv8sH/iHAxJWfmrlOJ45B4DsnvERfevq5QOKmGVu0SeC13lOWmrQRzv3iuXFvfqBzsDiHmDW4H0gsFPk1BzA574yQUtL4sIlff8yGmFiVyVqK486Jq9mEE6rWIWuZiZhCObysCSv/oxEY3V6Naa3Zw++9hjk4+7PSHCxynqYTo804LoMZ75HIvpTrNOLWpjTCJt25LFx+Giau/IgR+BRyMPdlzoZHH+5/rRLYBl0ffgrGr/xKI5Dx9TeGt0HsrILvIbO+7kQN1ZvfApPytY/bpQiMVrWV5+DOsWxmmq2fNj5ykwf1uTYJ7HC7MccmhPqjoc71naDt3ROhx7gX1Aee3AjDXiyhr/7YpcdgUvZnMHX1V5Qreca689B+0CTo+OA0mL72O9IwECdmfw5jlh6jj+bQF96BgQvWQ88JL8Mt92VBrVbtITyGxWN7fc54fc0GJ/DAnh15iJlrEsDpclH0Ps6ZlxORMzGkl8vFwiyKyw44ge/v1ZkHCLkmAcJ9PvD7MeVkNKWSpLSTlHqSpZZEDA9nEa4//eRjOEgRsA/AJ5+wjxamnIyO1p6NwefwGXaMZUb5oyitJSPwJoAD+QYX782Bpg3qIAeftTbsWgG2GNDhgABvAAViRoJFRvpNBMdzjMD/gUMHD8Khgwfgs08ZgZF4jJgx1FG+iAjqkJCQUFqbhzGC+LQVfLIVbQ/q+b24JoStWw73hYMsS1dPtJO/COSMZ7NdGRGBiDkz0JcC9zFoEm4/LH6NcfBR5jvncrnGWxt2rQBLACUmP62C0/I4c4z5NtgfGyZJxWSppuSpQgJVX0p9LYpqUwpAytJPok8wKwPzHmFd3+xZxQj9AbNH8HV8GF/I2rBrBUwxhUU7gzUcLr8uhqe1Xi/rGR6UGetye9xCPIlsWDJ3Iuf0axYEgpiJW5qQIvGsHVAWYY1zyMlcZPxypJCJh49ZWAVFURZbG3VNQLduK2TGwWVYycogqJWABqEv9ayZwPDFLlr2Cx9vodAz1zT3JibWCsEXjKrSkojsz+BpfoXUvto+l89GOmDjHE/1q6cAxvt4SmAtbXB0Vbba6fYbW8IdHZgnD2bk6t+/v93armsKHA4HRqn6V8DtdreXJfkLXAzuUJRx1usVUAEVUAEVUAEVUAEVcI2A3++PDA4Orut2uzu5He7hTrtztizLS3AdrCRJu202W4ksy+8pivKxoiifyrLyKe3LyklJkg7abLY9dsW+xWazvYlrARRFmeR0ugc6ZWfbgICAqomJifinUAEV8PegXr169gCXq6nD4ZioKMpGSZK+sq6HuBSityJmdsV8bLjeATMCGuhkOdyE1OV/BlnwC+kbSZK32WX7TKfTeVNERESAte0V8P8h+Hy+aIfDMUKWZZSOpZgHUXa4wR0UCUFRqRCWUJPszJRtrLJoF2G2bDqPy34pzRvau5sa95CtxEgki1kf2XXxHs0mnt4QfMl1KaEVZtDFyQMcBNa2CQx+yi7LszFMj/UdK+AaA6/XW01RlEUY39TKDA5PEGWxxMkSNtHCmM6wkP5vxOeQ+TBIgKxle7ciSmJ3iJ8mZlgCX1yGUrqsshAHCGd2fD7In0LtLlUHm1zPDnQHXl3BtyqgbLC7XH14QHS9kxUHBPgSISLlOhOzMmZhpntjjsQ851KKodOQeZtBQLg5/SB6aIwePQo2aRmh161bC3ffzSIaiYiSFhnTxKzWOv4HcuaOSG1ACZHx/UzvK0nnnIrzASttKqAcA65QtzKuKxBT19bVGAazuOIMKZ/QE5I006obYSuktmX3GfNZuI+Mw4NacExNSwPM8oo545GBt2zeTNsd27fBjh3byanDxGSyncoxMr2WZlRzG/HYaJMVsRxMS4lfFWusM5vNdsbhcNxqpVkFlBOw251zMYoV7zBMhk3qAeZc1vMqGwzItyKzGgxsSecuXCPm0dwQuNSLj4+HtFSWQr5bt26AeUWJgbdsZriZSeTDhw9Cu3bt6D6fz0ex7nFfcbg1JtaynOv1C8xrSs5t3KN/LUz3G+9KAzetge6YQ8xcyQb2qzHywLUKsiy/KEobXA1Gyz10fxeR8bROtzKoyAhlofY8P8afueAoxrSImHx34qSJ+prHqVOnwvHjx+CtHdsphTTm5j567CiMGzdOf2b6tKnqo4+wwCyIITGZEKVlKja1S98XBpalvfydaLAKA1CU1sj0KKGDhHYjyrL8ipWmFfAvgcPhuF20KgRGJlvWKnEUGdiQxFZGMDFNGddEJzD0jBOSucMzzzwDx44fhTlzzJExAgODICUlxZQvF3HevLlw8uQHMHfuXP1caGwV7WdP/FpwZjTUH6NN4j2CVOYSWhi0VpognXDQGG1CyVxO4yReqyBJSi7vAFzoTCYsTVqZOl7vdIGhRUknMq7IvCIzCwzBVunUA9lhNnmh8/PGjRtg+45tUFKyB7Zt26oio957773QtWtXdDOCJ594AnZo11EyFxUXUURUsRz0943kZjxR3RGlsKWtxjuavxbGPYZ6YejTnJmbgzuIecAjSpKywUrrCrgCIEnSO5zoaBbj0lfsYM7I1nM6Y1uYlO+LDGF6lrZNmD+yNlmRlpYG+/aVqIsWvQbDRwyHjh07qsuWLVPf2rEDNmtWiVK4aSO89dZ2WPTaa2qnTp1gyJAHYeFLL8KePbvV9PQMxkiKHfzpDbX2GF8NU7tLMap4zRikBh3MktjEyJWbm6SyJEnvXiR9RwVcDpAkJYcTOyS2smCesnSmBc2f1oswxcXO6wzRiHRh/OzzNiiKHe6//z4oLi6iNTx79jCrxKZNG3XzGkc63rQRNm/ZDLt2vU33432DBj0ATqeROT44Op1NfPCfNH2ACcci8+pfCeu7aD9/SB++LRMbUn3ie0nStRlq4/8cHB7PbVwH9obFCBLY8sNjlUKWY126WTu9zGNettbhmlqCgycssSbYXWZdFxHjgzdv3hzuvPNOGDZ8GIwZMwZGjhwBvXr1gjatW0Nyspbd1KRGeCE0vhqzpHAG1FH7YeNMKVovrO/Nmdr6LoLk5TSz7mPd3rBYrU2kI/e09kEF/EOQFWU5J7AvpS5N3bKOYJ1sYsIyOpF1pLB/EQYwP8MlmXYep4rJFZ9jU4hGfTy9IUlQpzeEIk9bmVREjPyEemgYMm1mE4ipisuwmpPlAMsiCwVOS1M7OKOxAWVIXOtANAab+bz5XvFLZLyfNrAzm5AtnbdfYbnvKuBygiTJ+5G4aJul6Vr0U7B2isiMZWxNTKwxBu9c3CIDRdOaPNahqCt6QqPB7g4sNalxJRGdhBSHhyZpcBYuLL462XoZs2trBgUpapKs4iDkjKwzsSjhNRQYHukg+GnstfZBBfxDkGXKiUpOL8hgXBKXLX0saNIBWceRH0JmEwhLqAGe0JhSFgcR0fpQu3Yt6Nipozps2FB17tzH4LXXXoVVqwrIDrxj+zYVrQ6I+/btVffv36fu378Xf/wAt/v374MDiAf2q3hu394SvA+279iubtq0Uc3Ly4WFL70Es2bOhMGDB8Ftt92mVqlSVU+fWhba3QEQ6EughbLMkQjNc8a76hJYH6z8/c2DmqEhibnKpijKCmsfVMA/BKfTeQOqEkhgT0iU2SohShRRAvNOJaZtRtYF9HPAqV4rU0RFR0GXzp1hwYL5ZC7byxhNffvtner27dto4mL37l2wb/8+dn7X2/SzlpuTA0uXLoX58+fDvHnzaELjwQcHw0MPDUGGh2FDh9L+gw8+COPHjwMcAIgvvfQiLF++DIqKCulncM+e3cTYWO87u3bRFDWa5N55ZxccOLAPdr+zCwoK8mH69Glw0003QUgIS44hIkrRQF8iRKY1ZF8UbQDrdBAHvX6OMTHavtFjD8tBRnY6PW2tfVABlwFoalnrMG+o8XPHJZD5s4qOMc1oUsLqyhgcHAx9+/SB5cuWqXv3lqjIQMike3bvJomJU8Uvv7wQmQ/atGkDcXFxPGbNv4YOp4MmSm5p21YdOXIkSn5169bNJNn37N4FO9/aAXtLSmBPyW5YsngxdOvWtZTkxulsmglEawepX6XVD0RUUVBt4s/Z7c45VtpXwGUExekcgHP/SGzUUzH+pW5q07zKfMl1qAPFDr399ttJkjFTGEo9xqyPz5sHt956qxoezpKnlIV2uwO8AYEQGuaDyKhYiI1LgoTENEhKyYDk1ExISa2sYzJhpglTdKwMKWmI7Jiup2RAYlIaxCUkQ0xMAvgioiAoOBTcbi+Z8Kxt4YhRZ9u1u4Xaj5IcVZaSkj3qwYP7YfWqAmJq8X4cyKR6ZBqzgki38MRaur6PdHU6nUOsNK+AKwAtW7ZU7IpdtxkjekL8EJ5Qw6Qq3HzzzTh7BidOfECeZc88/RRcf/315CppZQqn00VMGhObCEnJyJyMGZFRE5PTidFom5wGiUn8WNvn5wktx/y+5HRISkqDJP0e3Of3asjL0stMNwZKWmU6jo5NgJDQcJNtWWdUWYZWrVrBEwsWqLvf2aV+cPwY7Ny5Q73t9tt0vw4c3BHJdcAdzFQHjna7fW1iYqLLSusK+BfA4XC3lyTpPS6dMX+i3W6HNWtWqU8smK9Wq1pV70COKOUi/TGQkJRmMGpSGh1zJObTGfVvosjIZaH1upX5sS36vjA4ktLpPLYbJTpej/RHg1tLmixilSpVYMH8ebBhfRHFCOPnbYzpjzkc7s5WmlbA/yE4XC5KwmRFDCEYG5cIqelVIDklszSjiselJOhFmM96LEhYRCZxyypLkOL8GWs5puvWcxbpnWweeDgo09KrQFx8Mng8ZVs3bDbbtRnw6FoAm802zdphVmR/3k4IDAyGcF8kRMfEQ3xCMjFAUkq6oL8Kem1KBkk94/NfBkOXIUXLROuzAjNj+YQpTI1IShF1a0PfxusJiamkm/ujYkkNQp3d7nDoJrJLodPpfNxKuwooJ+B2uwfyjlJkGRwOOzgdDkK7XflTHXwpRAsF6p2oU+PPHurRKOU54uccpR+6Xnq9gRAQEKSjlzCQruE9LrdHfw7LwfJkRaHy/147jWdwnR2GAEW0KwzFMqVK0gQr7SqgnAAuTeKdJUuS3pGsM42fubo1q6nqyc0qfFDEosRjMon3i+HnvQXw2eY34Ej+S7B58Xx4Y+5EeGb6KJgy5G4Y1LcbDOzTBbq0bQ1tmjaE1s0bQvNGdaF2tUxISYqHuLhYiIuPhdiYKIj2R0BkRDiEhwaDLzQYwkNDIDI8FKL9PoiLjYK4uBjCxPg4qFY5DVo0rgetWzSCNs0awh233QCD+nWDB/t2g5kj76f6c5+aCluWLID3Vy+Ezze/ARf2FQAcK2btPrkB4HghwEdbMPiv8QMn40Arm4llWe5opV0F/B9DiNdbw2m332+325+12Wx6R6LktCsyOAQpjLbUzzDfsRZ1VI9hjrnotXz0FJUfM3wfygc4th4O5j0Pi+eMhcdHDYBXZo+B3SueoUTUlAOoZCXAvlyA/blsi3gAMR/goIB4vD8P1H25qn4/ItaPwerfL4J92c/CokfHwOOjBsJrj4yBA3nPU/1UD8aZFOKti0jvsD8XMNhylN+wOtDXyG6nLT+HdAhwuzv7/f7k/v3rXdvhFMszuFyufrIkncAEVLxzCCUJQsPCwI8dWUaQksz0FPjvvlUAB/OIUY0g/JwxjMwzKKHvbH9jKcuGiN1vu0HL96Glo9grPE/HItPxASJkZcdBc7QYalWrfMl62jRroMIH6y3MW5qZqf7j66FFo3r6s8i0IhOXhaR+KMqLLStMbFcWvE5nK1mSPhWJ3/6mlvBO7vPGZ/XIagr5ThLu3dUAn78Fz04dqd//QJ+uLAa/lWG5FBYlMe4fWkWRzn/akwdwQlM7PtgIP+zOhZNFiwAOFOjP6NuLIV0XB42G+3IADmI9i+DX/atYPdjGExvhp5I8OLHuFfhtXz7AXk1qX4yB+TmU2McL4d3C1yAl0RxKALF1k+tUOLubEp59U5IHz8waA8Ehwfp1h0N5zUr7CviH4HY6H9SyaBC2bFQfPt62TKWMG3uzKSEEY4Zc+P1AATw5eZha/PIcFQ6vZp364WYY278Xk3Q2SX131YsqMbuVmQTkiX70hD8CgxrH7DOu3afya/o5/Rkzo7Hr7LjsLX9GbJNQBr2vqTxVQ3NZyMyHC0hXLnxtgVqJZUOFvt1uB/iQD2SN6T/eDPnPsoyqiIpSsUzpsoDH4Wgn6rcDe3ZikhD1Sz2bVA5j4qPr4L21r4DDwWaxEuJi4HyJJpFPboaObVvTeY/XC59vXkr6MGM4gUE1SayfFxkRt5iq8dgGttWzqRiMre7NZfdjGYJU1xnfxJBGuTrT43ugVEa1AfXgE+tZGRrTGmWUYmJjsFGZTK3Q6zm2DvKfnakz6COjHwA4tUF/V72sU5tg0hAW4AVVELfbfbu1TyrgT0KjuDi3LMtHONFvatEY/vhgo868JsbADju1Ge7r0UHvpDvb3wzw4RYmYT7ZBhMfNCLvzB33oCaFymAwjelKMdyJ9fDKo8ZSe8Q72t/EPvuiCiEMAus5Ha3XxHpOboQH7+puqueZaSMZM2v3iFK8NIrlcsZH+myAR0Y9oJe59sVHiLGNNmnPH10LG142VmsrUoUZ7m8BxsvnVgSnyw0HVi1UyXykf0KFzt+XC78dXAPJiXF0P66YWPfSo6zTjxfD8U1vQGyM4Zk1b9IwgM92sLJEhrUymiZJ6drhAvh4/SJQhOlaji/PHGUwmMikF9svxbgCAx8vhLxnjCz3HB0uF3yycbFmSeGMjOWIg9nCzFSncHxyI9zV9TYqT7Y74GTxa5pVxdKeUxtg/oQhjJY0Ne9ub+2fCvgfYLfb5/POu+2GFgAfbWU6r9YxpSTcwXz45q3l4AsPpWfmjB0I8HUJFL4yVw0RflREnD/xIfYDWJLLPuFcZSDM1TtVVyP258IPJfkQHe0vVdaOJfMB3ucSTXtWQ0OdwJ+x0syrDx6+fW8t7HrzCSzXZKWIj4uFn/YVkEmODSxRVWCMbDCxUJ5Qtnp4DVSvkk7lVslIU38/tJqpLSI9DxfAl9uWgTeATVMrinzgWkt4f8VBUZQi3nGzRw1U8UeD20WNHxZOdK0jjxfBmudn8Q5X17wwU10442GdATq3u57y+BS9/JjKZ7MeGTWQMTFnNLEjdV1SY25+fn8ufL83D+7scLOKExk3t2oMJzYsJuuHVRUhKY9S7sg6uHBwNVw4sBou7F8Fvx1cDXC0SH8PzsRsX2PCd1fDseJFcH3zRmpCfCz07tIOfj6wSrMli20VGFY/voiacWQVHMx7To+JfP+dHYUUlNrP38kNsDf3BXBoXnGyLH0XFRUVYe2jCrgE2BVlE2e81x+bwH46cAJB+CQaf+0aw+zPhQuH1kJSAlMlcPbrJ8yqiJMTJzaAerxYhU+3w/zxD+qS7frmDdlPmSiBOTNZpZeJwbW6qd48QRJamB3Pf7gJpg67Rx9IIgaHhqq/HVlHUrAUE2tl6oyIkyH8K1QWauoE/6EzBrrlvg83wqj+vVkbbDY4hObIz7YCfLQZ4PgGWPb0NIiMMIKn2BVlbYUE/otgV5Q8nYHnTAA4ub50RwgdRJ1/MB/Ovp0NUVFsZgodut9f8zKzC2uWis/fzoW05AS9c8YM6E1Z1ZhuzZhOHxicgQVkjClIf4Gp6bMuqjfiNZrlK2BJHnFGjyNOER9F3R6/LsKzFizrPGdSYyAb78Dq57QxVC86fzAfvtz6BlpkaCCXmhjSEGc1XQ7HU1WrVnVY+6cC/gfY7XZcAkOEnDGiv4pSgzpZk8C8Q0ox9cmN0K/77dQxVTNT4TuUwGQP3QyH1r0CldNSSnUU6oJ/IDNpHcwlqKnjBQY2JJyZucRzjIEE5AxmOVfqGf4e+j3GYDEY1bhPZFCRFnzfel6kU4ebWP52WrFhty9wOJTRTkUZ7PV6W8XFxYVZ+6QC/gK43e5u3ArRo8PNKpm99qwUGUubPOCdJOyjtEM9EZn+wy1Q8OJsaFC3ps6wKHHsirIO82+43e4uvJ47O7ZV0fDPOllgLpGBdSY2M7PB4Maxzpj78+gHs/+dHSFr6D3q76gynChmM4ekZ2sMi20+XgR/HFmnPjbmATVryN3q97s11UFgYoMpzccmGljQxOxIn482w4TB/XRVCnOQWPugAv4B4E+DJEnfI3HjYqPhZ/TIor/l0h1C+6YZKg1PbQBkBINxKcT/xvCgoOus9TkUx3B+Xxf82dMYmZiCp383SUqRgUUGEpiYIzLngXz4dOubEBXtN1kWIiMj1Eb1akGrpg3UJg1ql7JwYHr6/2x9gz77peuz1n0R2liQzb5thcF9u+n12O32R600qYB/CHZFWckJvOW1uWRkN3eOmaFRjxU7jvD4ekpwi2VIkvS5tQ4ruB2Orlwi+yMj1M93rFTh3TVa2dZPd2mm4ZKX7xufe+0cMs97q2mmbeuS+TDs3h7QpEEdSE2KB194OPkwtGhcH0YP7K2+vexJTWdGzzTz+5rqFKSz9boVaaAfLoD/7l8Nqdq/AL6vx+Xqa6VFBfxDCPJ42nJm6tulHfk1mBgW9y1MYu0wYqJDq6FqJgsWLUvyW9Z6yoKE4IRQWZI+5gPo7m63qyi1yOIgMA2XsIb0ZahLXovOa31OVx+4CnFQm/626L/685ZySl0nNA823l6iG5aN0refMduHAxvz7VlpUAGXAWSZhWV14kzUhtf1mSiDUQRJp+uoXBpqnXcwH77Y+iZ4AwOpwxRFftVaz6UgQNDHEe/t0R5+R18F9Onl9ZbFvDqTGuf1e8SBV+Z+GQxZxkDg7yqWSXXoA0D7KqDkRWvMBxvJUZ+/C76Xy1URLPuKATqUcDPPQ3d1M0lhkVlEm61hyhIk0HtrYMcbT+odpyjKMGtdfwbcbncHyWb7gZcTHeWHN5+axpyM3lurqxp620wMZTknMJ2OIuNb7jfdI1wX6+P7DDXvNWTcD7dA3ouPQHxsjCh5f8YMp9Z3rIDLDHZFKSSCKwq8v+olmk0SpY2+1TrWxCzi/on18NRENsePM3UBAQGd7Xb7k7IkbVMUZTWakpxO52AcNMHBwfXCw8NjqlateskMnLIsP80ZggaGwwn9e3eBdwtfJS849MXQV2GUwbTiMd83Mav1HS+yNZ7RrBbHColpP1i/GIbe35O88Ix22nCZ0bLAwMBw6/tUwBWAyODgFEmSfkXi39SiEcAHxcbn0dqBZX2uRUl8aiP06dyWSSCb7Y+yAqH8WcTPr4Cf2my276z3cIyNjYF+d7SHN5/IUj/etIRNYpCj/EYynZE6glPO6G2HejZfflQK85gahVL1GK7x28Cc4N8rhM82L4XcZ2eoD/TtqmaUYe/W2qwqir3Ibrff53K5moaGpgRb6V0BVwA8Hmd/3glPTHpIZU44glSjrfZzJX6GRdWC33t4FfkOd21/My741Du3eZdB8NhWgGlrf4YZRRdgZvGvMKPoJ5i69juYnPslPLzoPRi2sAQGPL4W+s5YDp2Hz4N290+FFl0HQoNb+0K1JjdBWr1mkFC5DsQkpakeTedGDAj1gWJXLrmECFF2OCAsNATi4qIB/R/SkuLVzJREyEhOhOSEOHLoiYmOBDem/vofsd1CI6Mg1M+DXleC6s1uhqTq15W6T0T0kZAk+ZDdbp/q8QTXtvZDBfwDUBQF00zhJ1Ddn/OcSlKrTIkrSOIymJh9ajU8sR5eEhx+7hz/Mkxb+wuMX3GacJyG4v645Rrq576Escu/1M6f0XH8yq9hyuqvICKBSUNvcAhMyvkMZhSrNDhmFv0I01d/oSZVM9ayhQYHwYP39ITe3W9T27VqAvVr14DataobWLMaNK1fG7rfdj3079NdTU4wlg5FxifBuKXvwszC72FW8a8wawPAQy/sBr6iJT6zFjy2+UeIz6xNx67ACIipdiNEVW4JkelNITypLgRGpoLTGwY2yfxlwq+MJMmfulyuSQEVjj1/H2w223YkaFh4mPr1zpVsNkv7oROZU2Rkkx5cCnFadRPc3f126ijFocDwhSUwKe+/Jua1MrQJkXnF65zBCb+ksoYv3A2KncV2S6xWD2asO88YfcVpGLvsC5heeAEGP7kBnG4jeGGjOtXh2PrFtOSHJnH4KuWTG+CrPXnkUM/vRX/h+x/LhRlFv1F5WPf4ledgcu7nEOpnP25OjwcmrvwY+s/fYDAnTu7oydMzwJdyHfgzMe9zS/BnYuT5lhBVpRX4kuqBJySGfK35s7KsvGztnwr4E2Cz2XYwJg5Xv357pcqZ2GBeM0Nbt9Z9ZI4/Dq6GapXTqWNi06rClPyzKjJAWYwrMnTZeMb03HhNWk9d8zP0n7taVyOqNLoBZhb/AmM1RkdE5pu27hcY98b7ULlBC5MUvK5OTVg4Pwu63X6D6Xx6vWYwZsm7Kg6Cscv4lwDrPwvT134HsWlMTZIVGYa+sBMm538PE3O/gSkFZ9Qhz25ROw99DGq2uh3Cog11w0AbZQ8Nia0KMVXbqMHRYr46suZkW/unAv4EoPWAE3Hr4sfJ04wzps681r97QTe23oN68ani11QeGbLeTXfAzKILGjNy1JhyJaoHnFHN19h5vm9cEyX01DU/qfc/tkpngozrWqiz1/+sqR6MkYmZ3/wcpq29AI9u+gGqNTWkrYh129wOj278Hqat45JXY2Cq/yuYuuYr8CexgSnLEgx9fidkrfqh1IDk+xPwmdU/wqz1v0NWwVm477F8aHh7b/AEGfo8x1Y9HgDFzlaoSJL8id/v91r7qQIuAZp14jckYNXMdFDfK9JXFzAJK8yYibqwVR/mTPxBMax8coreQZ2GzoUZRb+WlqzEwAKaGNlyzXSPWYJnFXwPI14pAbs2aHxxSZBVcAYmZH9DknTWht+h56SX9euIdncQ+JLrQ3TV1rSlpDT8mtMB3UY/p85a/wdJ9Un552H04iPg9gaQ1PcEBcPYN45r6pHRXr1N1E7hy6EzNrsHn5u5/leS4gPmrVGnrvqGpPnYN94DdwDL+GSzSeeCg4NDrH1VAZcAr9erh5iKifbD2V05AO/zSQVjwsNQG8o6p+GHG2HcoL6MKWyVYOCC9cRoJilbSuJyxhalLr/HyuCChNal3tcwfe3XEJvBPvU4cdN/7iq4e/aKUlIvKCodoqrgTxdmaWpCGFW1NVg/7Yh3z86BnhMW6sdpdRrDjMLvSTfmjCsOqLLQKqmN9zYz+6S872FyzqcQGMYc4SVJ/igtLc1p7asKuARkZmYGKoryLu+wutWrwPv8J0iYTLAyrq5OcGl8fAO0bdOMyggMj4Bxb56AiTlfl8GAVgmroXBuwsozMIGfK/W8uaxxy76E2et/hw5DHinFjF1HzoOM61ox5pAV+qmKSGsIEakNiJnFXNAtug2EnhOfK2Wyu2Pc8zBTk868rYwxhcFGbbecQyZdyZlYO+b7y0+THn//nFxIqla3VLslSaqIMfF3wOfzReOyJFxVy4mJIabmZw2Hz3cs1yLgrGfLjayMvS8Xfi7Jh2Qtuk1KrcYwbe1/YTyaxjizlWJkQSqhhBN+AEsxtiC9zIxiMMeE7K9hyqpz0H7wI9B9zLMwfd33dG7amq8htQ4bXBfDzIbXw/S1/6X78bluo5+Brg8/AdPXnRfaVXrwlWJm0ztqTKu9G3//cSvOwrR1/4WY9KqMYRU7BPrTILra9RAcbQwqh8Mx2tpHFfAXINTrreZQlNckSfrF2uEYCrVZo3ow/sG7YdWLj8CH6xfBH+8VwZc7ssmJCO9p0vEeFW2r7O++9KeV64kTsr+CcW9+BMk1G0JcRlUYveQ9mJj7rcCgIpoZ18QowjVeNuHyL2Fm8QVo0W0QYxjZTmpEdNVWJIm5matF98FkaxYHmsGgQt0rz7CfUpKyfAAZ7RHfc0LO1zB22QlIqlEfEqrWgdFLjtM5vIZtuq7tnVS3bHey1GeVW0BM9RuEbEnS74GBgRnWvqmAvwm4UDHI7a6PqxFkWd4mSdJ3oteZFTs9NAemr7tgkVQiEzPEezqPXKA/13f6mzBtzc/a9TMwZdWPZF3ACROOU/X9CzBVu4Zb1L9N5ev23S8gIj6ZykczF9puIzBbUeXmdIzn8fqknC/MUldrA1oiWBsYYl2sXtyy9jC8AFmrftQH0dQ1P0HfaW/q79Z55NMwvZANlMn559VBT22ifwe85g2P+y6qSvNHoqOjfYqiNOMrwSvyOf/LYJeNGBX9Hy+C6Wt/U9HGyicqTDNzy0+TjonSr3XPoXpH959bCFkFP8C0dReg66hnSg2OS6FNqgT3PZoPU1b/qDMyDgI8x+8J9KcS86IURumHx9o1tf/c1XQ/fxYHxx1jnytVjzUOhRW7j35WxcE5Of88DHpqK9i0qezWdw6BmcW/6e8/a/1v0KK7thKG3DUDWvoS6kZHpDaY7gzwfc3POxyeW620roArBIpizxU7E/0c4jJrQu3rO0KbXsOh68gn1XsfzYcHn3sLRi85qk7KPQ3ztv2h1m7Dwl25Arzw8OvvqhNzviVpNjn3HOD93cc8Dz3GvgB3II7h2+fVO8a+oPYY9xL0GPsS9Jz4qjpwQZGalf+VocLQIPkNWnQbzNpEWU/rQWQGpq/F5JBN6ZjnTW595wh1ZvHvujRHaTw57wzcNXOF2n3UM2r30c8hgzIc8xzcMeY5asMdY56nY5xi7z9vDUzOO0vtn5DzLb6Pbj5r0K4fqhEql9Q4iGetvwC1WrfXaGaDkJgqEFerLfgzmoFNyzglyXJFKtx/EzweTzQuBLU7nY8qir1QluUPJEn6gTzShND/ZWF4bDJMyP6c/QQtPw1TV5+H4Qv3wt2zVkKfqYsZTlui9p62BHpPweMl0HvqYug1ZTEd3zd3rZqVdw4m0E/Ul8SEWflnITqlCpXvcAeDn/LFCUnBM5uBw8MiE8Wm14Apq1BnRSY0qz2iisH0blHlsF43Zvom5n4JEYlM2ldtejPMLEZVydDZ0UdketEF6DN1kYkWzkAfODyaDZukcYVfcrmF6Ohoj81mO4GdFZNWTUUphrNkWflnIDzWiFHxZxFVihGv7IdJud+SLjtg3jr9WmBkMv088WynTKVoAQERSexZWyUY9NQWmoDgTCYyMWfcSXnnoOPI56FBp2HwwDM4/Yw/oub7GJ6FKau/hoSqzCEJp+FxBm/8yrM6s3OGH7uMqVZDX3gL6t7Qib5i4ntJf3K5VwX8H0BKSr1gSZZPY0dVa3aLOr3wJ7JODF+4T7U7maXjzgkL4bFtQEw5BXH1D6Q3o+6L59C7DJmPd/g9jxSoeJ707TuH6efDkuqQCoHMG8ElcQZ6mzEvNMSb752o4iyjrrtbENv20Ev7ILHerRCW2gQadhkBk/K/hnErmQphkrL441r0M1RvfgurPzoRJmR/RtPSZmYXkU2XT8j5BuZuB2jRnVlV2BKngBZW+lVAuQB3bKVKlX7CjmrYrp+KPseoTkzMNmawSIql14BWPR6Cu2eugNGvvwfjl52EgfOL1JvvnQjp9ZqD4jAylg5/eR9N8Wbln4PYjBp0zu4KgMgMnnqWMTFnZDS5KS6mt6bWaqROX3sexopmulISFq0L38H0dT/BxBzUwZnnXVk4o/hXaKaZ91xeDzz8+hEaCOYyReuNURZOez/03Hbd9VNRHIus1KuAcgBBQWENeJLxNr2GGX/vK87AtLXfQ/+5a6Fl90E0rSzLZevUkQnJ0KBdLzJnTVvzHX3GkYkHP70NbBoDeMPjSXVA0xqiWaVoDt5wprrgYBj2Uok6MQ/LKc2UaBsWpS1jPMNurO/rTPwbtOkznMpGaToY1RXNFGhmZI6a8xKpIj/B49tVSKlRn56XZfnruKpVKyIElT+QW3Fm7PDQPHKDtDIOuViuOAuT887DjMJf6Y9+VvEFci5CtWLcinMm10lEvHbLfZN1Rg9LqKGrEgw5EzcCf2ZTCEuspd/b4aG55JMstsE8kWKW0uJ1mgwRzmM5nUYYC2jvf2w1ZK36ifT+yXn/pRUvaGqbWfwjTFjxIdz/WAGpQLHp1U0DVQtE83qlSpUkKwUr4P8YPJ6QvnzSpPvY51WcQCAGEHRSbg0wkB9bzzOGH7v8DE0hp9ZqxCSY3WWySCDj6qqEgLKDOdFXbXITTC/8UXe0L7turW0G06o4jW6VxOjTfMc43dasZtZvCVUatVJ9sfGq4rh09iRZlt/1eDzt+tfrX5ESrDyDJCmDeKfdOwellNlPl0s+8W9e1CVLMdly9vOFejG6VmK57mA/+FGVSDNUCFGd4CqFO4RFsEeXy9FLjtLPVVk/eKVVgLLOs7bh+9w/d43OmBG+cLVurerQ+ZY2lPIh55lpcHTNy/AzBmDE2Hcnt0Bqkh4taI+VXhVQDsHudM/lHfzAExtgMqkHnAnMaDCx4YTDmUWU1tMKf4XOI41POE4gMPsw14XNDMxVClx1wZ/ByROcSjYzqlGnVb2gfYuLJSK+zwNPrtfLfWHGwyqL9WxxY+V4tAiaNWRebTab7WxYWFiQlWYVUN7AZqPYEvhDNfTF3fRDZkwiWL3GBCY2oSD9cJau6Geo2eJWYgR0+EHXS2RWsyQWJbJmsUhtQPfjc9fd0gtmFF9QmT4uSlfOvNZ2lPYTxu2kvO9g+Mv7VVy3h+WOuKeHyhJFml1a2b4WIrdLO7pXluULCQkJKVaSVUA5A7vTRYEMvcHBMHrpMfqEi8zBljEJjFxqX1QxcKr3G1p9ERDCZrucgeGkKpRllRAZGXVk0SEoLCYBJqz8VHChFAYRZ1b+NRDaI34xcH8iqiRvHNXb8+Ddd2hRlsrwydbid2D6AyaJKXpmTSvNKqCcgY05f0NQmA/GvnGC/HmtUs8k7awMpe3rqsTaX6DXxFf0z3dQVBqt5mAMXFr6isd4H67+0J5V75uDkybolWaWrsYPnMbE+jnjHr5PrpdLj0FgKEvEc/8d7bXsqWUs79Ik8dj+vdhXRJIgPDwcrTcVUJ7BZpM2Yof5EzNgUi76OzC/Bc7InFEN3bc00r302cd7zsGUgnNqlcbGSmac6PBrs3ORaY2YWkGqBdvnpjdcf8efwRXUOPXN/SgujYY+ztvIz6G/9PjlH0JIJFvq36vDzSxCETGxEO+O48mNMP0hU/LFjlaaVUA5Awz9hB0Wk1YNJuef1T28zAxi/kybmLcMRKca9C2elP2RvvYO0eEOAr+2tg71ZPzZi0htqM/WISZUqQUTcz6m58n2jGWWYaG4FIptG599DiZkfwK+GOafMaB3Fz1oY6mV5MTEG+CREffpTOxwOCocf8o7OBwOzJAJLo8Hxix5n9wXOdMYn2tDEhvncd983nqMzIz+wZNyPoTEqsZkhtMbCuFJ9WhFBT+XVq8FTMr9jDFvGdPIJsYsVS+v2/wM4sTc72DM4nf1QC7PThmh8mSRJilMDM2Cucwafq8giSuYuNwDrurF1b3Yad7gUOgzZZE6KedTmLbmW7IyoH/v9KJfaQUIOsrjVCzO0iGz4YwX2oTx54kjLtdnqzPO0vo+HgILPdNmrP0W6t3QWWdcxMYd7qYwVZNyv9MGD3qY4SDR1vyt/Ip+Fqn87G+oPrSg4NQxOSGt+pGtNFl3gWYTcdp8RtHPMH3Nd5CV9wUMmJevhvqZ/TklKYFSpGGSSCPmsRHAkZj4xAYYfe8ddL9ks0FoYGA7K80qoJyCloTFxGD/CzGdrMsbCJ6gILJuoAUg2BcJvthkiErJJFUiLrMaxGVUg/jMahCfURXiM2tC5euaQXKVWpBWtwnEV66p4jW8j98fnVaVdHRfXAqEREZDQGgoeIODqB6XNwDkvxHxc/ygfqZ0Z8wqwYM1ctWCSeL7dOuEDYI9nnpWWlVAOQWbzTaFd7gvIgJiYmLB7/dDZEQk+Hw+DLUFoaGhEBISAkFBQRAYEAABiF4veDwejMROiNGHEF1OF5qndCbKSE+HNq1bQ7OmTaFJkybQtEkTaN68ObRo0QKuv74NJCUznRXR4XBoZbEyEd0uN9WD6PV6qe7AwEAIDg6BsLAwCPf5ICIyEiL9fojyR0FMdAxEREToZU4ccjeZz8yxPEQprDHz8fXQwch78ovf70+y0qoCyik4HC49oHZ4uA+ioqIhOjqGmCEmOpb2GeL5aIhCjEKMYlt/FKFfQ7wnPIzZfBFHjhwBhw8fhK1btxBu2bKZ4ebNcPDgARg0mLlLsvrDqUxelt/P6vJTfWZk7dHaGaO1UWsXDj7uFzL87m4qZU49tArOblsGP+5mGZ6MJO8sgPdvB1apVdLYolZZlt7PysqqcPi5WsBmsy3nTPRnEe2osiwTYlBvu91hSGKXiyQqv7d5ixYwYvhwwpEjR8KIEcNh+PBh8NCQIfDAAwOhShW2hAmRl4PPIyqKXa+HL/r8q9jlthsAvimBpyYbi2L3rnyGZYvi+vDhVXBszUIK8oLXHYoDvdYq4GoBSZLWYMdhHIiINIzO0wh8KfXJRTI0rhoER2dAYGQKeMPiwBMaAy5tDRradhWnlzzQ0FsNLQ6S4qR4wJQAnCRh2X7IZSLer0epl2gaWlacVDbWg/XhmjysHx2GsD1BkSkUCis0vgaEJ9el9qMvBm55XIsbm9RX4fQ7cPv1zekYg33/QrkCtQhLqEqc2giPjWWLWrH+QI+n4qfuagJJkvdj5zG3SdFRR5xdM2bZ/BnGtDFOZEQKx4QZeE8ThplNzfsc6Vg7f1Eso+xSbbs4YrxifK/WzRqqU0cN0pf6zxnzgJb0XdOJD+TB+d054PMxFUiWZcxoVQFXGRymznO4L8IsGrOKjKttxfNW1K9rjCjejwwqlmM804jQWob4nMHYeK9Yp9FmHAR2V+lwrg/f31NVT21SWcphzTLxwUaoX5s5wmMelYigoFQrgSqgnIPNZqOAhjh7RhErkSG0qWHOxCbmLFM6ioxY9nkzo1nPl42XGiRmNEthlPY4sYLvFRwSrM4eM1j97UghS3CDP3QYrf6DYji5cQmEhoaQlEaLRFBQUJqVPhVQzqFmzRu9sqx8hp2IOifzZdC8zkq5T1qPrcivW7dlMZr1GYZlM612Dx88tL1Y2Wwfp7VdWly1jPRUgA+3M1vxyc3wbUk+zJ8yQg0ODibmZVPMyptW2lTA1QL16tklSd6JabQc7qAXQxNqjQqOrjY6KLb6GMLo6mODYmuOQwyJrz0+JL7WhLCEOhNDEmpPDkuoPTkkofaksITaWaHxdaaExteZhhieWHt6eELdGeFJdWaFJ9WbGZZUd3ZYYt1HfIl1H/Ul15vjS6o7Nzyp7uMRyfUW+JLrP+lLqvdMWGKdFxFD42stDE2sszA0vvbLoXG1Xw2Jq/1qcGzN1whjarweHFP99aCYGq8H0ZYhnY+rsZhfD46r/np4cv1FntCY3EvFrJMl6axDcTxkJUkFVEC5BEw+6fV6IzGftfVaBVRABZRD+H9Drbx3/4UoYAAAAABJRU5ErkJggg==;fontSize=16;container=0;" parent="1" vertex="1">
          <mxGeometry x="450" y="530" width="100" height="100" as="geometry" />
        </mxCell>
        <mxCell id="EP9idgTvT9CNdn5mAOOD-27" value="" style="shape=image;verticalLabelPosition=bottom;labelBackgroundColor=default;verticalAlign=top;aspect=fixed;imageAspect=0;image=data:image/png,iVBORw0KGgoAAAANSUhEUgAAALEAAACxCAYAAAH8LmxTAAAAAXNSR0IArs4c6QAAAARnQU1BAACxjwv8YQUAAAAJcEhZcwAAFxEAABcRAcom8z8AAGTHSURBVHhe7X0HeBZF8zjv3b09PW/ypvdC79K7DVHpIFKtgCDSpJfQUQTB3rAgoJRUWhJ6ERFCRwUE1M9KsX1Ysdz8n5m9vdu7BD4L+Av8M88zz/XdvdnZubnZ2ZlKlcoBQHB0JkSmN4IgfxrgcWJiost601+C4OgM8Gc0JsQCt2zZRNvI9MYQmdEYQuKq4vFfh4jU68Cfzgrmhe8/sJ+2dA6vETb66xVg63jB0VWag+JwU8GK0wtRlZvr17AC67P/E7AALGz37ndU3Lo9Xoj0x4DT6aLze7Tz0VVa/PXCNYDklAxITE6HxOQ0SExKY9vkdDqP160P/CmQZXkvPqyW5EDHW9oAHCwAtSQb4PAqaNu6Ge0rigwORXnN+uz/AoADefD129lUOOzNBtibA4D7WAEel2SDerxIxevWhy8KwV5vG2wVVlC9SgYrdA8WlgOJiXHUYpWOs2HZ45Pg6IYlf77wwpceoQKwcFmSPsFCqfXHigCOrwc4VsgqKMnG6+etz18SiK4lOWC32+dop1jhAmqk+PMt5sALwN1xK87AzOJfeUEmlB1ucDo991ufvySIhY9feQbGrzgN4wi/BHdQJNtfzs795dZLkvQzHCuGGs3bUcvHE56G6esugCvYT1s8h9emrf3vX69AA/AGB1OLH9sGVAGKBGwxVsDe5jTEVr/pbxVOMHXtTxAY5oPxK7+GiPRGMH7lV3rBnGTWZ/408ILufbSA5PmgJzfphcOJjX+bLATYOuxYLATJwrhIK/zvsiSH1DqNYPBTG9Ws/DMQn14dJueeptan1mlMo/QfFS7bnbwAE9rdQeBwMfFrfeZPA33SdGxk2kfhZr3//wOw2WygOD0QkVIPfCn1AOmP56z3/WnAh5Ge7OPbCDp07AjXX9+G9vnX/i9X4HQ626Auwr/6Dk8IbN68GbZs3gSuwHD9a4/XHQ53R+vzFwVJVnQ1AR9G7YpYzGaDsPjq4M/Q3iSjMUiK/c+3WrJJ3yMZ7r77LrVTx45UaLjPD6FhPtrv3Lmzevfdd0FkekOQJOl76/P/CyAuPompD7rqYKgQcXFJf3ugwOiBfXQZgZ8v/v3Eof3stBGk+FgfuiRwmQBH11PBQ+/urnLVYdygvuxbuTcbXprx8J9v9c+H1lLL+na5BeDdNUxteG8dHM5/gRX47jpDNzm5AVwuxwhrGWUC/2o77fZpVLB23OS6OtC8UT1dXYBD+X+upRqAii08slp/iArGc3sZjUl12EOk+vOw+vlZKuzNBdizEsYvPw1Zq36AKau+ghbdB3FaQsvuA/R96/MXhWnD72c03ZujqQgMsRB/Ujr4E9nvB35pZm/8/a8VHhIaQvRDFSAr/5ymDpyGTkPnQbdRz+qVZRWcg9gaN//5ggWgFs3dBjBnK+ivP73wAkwv/IX2nR4PhIWFxVof/DOgF+gK9IErMEJUB/6e1qSB/pX24z9M5Wa6roHXYF/u3yq0ki82iWhNBWc0BX9mU72ioPAI6mTrM38KbDbbH11GPg1jlh6DqQVnYUrBWRi99Ch0G/McyQlt6P91sNlsOSKdRezUtpX6twuWJOkD9unnn39DDahXp+Zfl27lGurVq+exnvs/h4CoqAgkc3hSbd3IwLsBz0dHR9PW6CaG4Ul16HxYmDvOWuaVBPrN5woCaRm6tkGGC8K3396p76OKw+/lag8eR6G54K+qPn8DdIbmKhFvADY8qnIzauSGDeth//59sGPHdjrG80zT4Xoaf45R/0oPDEYprQHcAIO4cOFLsG/fXnjrrR1QUrJH3b9/LxpmYPuO7bB/315YsGA+H7VkCTIazdjJWtFlBU2TpYbgNjgkFJLIsCMYdXDLUdDSklMyISg4lJ7bV7KHtn9ZM/4HAA67gyqdOrw/eLwBOsUvhQGBgTB7NFMu7Ewh/lcaDHB0HcCJDQAfbIQf9uQbVpbDBUzJM1ldmL2I8PAqZpjS7unRoa3a4/brAf6z+YpRG9Q9K0mljYryk/ZJL3CoQNeoTha+ws6V5DIdkDeefYjh4w2v0yeOWdpyyFb17VvLdV3cWuE/BYNiJzfCgJ4d4YtdrCEiVXXK8gbTVmuksOXIWSY0MLCxtcJ/BLIkfQ37NEueZnuUZem4cIulwVrjjq6Fb3YsB3iPq/VC45nmfdkpq0NCQpxONar0w43gcbvXY6U2m+0HRVFed7vd1+Fxh7ZtAD5gf0tm6jPTZe+ut13ZxnL4GqllaQRWPG6lYQHj2xot2sHUNT/DjCJmqYQP2TzCzOLf1BlFv0HDW3uDzcZYwpdcH6IqtwS73dXbWuflAJIWoi1WcSjsrwJ/ZThqhskhz24Bh5tNH0RmNKWt4nDAyNf2sxeklzXuv2vGcmz4HdZKLxtEREREybL8XvdRz+pqOjYKG9B7yuvQa8oi6DNlETUGbWL4tXO63XRf3ymLoNeU16H3lEWk8tNzK8+CrZLtfVulSietdV1pgDFL3ochT2+Ge+esgvZDHqU/VDwfIZglyXpbuTk1VPyLQhv06MVHwGaTvrMWfCVBpzpvxMziX8CXch3pFDithdZ4fh3Zgzd6Us6nULXx9bTvdDoftBZ8xcAVECgY25lxPTatGpmtuTaYWruJRm3G/7jvDgzSxwk22lruFQVfbLLe/SRFcMph+ZfUkKjKNLUGY5d9qU9FcAyNjNE/RP96o20227SoqGiIio6GmJhYiI6JgdiYWJg0aSIc2L8fRowcwc5HxxDifVFRUTBp6D0q7M/9v6G0zWY7aP4pEP+A2V8KHou6M25DQ4Lh441LAE5tAJfDMd5a7hWF4ODgEOu5PwOSJK2WZfkt6/kK+CvQr18/V//+/e3W8+UC7Hb7E9ogAndIFPiS6kBkWkPGs/HVwB0cyQcZKLL8l6e6LxtIkvSLTVaYS4Jgywjyp+oNDI5KN9k58E9cku1X7O/kUgD+zCa6yUDHTPY3vnnzJkImn9kL6X/tJFma/KuizSTGWAOYjSMwMhm2bt2ijhgxAgYOHEjGGaS4bguh+xoxJNvGlae0PvnFZbA4Z4XXb7jxBijZsxv27NkNbdq0oXNmS5JZdl8xSgcGBoZHZjQxW4EsDUCKde/WTUV/HrQi9evXz2iwZsThZjL945LR+G8b3C8JsmzfgbynU1XvYuTdphCRdh25NdgkRR90OMC8oTGWZ1gjjZdtApIk77LW949BURxZ3EmJf2qD/CnUsFatWsE7u3epu97eCe+8s4ssS/v2lRAP79q1E97euRPq1atL94bEZOjsgFTGMmXZPt1a3+UCrSsbUuUHDuyH9euLdYrKsgzBIWHkKOWL8ENAYBAXYYTri4vgwIF9tI+yGsu6YjwsAHTp0gXq1GG2Y7TNJVjtcpo9zrQvOGLhsz169GATGgA2awVXAiA4OBSSUzMhMUlrmNhY6zGdS4ckbHRqJj37b1BWB1mWVYfdDutfeUxt2oAorZtkL4UtmtSH7UufBHz2X/na1azp9/LKbdr8FJkIDtBkLjRvXE830jDLUg40b1yfrpH9zmLakiXpZ2sdlw1sNtuvbz41nSaF0aBIjdAbp7ngkXVTsA4hUkO5eUuzxx1dpz2fDRER5IJweQG95+DDzVThdbVrABxnkkG3YJbkwNNThgMczGcmMO0cXd+fCzMfHqBTlzdaf+FjheB1u4dY6/zbkBkeHvj8jFGs8P15cFe32yE+LhbiY6N1Ey3/T3tiwhDjnHZ+2fyJ2vQm7wnGLnQO909tAl9gYLq13n8CugEbPtoMR9DL4VgxzSYxCmvdfKzYcJ5MSoBZowao9MzulXSNl8G3rMGX2fLp8wWmXziIJlahkt0a/364yWySFXEf+ztmDdQGoDYI6ZkPGEvJsvyVtc5/CkZlJdnwTQm5ghFFHE5nKapxu8O3u3PhvHavyLd84IWEhFw+qooQGxttjGwacNX1ihyKsvy3o+tp+sBEXTw+WsRQlBa8nFNbwK4o+eaaLgPEh4fHwPuFpkFks0kmyqDw/2ynhSW4DNZZgLNGNpx+B8u4Qh8MWZL+g9MLIuU0dqBKZVk67FSUB9xu91A8d74ERVquLh3Exv96aC0953Q621rruZygDxJ9NunLnXDrgGlkL5uY8w05xU5f9wPcPXsljHvzkBoaFaO/FEd3gBem5H8Ek3NOqIGR7AfV2lOXCyw8iEJ+PYxbfkrwRTbMr3g/bkMi/fDk1JGQ8/wsNdgXAWM1Y+HDr79HW4c7mKYVtBe6fGDSFTQK71i6QJ21/jfNeqmZXjVn6hotblGnF/4GOO/BqTuz+A+YteEPaHhbL93hafzKc9DijsHq03tV1eFwXV77WvOGdU1U7tflVnVS3ne6udWYBzHMrojRVVpCTNXWoNjZ7xLrEW5XZs9OW3fh8lM5KytLwkKXzJ+s4jcfJ9Ox2zlLTMz9Rp+Ewe2Eledg3DKj4egMPm7FWZMRHJ/hL+dLpT+XKwMOh2MCawRrLE6D3T93DfR/fB30ylpEEzJZBd/BxNzvwBMaQ4j7k/O+gj5TX1fxngHz18H989YS20Qk0P8gWpC+tdZ12UCSpK859dLrNoUxS4/DzKI/yG+OudWfhRmFP+lGlhlFPxNVZxT+Sr50U1b/CGPeOAUzi36GSfnnuXfLlaOyFaauOU8V3vNoPs0w4X7XkU+DP7MZ/Q33mvSqir0xOf+/UOPm+4jfpxX+BOi7jmyUVXAeolL+5gKnvwpBQUGpM9cbEgGxSad7ICAkVKdwWFQsNZgPNqJ28W8w4tUDqj4OVv7n32lwYGBIexzppgkYTR7zqQOD543ZJ3zmgQVFar9pS+m6dKU+1VZwuDxjJhd8rzXmNIzTprlYgxmFxUHKnSLxmWemjyKpA+8Xw79m+JZl5cUJOd9SQw2xdRbsrgCdwoorAMYuP6Pdw8QhirUH+3Vnsv3UJvDa7dWsZV8RsNlsG/GrZXwQcBXPL2B3B+oUdniCyRNA/JRPyPka7urcjn1BT26EkMDA26xlXxFQFMdr41fwBhtdPnHlKWooLqCalPOxZZLxDIzP/gpG3NeTNfjEBnA4HJ2sZV9JgFZ3DoV7ZufCw4veh/HLTsLUVV/B/O2/qAve+p1cvMcv+xBGLXoP7p6dDy27Dya+xr9u0lNOboAon6+FtdArCTTLiTOeMTFs5hPPHTx4gAyFuC9ew3upwWjbQLX1aJGakpISbC30yoFgmfwziHowKv+TBvclA0vRwkfw/L8HyKfifIc478ElhflaI1AcHkblK+Q2dknAFVuRabxBRgPNDTZfcwaEkxngveJF4HK5RlrLLJdgs9nO+3y+aOv5CqiAawS8Xm8bRZKy8WdEnNO5FOJ9kiSdURRlscvl+le/ReUaQrwhNSRJ+oYTyhkQBuGJtSEKndczm2oCkk2QoVBEf4Cw+Bo0Q4hrEvEYr4tfg6jMpuy+xFq0OFLohF/cbndDaxuuSZAkaSX/VkekNgCcxOZE4pPXNDHNP5FpjSA4So+2AMePHYVtW7fA0WNH9XMhMZUFQgsoTGxjPRFpDfT5ZUlS1lrbdtUDH/bIaSIhDMKWRiQSci4+17VrV6hSpYq6desW2LJlM/pnQGZmJnTo0IHmUsITawnPmjuMT9AbLhSNICqTrWPR8OoGm006hy+CK41MOpHOrQZBdULwxT2ZTcmYhM8fOnQQnnjySZEw8NRTT9F53A/wJZBXg5W45PkglikokURsFugER9ZfXqlcLgC5l/1T4wszonI3Ea6QmjjZso/hZQICAuHUqZMqLkbavGmj7g6FuGnjRlqk9NFHpyAgIICW1OtlCKvhDQ7Xjq1iJb0R/Ur/Gx5JlxXsducMEg/0cTLWyHECcg42iCJyssBpmU0BIxKJHCwiyvaQ6AytHsP/jHesuVyxTj6SuKsMEx92u32e9V3KLaBXKzousSEsvKyJo9hL8vV83rBYPoljwri4OGjSpAl07doFevXqCb169oTevXtD+9tvp/PR0dGlfDiw7qCoVHISJBTbQMi/CdoIy2gMsuJAJ6qd1ncptxAdHY1rZiEyrYH2Mgb3oEkZZSgnSIvmzSkGxe53dsHOnW/B3r0lsGzZmzBgwACoXr06/sOWIryIYWFh0LBhQxg2bJiak72SnsdySkp2Q2HhOmjQoIF+b1BkMkTrbqSGfMb1CHjd7yfflqsOUF2iFwtPrEkvkpiYCAcPHSBi3HPP3SYuDAoKgdi4JEhOrczcozS/Ld2nyxoRQ3OTQr8vvB8xNi4RAgKCTB1x7733qFgffijT0lhoA19SbepwmyTz+65ucDqdD+CLpKen6y8eHRNPC1E5EQ1CWvzMhPNJ+iJWq0+aFs1MR/MxEh/r43VnZmRQ5zqdzkHWtl7tAJIso+u5icsQFbsdvAGBEBbmA78/hrgxITGVETYlQ+NUg1sZZpA3Iq0sTkqn+/E5dLUMCQ0Ht9tD9VnrkiRmtLwmuNcKZF+w2cBhV9APj14Sp0K4vwi5wb2Pi4bXA5zbDXDmHbao8uAq+KkkD37ckwvfvLUczm17k9bW/rgnV/2pJE/948BqttAY7/9qD8DJ9QDvr6WAJbpPyon1OoHtikK+hFfMH+XfBM0DCCrZJHhu1mg4u30FHF77Kh2jTgqnNpq8Nmj/+Hpchqje0qapemPLxmB3ukD9AD2QRB8afr/mRHG0iJYsdry5NXS4qSXIDofgoGa4UMG7qyE+znBViYjwqTe0ZI7DSPR/HP3y3wQ+FH87ukGb+MgB+HgLnfti6xvEvbi/P/d5iqEoErmUsxyh4BklOB8Zx+KibF6O4BSqX9c65r011MnD7+lh1HGUcXp0dHSC9X3KFTjs9uexod/sxdgAhiPUM1NG0At8tSePpsXQoS85MZ4cUUXCcUJc0Dy2EN9fvZBd4/eYiMz967Lho+JF+jMXUHwInWN2G8qmdd943+5lTxnnjzHvXC/zKCufIEnS7wGBATQkjZfHmFarAMOoLZg0lNYA4Is8O2MMbU3iQvfhQ2dDPcAh/PoexuAUOBjdQAVXUP7cb+8yIlG5Jzca1zlH6xFJs0mu0320iB7buhJGD9DXn5dPQPFQJSNVJd9DkXP2ZMOLWmw0+sDtWQmHV71MxyXZz5kIJYoBXTyI5/fmwIl1C6FRnRrQoHZ1WLZgchnPiuKi9Hm+37xhPXC6XJD97HSoX4dZ+Rx2+xbre5UbkCXpC4/Xa3zJyWta2+7Pg+XzJwN8shUWZA2jl1EkqQi325c8cRGCCIQXiY6dpC311RE5WtNORNHBZTI/b+znwGebmPuM9T3KLXhdrp7EpR/isDdeSPzg9O7YVrXZbL+Jz/Ff7vxnZ1IgDk4gLi6Mj5RB5GPrDZkr4odb39TrshJWP9ZWVOx8g5lKg4KCwsT2lHeANx6fKLykQRx6wQN54PdHom6K3FsKJJvtF+qkj7bq3KlzNudmQVyQCLEMfdN1vQytk7no+mgrEVey2X61tqFcg9NOK+hovYHIdSIXw/Eiejm73d7H+rwIks32Lt7XAWNxf7hFe95CbJ2wIjEvdoyE3Qx3drqFEVeSPrDWeVUAfuwe7NvFvEyBcx7nOEFLSK/fGnpNXKi26DZATandGDxBwaWGfllYq0YVmDXqAXjnzafg3NY31Z/35MLve/PhQkke/LA7Gw7nvwgLJg5Rr9M+YGWhTZK+VBTHMOs7XA0An29ZKsg/g+NMHKYRuv+8deT/JjruMZ9PdKw2AnTMLGZOrF1HPEHHU1b9BEFhPlwZAfDFLoDDa8mNEo6sA/j2AHg9Hgq3OX3drxTQ4/o+I+n5KQXMMTu6civy20eMSGVuQJz4V4PrAHy2eYlZFgsyFPfx/HktpNaMtd8bLvg6cvdP8/mZxT+RhWzA/ELWCcu/hKz87+HWAVkmDr1twDTIQr/X5adpUUTPCS/R+VkbfmPPFHwPM4t/hnsfzYPoFC3EMYoPhUWA+zeiEv4jUBRlAzaUrR8rzcF8/ylNdZu65idGRDHWkxHzSRXjPyHO3vAHPdfyjsEws/h3qKQFqkI/cjL8V9FXlcDsDQDVmzP5O3P9H6YlCXzkiJ04dfWP1DGtew7hZZRfCAkJScRGBgUFqRhjGXVlk6jYmwO1a1RVMf4vrr8wc63hxKwT38LV45afgQbtehIhni5hkXlxegr/IDmBF7zNzl/fe5jgVi7UoUUfMwJznYbpa3/Sn0dXSVw8a323cgk+ny9DlqTDvPGIGWnJZE68vtcIk5s64pQ1P9M93Uc9c1GxIRILOa9ygza6Rzn6hFZpdKPuD226VzjH67tj3AtUH/r089BuESn1MY7wF7ivKM7B1ne6mgA6DptHvtX4UcMPGbrjzyxiy5uGvrSXVs6JnSPiXTNWMO4rZPeExlcnIofG0YJMdXohixPW9eEnSj3LET+KI147RPu4ngw7bMhz20jux1Rufi4ssTa/9+qGFStWyIGBgQ0dDkeWIimFNpv0H3yxSblnabmAw1V26of6bXuQ2Bj1+rt0jHNybDJWCxG29LjOrZx7p6w+D5OFtW54bXI+C4c3bS0uEGHnZm34HZxuY5LWbrfPtbb7qgaPhxyTYfq6n2DkKwfoJR/Z+CtMXf0TTMj+mri+84gFdD6r4Aeo0fI2muaPTGdxgHCLiQ/q33yHal0G9MCT22H0khMGkZefhulFTDyNXnJU7xCxc3qMf/Ha4GYLNMeXQvlIMnrVjzBl1TnoNHSuWu/mbjDoiWJ1ZjGuozoDU9f+TEM7KIrHbmHOMcExTC3LWvWjRiwmjw3iMVmP+9O1ZEAD5q01OmTFGVqOh6IMQ23idb8/Mcna0KsWJEnqjy+FH0DOidaPFT8/MfsTRgDNS4gTGdU5xulnaZVdWRzK9/mHVsSkpHh4ZPxD11iUeAFsNvlJfLnJBT8wbcCkwhkciIRudedwIgrGTOUEZl4/LAxY23snlUFkY80xloUL72ySDWaP7K/PF5K6eYzZVwKio33WNl71oNgdhd7gEJiQw9czi8iH/mlaUWuTKpF3p9lJkHn/4HmczsJlxPxZEhl8UbeGuPYuMCQEBvXtZhiRcHuS/fYHuYMw7PC1BTabtCE6paqwINwgrFlk4C81s0Og5yXmx0DHcH9GM80TsxKtFsbfauuzooyekP0VhEUnQJ9OtxgEJiKz8N/uf3n94L8CTqe3Db4c5ljBj1vp4W4Me9yOXf4FZOV9ZpKp01afY8TlMt0S7dXoqDPwmJbLRZ885YQ+wYgc4HZ3sLbxmgCn0z0AX9Dp1NNzXXaUZEl3WHx+ygiAPdyuohFZc0/wer01rO27JkBRHEvxBRVFAbfbDUFBwRAWFg4RERHgj4oSFrjGESEmT5oEhw8dhEOHDsDBAwdg6NChdJ6H/8VnIiMjweeLIE/PwMAgIjCWj/f1bH8THCl4EerVqqaHBv72bRYoydq2awZku2Mb82FGTaEpJTrCPzn8q8M1HWzRTmPwpV4H4cn1KOuLL7kubRnWhvDkuuBLrqcv8uHRHhgyv2f8QKJ5s3n9WhASHAS3tGqiz950atsaZ06uXOi2/3uwHcElCGaNQUTxnKhZXOresraNwOFly81ubtOMcfGelbD4sfHXNhcjSJL8Ha7dYxyIWbWaMU7MxHV8bF88R5yJx7TVjtGhm/aR+zkHC/va86jqoZl06P29ITqarZ13KMob1jZVQAVUQAVUwKUB4/jeVu82T9euXd3WaxXwJyEmMDDc4XCMlSTpCP6U2Niixf+BNh4ZYJ/D4RgREBBw7Rl4/gkEBAQ0lyVKZqUTDReWO72hEBiRROkNcP4NF5xzFQz1YNSLQ2OrQIAvERyeIDEUG6Fks33qcDj+naBL5RHssv1Zg6ASBEamkB5rBGI39F80YSJRg6LSIcifRmvs8JyoJ+MxX4UaGIETtsYiS0VW3rTWf82C3W6fz1/cExLFdFa+QtVEWIbimjoMkYu/2qxTZG1uz/pDwgluXuzOCC2/bG3PNQPh4eEx3NjjDY83EUdcemsirhAWYdy4sbB9+zbY+dYOuO+++/Tz1EEXWXyul1O5hb7SFeV6sNN57UwlISiKgg59tPqUE7bMNdXConW8BzuCExJXi2Isiy1bNpERiJ8P9CWUIqhYpvj7jHVzNyxFUUZZ23lVgsyGJXhCo2nI8kQrRAiRsAKBiRiZLP3esGHMkoYhFRiBN8PefSV0rl27djT/psexKKvDLHEs8F5cCI/Pyf+X+YAuByiKMpG4zI8fMJHDxFQ81sgAbMvFw+LFi1WvNwD9HaB4fTEUFhayj2JgICXc5WJC7zCRyJphSDyH92GuuZDYKhqR7TOt7b4qwOPxROELeMPiSg1fbhFjRDAPaU4EvI7P9+3blxLjpGqLyRFx3TUGQ+zWrZtGYK5RaOWZRoMl+ovQFlQD8XmnMyjV2v5yD6T8ywqzmIlD1cplFk5mqhrjXh49ElMlYRwhJOrBg/tpf8+ed+iaz0dZLpiV7RJix0x0Q0TJdn2m5eoBp9NzM39pehkxZpD1ha0E17b4/LPPPqMeOXKYhbfZZIS54ftHjhyCF19kjoFiMBIj5ZPRaVzTsGobXNY7HI6O1vcot2CzSf+V7S5GWG3oimJBl4tEhNLxfvCZoCgmEkJDQ+Hpp59W92KGp/17Yf++fZTp6bXXXqVpI7wnICJREz+CjL+YnLcQGBHbapOkn6zvUZ4BQuOqaC9r4VSrqDBxsMhhDSk8DZ++Lwud3hCBcwXVj+oTYgmJHajHGTKIHRpHwcOvKjGhp9+yvpyV2OIwZrMRTSAssSb9GGDsZMpSaERH0RHlO15zBYRR3r2IlHosdA3/8eDE1IltqZtQEylpLN2Y9SXKMxixg8p4KV1UoDpWpTmEJdQg52wrEb1eL2RkZKitW7eG3r17UYCmXr16Qe9evaBFixaQmpqqlhVfCBfP+JLrQHQV898il82sfsbhfLRcdQTGYae/nEZM03FaAxNRI/2RMGLEcCgqKkS1TEUt4a23dsDbO9+C3XvegX17S0hdw2x7JSV71N2734Gdb78Fb+3cQRoFXlu1qgDuvfde3V6BiJOfnKO57GftMEQEhpC8qggsSdIXpKIJf1jsI8deiK/VQD+GOY8+Qln9tm3bSoHxtm7ZDHPmPAo33XSTytW0iyFGC0hKSoLOnTurC+bPxzIo6NOOHduoI7KyjFVOkuywEJfL4iYkgrDN1vcotxAWFhZHXBxfTRue7M+Mp63Fob9mzSp11663ifMee2yOGp9g2B04OhxOCAwMhrDwSPBFRFE8oAh/NKVfDAoOBbfHqzubiIgRth6b8yhpG7t374KCgnw1ICCAfqtdgT4tCq35A3dFMndeSVAUx+vY8JDYyiQL+YcK42EePnyI4rTFxcXp4cWQmL7IKIpalZJWBZKSWbAlFuFKiGRlzcSYnE6BmVLSKtM+El9R7DqxExISYPmyZSoai17SdGYcQfhBDIlmTt+KYsfItVcf2O32x0XO+uSTj9VHH6HQ+OzF7HaIjk3QUlkK4cUuElrMRGz9XksnaPtI8JjYeBOHPzJ7Nnz2KXP+5miX7U9Z231VQVpamlOSpP+4nMYCGTTe8LhtF0UrtwpE1mO4lbqXc7qQd1RLhop18vodTieGcfi0UaNG18YEqsvhelrnGLuD5ClPqIpbg4gCF5qIawl+JxLddC/LLssxKYXVgYSPjIwmMaQT2UEi7NoARZLIbGm3KxQ3TRyieOx0uih/cERkFMTExEN8QjIkJqUS8Y2geBmQkppJyAPjUdC8ZEzrmwqx8UkQFR0P4b5I+jA6HNr6ZgG12Wd+jG26NkCW5a7ENXY7OBwsoy7+IGQ/MxN6d75VTUyIg0pl/K39XZQUBZKTEuCubu2h4IVHwOP1UJ1YPwbFw3ucioJ+y9cGhIe7Y/Cl8AWdGmdNG36/EcNifx7AkdUUHAQ+3QbwzV6A/2wDzH6J8SZ+2psP53dlw7mtb8BX25fB+V0rMRKh+ktJLqU/hP9sZc98vp2Vgcl9KRIWC9/wwnQWNgFHECew1+utaW3nVQcYAFSSLP4K2jF8tKXUiv9z6CQtiJCPN2H4BWOBurg0gIeuOVCACw8lpu7ZJPVDekaI6EIBR9gyAowsyGN3YjtkWT4ZcBXEoSgFcWFhsXwG+cbWTeHQqoXw3ds5MGpgHzq3+qXHtHzBRuwKxAkP3qUmJcRBv063qAlxMTBmYB/G5ZZIV/gMEXhvNgzo3VnFhev9e3VUkxPjoG+XW7WRYQ6+9PlO5uGORMZt/z5dIdIfQfsOu7zV+g7lFrwuVy9sdGSED+DUZsZBe3NBfX+digS5rk51iIryM7EgEFePwsLPo9M0PmeNyqId6+fwGU0c0LP7cimSVSku3rMSTr+dDYomouDERoADubB/DYsZ53U6b7S+S7kDj8dzPza2Z8dbKC4le7FsmDDkHqik2AEOFsDEQX3ZC76L1w0i6VzJiWYlJo9QZeVizqV6iByDqMZCGAP3Zz/L6qdohOy5mtUqYzRajLBVfiEgIKAyNrxfl1spXBh/ud+1YJ95T0+n+JihoSGAgZE4UU0cjHi0CNo0bQDf79MyzuvBm6yENoj9++G10KrJdQDvF5njEgkiguPSuRMYgT8wclYXPDudy/1yDZCekkSxMXVO/ECLpIoi4WA+lOQ8R8ff7skzAouKwZn25UJ6KpvprWSzqaRZCBGyzLJYw8MFtFofn0lNTjTEhYnbjf2JD2J4dRsbYVqZa56fWb4JLEnSZ8QVH6PMRa5jHPQjT8X+n61weN1r/CXgs23LDA4WCXx4Femw/D5cqVmKqAJH074W9w3R7nSyINMaMU1bCi2ZDW1bNVF9vnAaZXw0dLi5FXpj/mF9r3IBoaHe6vhy/9nyhoVbcuB44av04u8WsdCLrRrWJYV/aD+2rlgXC0Kk11H9e9G9dWpWBR7YlHO3GOmViYxsugfvxWemDL2vFHG5tkHnDuRBWFioen2zhgaXf7KNnvW4XKOt71YuAAmWkpSgBQg1iIv7I++7kxykz+/Lp33UKvBlDuawKK+cCzmhaXsgD77fnUs/HrrcPbIa6teuriYlJahpqUkq/oDwMGRU12EKga4amonRDpNM1rj9qaxhTJX7aCPExWE+kXLqFxHocjXGBv/+XqHBJRw/ZMtXB/bqwo6PF4HH4wEZtQmME8+Jw4c8j0Jo/aghHiqArrfeQGF02zS9DuDdteZOKYVGO0wfuePsm7B0fhaMf7CfLloyMzMDre9WLkCSpN8SE2IB9hvDkb/QvXe0Z3L0w81E3GpVmHF76tB7iXt0UWIlqB5gVORCjXBiIGjxeW1frN84b5xb8hjTIBDJNqGUY8dsHgb3c032Wrnnu7eWw9mtS0F9v4imiPBeRZI2E9GPMQ7mBC2TE7nWgMMeP3ZENI1g+COBWQ90ecxEgEhg85ZpG26PB61pH1rfpVwCz25Aab4tL0T7+/Ogfds2RFhZkn7HZ+ppnfJB4Wug0op4kUstXKgRPvepaVRGwcJHWRzMo8VQ/Po8du6ZqaZnrITm8Y8Rz2m/ypGRkX7ru5RLwH/6wX270C+oThRhyyOOeFwuU9hcnN2gjqF48WYCczEh7sN7a+H6FiwNhIidbr2BrjHOt3Su8KtM3P5BMZ85xtx75R+0/NjwM/1t8ZcTRAS+1BGWvSArK0uyPo/nmzeoq+qZD3TCliEqODef2ggXSnKBTJSntN9c0zNGZ5k6en8u5fXQOubqAD6ZiZwhciEf1vhi/9118fgMbrcb4+jAoLvuICIbXCyUIf5gcHlsIqJxv9hJ+n24PZAHD/dnIb4CXa4m1naUW5Ak2491MdgF/bFpnKJ/rBgRDuc9f1ECIzjtzrvw+g2o9GvRYMvkYpHQWudZ7zOLGu345Eb8a6M2OO12rOuqAnhjHsaGN7+8TuySbFg2f7L6v/JgeDz2OlymHlzzCpvVsBD4YsQ2ca1I8COr4diGxbqsvurSEletWtWBDf9lX4HxUeHcywmwJ5sSjUiS9CN/UUSccJQk6XNJktbZbLZZdru9e2BgYIYkSV/idcXhhJznZzHd+dAqg5gmLjaLCTpGMXNqM2xYvABcbg+v65C17VcFBHu9N+ALWLPGmLfZ0PHmVjphhy98W739gWlQo3k7iExIAbuz9IyvFd1eL/TudAtkPzVVPVH4qvpzSS78ujcfftubBz/vyYNP1r+urnlhFtzbo70aEFi2DzGbRVZWezweHClXB9jt8mwi8HHUf7VhqX+EBDy8CrYtZSFrZxaxEOIUmmvlOZiY+y1FtJ5Z9CvMKLoA09aehxlrvqV5tXo3dVF7jHtOrdKwdSmCXQxTazWEvlOWQEqthhR1+8Z+o1Rce+EKYlNCHGXZvkPTgMovKIqy3hsQoJsFuc5a1td88pC76cWyVv2gx0uzBqZjAfdPs6D5vVm4xRkYU3jZaRiz+DAdD8Cofp9uB3iviOGJjfDE1FF07aHnd1DctFnrf6fjDkPmqBiI3xMSTcH2/ZktCEOidRdVXC7wufW9yg1IkrQzPDxMJXuq9SNkwRubN4RgXySFueWBQq3BPsXjWetZEOf75uRT3Eok+gNPFNO5oKAg+AP/5E5tgoT4WOL2gQsKVbwHO6rb6Gfovkc3A8RXqWUQ0yZBQEQyI3blliArundP+QRFUda4PR61VNx3gYvp/IFciIyMgPS6zWA8hVhkUf5Kx3wXQ4qfgYz6LWiYT12NUVy/hHHLvoAZa7+F4AjDVzgsKhamrf5GFzszili6iTrXd6bRgPXhuYk5n1LAfoy0jdftLkNW2+2uO63vVi7A43Tegw3ELC46MTXimoj9Pkt3dkOf0UIGAyGo/sozMEHMbqARedYGxsW9pywmDkYc/PQmIhD+7nI32MFPbdbzedz2ALNXzN7wuyVGJusAjM499o2joDgUaNb5fmjc/q7yzcXYuDfmTdL++UtzMO1rgTn7TltqChBqEFTbtxAYY1XedBeTr5gKovs4No/nDomiUF6InmDGzR2GPKaLlY5DZmvcq5XFsxgI4iir4Dxx9+yNLB2FojjK54Jwh4OFSjx/eF1pIusEZgb3kS/vNYuDsjiYxwTWtshxil0Gd4A2pNGXLSiCBeHIbAoObyhgCF28hvNwLq9X+5AKokerhxHX6EQ8nrbmGzU8JrF8B3KWWXInmJ81nH51+R+cTuB3C4kAk/PMHzQxL4aZow2uow/eBhZGvFWPB6H7qKdony3dYpOi/aavgGbd7tc4nYkGE5o42CBuN60sxcls1MHBwSnWdys34LTbp2pcAD063AyfYv44tHQdKoBz21fQ+RlFmE3G4CR82Yk5X1NcYJSfBpENTmMqHH68MCb8GcoUg2VhxECe32hGMRL1LKWPEJ/ldXDCshQ+51SsE4+Ta9QHV1AkRFVpRZl5JVneY32vcgd2u32KGLoW0//Wr1WN9vFnwiAw46KeWcxWwIgjDGudUJzr2f70dd/T/TwcORG48EfTc9QpvHMEnLb2F8YA416i4/YPzqbjuNptwRMSc1Rr89UDTqfzRrvdns3tENMwaL5AhLHLT8NN/ViSVsxWMDnva+gzdRH0mvI69J6C20XQZ8oidfAzW3UiPfwqi3Dip2itLPfGqEWHWIz35WcoSVWfqa9D76mvq1gOlTF1EWTlfw2TV/1A99981wQqi+fiEJoMwQkJocLx1QGKoizExo9fdooybGHGl8n5mGDkLDS6tR8oTgclIukygqWaLAunrEbx8iV0GsqmiHjQUNzvNvIp4vBLZaHpMmIB/ZY73G5occcQEjuYJQxjx8uK4z+xNW+m+2S7fYG1/eUenE5na2vEa0m2QWRiOgSFR0JAaDhMzMafBRYefO42gMc4bgWYWYyhyZkeW61pW4rrQIsZMcaD4oSaLdvrIwOzhqG4mVF4gbaI09b9Qh2Af5GB4VFQo8WtbEQs/xJGvsZGREhMFXAG+PBv7+qOKRweHh9jt7t6OhyuVyVZPlzJZvvdn5RB3NzhoTmlOI/jtDXnKcuAOyAA3MF+CgWDRMZ9ynSAHWRRxfAZXR8mTeIcRKVkQFqdFkK8+NPQcyILRyPgtQM2m+1EWt0WKnKwOzAQWvUYBPfNWQ33PJIP9z5aAIOeZBOm980t1EUAxtjhMSf42mL8gIkftP4LNkNklethUv454YN3Bio3vhH8SWlEbH4v/tDMLPoJ+s/H9O9o64i7qrLhXhIkm/RDzRa3qZPyvgO70w0tewyFWcVoO/iGfhjmbGEZBfo/XgwzClkOuYi0hvp6Z9zHc7MwfY9A4Mn530KnkS/AxJyvTJpFneu7EMdPzPlW0FAQvyRRgmU5HFdnLtEyARPttezxkIry8JYBzI6A6BYWCyJOXXMexr5xnPZRg8AcG7SQW4vpM2HFJzpxDYIyohqcehpa9xoGdpdTnZT7nalDECdkn4NQfwzaikus7byaAW7sN4Zl31qOZsrfYegLO9Xr2t4B7QfPVCfnfq6SgWb5l9A7i3lmYlhxLiI4ge+alWcirv6Tgvsrjf12A2bQ/ZiIit+LHz+st//8QtIyJGZEujYAtYtuY5/XcxXpaEl3htx33S09yaZrpEfDYBosBEHzrg+YnyeicjQI320sm+FGTWXYS7vhpn6j0U6tL0SXZfkoxie2tvNqBuiTtdTgNgtBxi3/koiP00thUXHg8IRAhCnmRGMKfxuTWoU0EYPIAgcLhO8zZYlJ9KBHfJdbb4Dw8DBcLL7W2rhrAaD//GITYRhBBFvEijM0pPHegIgkXUXjQT1wlgLdAjAjl1GOmbh8O/BJZjqFT95ii19woeLebGhcryYS+OrMSP4/AB54cpNOULO50iA2T4wdnlhbI7BBZDyH12YU/1aKg40yWVkPPsO82MkjU58kyIZbWjfBmedvrY27FgBGLnrPIMRFCDyl4Bz7wJGRhxNXwwwWUG7amv9aCMx/MAxxgekpicAn0azKbdbZcF/PTrg249r5uAkAo5ceM3Mbn07SiI3XOOdFVWmhiwbOwai24bURr+w3iwVNe6AO44R/QyMwOrQI01yD+3Qpv8sH/iHAxJWfmrlOJ45B4DsnvERfevq5QOKmGVu0SeC13lOWmrQRzv3iuXFvfqBzsDiHmDW4H0gsFPk1BzA574yQUtL4sIlff8yGmFiVyVqK486Jq9mEE6rWIWuZiZhCObysCSv/oxEY3V6Naa3Zw++9hjk4+7PSHCxynqYTo804LoMZ75HIvpTrNOLWpjTCJt25LFx+Giau/IgR+BRyMPdlzoZHH+5/rRLYBl0ffgrGr/xKI5Dx9TeGt0HsrILvIbO+7kQN1ZvfApPytY/bpQiMVrWV5+DOsWxmmq2fNj5ykwf1uTYJ7HC7MccmhPqjoc71naDt3ROhx7gX1Aee3AjDXiyhr/7YpcdgUvZnMHX1V5Qreca689B+0CTo+OA0mL72O9IwECdmfw5jlh6jj+bQF96BgQvWQ88JL8Mt92VBrVbtITyGxWN7fc54fc0GJ/DAnh15iJlrEsDpclH0Ps6ZlxORMzGkl8vFwiyKyw44ge/v1ZkHCLkmAcJ9PvD7MeVkNKWSpLSTlHqSpZZEDA9nEa4//eRjOEgRsA/AJ5+wjxamnIyO1p6NwefwGXaMZUb5oyitJSPwJoAD+QYX782Bpg3qIAeftTbsWgG2GNDhgABvAAViRoJFRvpNBMdzjMD/gUMHD8Khgwfgs08ZgZF4jJgx1FG+iAjqkJCQUFqbhzGC+LQVfLIVbQ/q+b24JoStWw73hYMsS1dPtJO/COSMZ7NdGRGBiDkz0JcC9zFoEm4/LH6NcfBR5jvncrnGWxt2rQBLACUmP62C0/I4c4z5NtgfGyZJxWSppuSpQgJVX0p9LYpqUwpAytJPok8wKwPzHmFd3+xZxQj9AbNH8HV8GF/I2rBrBUwxhUU7gzUcLr8uhqe1Xi/rGR6UGetye9xCPIlsWDJ3Iuf0axYEgpiJW5qQIvGsHVAWYY1zyMlcZPxypJCJh49ZWAVFURZbG3VNQLduK2TGwWVYycogqJWABqEv9ayZwPDFLlr2Cx9vodAz1zT3JibWCsEXjKrSkojsz+BpfoXUvto+l89GOmDjHE/1q6cAxvt4SmAtbXB0Vbba6fYbW8IdHZgnD2bk6t+/v93armsKHA4HRqn6V8DtdreXJfkLXAzuUJRx1usVUAEVUAEVUAEVUAEVcI2A3++PDA4Orut2uzu5He7hTrtztizLS3AdrCRJu202W4ksy+8pivKxoiifyrLyKe3LyklJkg7abLY9dsW+xWazvYlrARRFmeR0ugc6ZWfbgICAqomJifinUAEV8PegXr169gCXq6nD4ZioKMpGSZK+sq6HuBSityJmdsV8bLjeATMCGuhkOdyE1OV/BlnwC+kbSZK32WX7TKfTeVNERESAte0V8P8h+Hy+aIfDMUKWZZSOpZgHUXa4wR0UCUFRqRCWUJPszJRtrLJoF2G2bDqPy34pzRvau5sa95CtxEgki1kf2XXxHs0mnt4QfMl1KaEVZtDFyQMcBNa2CQx+yi7LszFMj/UdK+AaA6/XW01RlEUY39TKDA5PEGWxxMkSNtHCmM6wkP5vxOeQ+TBIgKxle7ciSmJ3iJ8mZlgCX1yGUrqsshAHCGd2fD7In0LtLlUHm1zPDnQHXl3BtyqgbLC7XH14QHS9kxUHBPgSISLlOhOzMmZhpntjjsQ851KKodOQeZtBQLg5/SB6aIwePQo2aRmh161bC3ffzSIaiYiSFhnTxKzWOv4HcuaOSG1ACZHx/UzvK0nnnIrzASttKqAcA65QtzKuKxBT19bVGAazuOIMKZ/QE5I006obYSuktmX3GfNZuI+Mw4NacExNSwPM8oo545GBt2zeTNsd27fBjh3byanDxGSyncoxMr2WZlRzG/HYaJMVsRxMS4lfFWusM5vNdsbhcNxqpVkFlBOw251zMYoV7zBMhk3qAeZc1vMqGwzItyKzGgxsSecuXCPm0dwQuNSLj4+HtFSWQr5bt26AeUWJgbdsZriZSeTDhw9Cu3bt6D6fz0ex7nFfcbg1JtaynOv1C8xrSs5t3KN/LUz3G+9KAzetge6YQ8xcyQb2qzHywLUKsiy/KEobXA1Gyz10fxeR8bROtzKoyAhlofY8P8afueAoxrSImHx34qSJ+prHqVOnwvHjx+CtHdsphTTm5j567CiMGzdOf2b6tKnqo4+wwCyIITGZEKVlKja1S98XBpalvfydaLAKA1CU1sj0KKGDhHYjyrL8ipWmFfAvgcPhuF20KgRGJlvWKnEUGdiQxFZGMDFNGddEJzD0jBOSucMzzzwDx44fhTlzzJExAgODICUlxZQvF3HevLlw8uQHMHfuXP1caGwV7WdP/FpwZjTUH6NN4j2CVOYSWhi0VpognXDQGG1CyVxO4yReqyBJSi7vAFzoTCYsTVqZOl7vdIGhRUknMq7IvCIzCwzBVunUA9lhNnmh8/PGjRtg+45tUFKyB7Zt26oio957773QtWtXdDOCJ594AnZo11EyFxUXUURUsRz0943kZjxR3RGlsKWtxjuavxbGPYZ6YejTnJmbgzuIecAjSpKywUrrCrgCIEnSO5zoaBbj0lfsYM7I1nM6Y1uYlO+LDGF6lrZNmD+yNlmRlpYG+/aVqIsWvQbDRwyHjh07qsuWLVPf2rEDNmtWiVK4aSO89dZ2WPTaa2qnTp1gyJAHYeFLL8KePbvV9PQMxkiKHfzpDbX2GF8NU7tLMap4zRikBh3MktjEyJWbm6SyJEnvXiR9RwVcDpAkJYcTOyS2smCesnSmBc2f1oswxcXO6wzRiHRh/OzzNiiKHe6//z4oLi6iNTx79jCrxKZNG3XzGkc63rQRNm/ZDLt2vU33432DBj0ATqeROT44Op1NfPCfNH2ACcci8+pfCeu7aD9/SB++LRMbUn3ie0nStRlq4/8cHB7PbVwH9obFCBLY8sNjlUKWY126WTu9zGNettbhmlqCgycssSbYXWZdFxHjgzdv3hzuvPNOGDZ8GIwZMwZGjhwBvXr1gjatW0Nyspbd1KRGeCE0vhqzpHAG1FH7YeNMKVovrO/Nmdr6LoLk5TSz7mPd3rBYrU2kI/e09kEF/EOQFWU5J7AvpS5N3bKOYJ1sYsIyOpF1pLB/EQYwP8MlmXYep4rJFZ9jU4hGfTy9IUlQpzeEIk9bmVREjPyEemgYMm1mE4ipisuwmpPlAMsiCwVOS1M7OKOxAWVIXOtANAab+bz5XvFLZLyfNrAzm5AtnbdfYbnvKuBygiTJ+5G4aJul6Vr0U7B2isiMZWxNTKwxBu9c3CIDRdOaPNahqCt6QqPB7g4sNalxJRGdhBSHhyZpcBYuLL462XoZs2trBgUpapKs4iDkjKwzsSjhNRQYHukg+GnstfZBBfxDkGXKiUpOL8hgXBKXLX0saNIBWceRH0JmEwhLqAGe0JhSFgcR0fpQu3Yt6Nipozps2FB17tzH4LXXXoVVqwrIDrxj+zYVrQ6I+/btVffv36fu378Xf/wAt/v374MDiAf2q3hu394SvA+279iubtq0Uc3Ly4WFL70Es2bOhMGDB8Ftt92mVqlSVU+fWhba3QEQ6EughbLMkQjNc8a76hJYH6z8/c2DmqEhibnKpijKCmsfVMA/BKfTeQOqEkhgT0iU2SohShRRAvNOJaZtRtYF9HPAqV4rU0RFR0GXzp1hwYL5ZC7byxhNffvtner27dto4mL37l2wb/8+dn7X2/SzlpuTA0uXLoX58+fDvHnzaELjwQcHw0MPDUGGh2FDh9L+gw8+COPHjwMcAIgvvfQiLF++DIqKCulncM+e3cTYWO87u3bRFDWa5N55ZxccOLAPdr+zCwoK8mH69Glw0003QUgIS44hIkrRQF8iRKY1ZF8UbQDrdBAHvX6OMTHavtFjD8tBRnY6PW2tfVABlwFoalnrMG+o8XPHJZD5s4qOMc1oUsLqyhgcHAx9+/SB5cuWqXv3lqjIQMike3bvJomJU8Uvv7wQmQ/atGkDcXFxPGbNv4YOp4MmSm5p21YdOXIkSn5169bNJNn37N4FO9/aAXtLSmBPyW5YsngxdOvWtZTkxulsmglEawepX6XVD0RUUVBt4s/Z7c45VtpXwGUExekcgHP/SGzUUzH+pW5q07zKfMl1qAPFDr399ttJkjFTGEo9xqyPz5sHt956qxoezpKnlIV2uwO8AYEQGuaDyKhYiI1LgoTENEhKyYDk1ExISa2sYzJhpglTdKwMKWmI7Jiup2RAYlIaxCUkQ0xMAvgioiAoOBTcbi+Z8Kxt4YhRZ9u1u4Xaj5IcVZaSkj3qwYP7YfWqAmJq8X4cyKR6ZBqzgki38MRaur6PdHU6nUOsNK+AKwAtW7ZU7IpdtxkjekL8EJ5Qw6Qq3HzzzTh7BidOfECeZc88/RRcf/315CppZQqn00VMGhObCEnJyJyMGZFRE5PTidFom5wGiUn8WNvn5wktx/y+5HRISkqDJP0e3Of3asjL0stMNwZKWmU6jo5NgJDQcJNtWWdUWYZWrVrBEwsWqLvf2aV+cPwY7Ny5Q73t9tt0vw4c3BHJdcAdzFQHjna7fW1iYqLLSusK+BfA4XC3lyTpPS6dMX+i3W6HNWtWqU8smK9Wq1pV70COKOUi/TGQkJRmMGpSGh1zJObTGfVvosjIZaH1upX5sS36vjA4ktLpPLYbJTpej/RHg1tLmixilSpVYMH8ebBhfRHFCOPnbYzpjzkc7s5WmlbA/yE4XC5KwmRFDCEYG5cIqelVIDklszSjiselJOhFmM96LEhYRCZxyypLkOL8GWs5puvWcxbpnWweeDgo09KrQFx8Mng8ZVs3bDbbtRnw6FoAm802zdphVmR/3k4IDAyGcF8kRMfEQ3xCMjFAUkq6oL8Kem1KBkk94/NfBkOXIUXLROuzAjNj+YQpTI1IShF1a0PfxusJiamkm/ujYkkNQp3d7nDoJrJLodPpfNxKuwooJ+B2uwfyjlJkGRwOOzgdDkK7XflTHXwpRAsF6p2oU+PPHurRKOU54uccpR+6Xnq9gRAQEKSjlzCQruE9LrdHfw7LwfJkRaHy/147jWdwnR2GAEW0KwzFMqVK0gQr7SqgnAAuTeKdJUuS3pGsM42fubo1q6nqyc0qfFDEosRjMon3i+HnvQXw2eY34Ej+S7B58Xx4Y+5EeGb6KJgy5G4Y1LcbDOzTBbq0bQ1tmjaE1s0bQvNGdaF2tUxISYqHuLhYiIuPhdiYKIj2R0BkRDiEhwaDLzQYwkNDIDI8FKL9PoiLjYK4uBjCxPg4qFY5DVo0rgetWzSCNs0awh233QCD+nWDB/t2g5kj76f6c5+aCluWLID3Vy+Ezze/ARf2FQAcK2btPrkB4HghwEdbMPiv8QMn40Arm4llWe5opV0F/B9DiNdbw2m332+325+12Wx6R6LktCsyOAQpjLbUzzDfsRZ1VI9hjrnotXz0FJUfM3wfygc4th4O5j0Pi+eMhcdHDYBXZo+B3SueoUTUlAOoZCXAvlyA/blsi3gAMR/goIB4vD8P1H25qn4/ItaPwerfL4J92c/CokfHwOOjBsJrj4yBA3nPU/1UD8aZFOKti0jvsD8XMNhylN+wOtDXyG6nLT+HdAhwuzv7/f7k/v3rXdvhFMszuFyufrIkncAEVLxzCCUJQsPCwI8dWUaQksz0FPjvvlUAB/OIUY0g/JwxjMwzKKHvbH9jKcuGiN1vu0HL96Glo9grPE/HItPxASJkZcdBc7QYalWrfMl62jRroMIH6y3MW5qZqf7j66FFo3r6s8i0IhOXhaR+KMqLLStMbFcWvE5nK1mSPhWJ3/6mlvBO7vPGZ/XIagr5ThLu3dUAn78Fz04dqd//QJ+uLAa/lWG5FBYlMe4fWkWRzn/akwdwQlM7PtgIP+zOhZNFiwAOFOjP6NuLIV0XB42G+3IADmI9i+DX/atYPdjGExvhp5I8OLHuFfhtXz7AXk1qX4yB+TmU2McL4d3C1yAl0RxKALF1k+tUOLubEp59U5IHz8waA8Ehwfp1h0N5zUr7CviH4HY6H9SyaBC2bFQfPt62TKWMG3uzKSEEY4Zc+P1AATw5eZha/PIcFQ6vZp364WYY278Xk3Q2SX131YsqMbuVmQTkiX70hD8CgxrH7DOu3afya/o5/Rkzo7Hr7LjsLX9GbJNQBr2vqTxVQ3NZyMyHC0hXLnxtgVqJZUOFvt1uB/iQD2SN6T/eDPnPsoyqiIpSsUzpsoDH4Wgn6rcDe3ZikhD1Sz2bVA5j4qPr4L21r4DDwWaxEuJi4HyJJpFPboaObVvTeY/XC59vXkr6MGM4gUE1SayfFxkRt5iq8dgGttWzqRiMre7NZfdjGYJU1xnfxJBGuTrT43ugVEa1AfXgE+tZGRrTGmWUYmJjsFGZTK3Q6zm2DvKfnakz6COjHwA4tUF/V72sU5tg0hAW4AVVELfbfbu1TyrgT0KjuDi3LMtHONFvatEY/vhgo868JsbADju1Ge7r0UHvpDvb3wzw4RYmYT7ZBhMfNCLvzB33oCaFymAwjelKMdyJ9fDKo8ZSe8Q72t/EPvuiCiEMAus5Ha3XxHpOboQH7+puqueZaSMZM2v3iFK8NIrlcsZH+myAR0Y9oJe59sVHiLGNNmnPH10LG142VmsrUoUZ7m8BxsvnVgSnyw0HVi1UyXykf0KFzt+XC78dXAPJiXF0P66YWPfSo6zTjxfD8U1vQGyM4Zk1b9IwgM92sLJEhrUymiZJ6drhAvh4/SJQhOlaji/PHGUwmMikF9svxbgCAx8vhLxnjCz3HB0uF3yycbFmSeGMjOWIg9nCzFSncHxyI9zV9TYqT7Y74GTxa5pVxdKeUxtg/oQhjJY0Ne9ub+2fCvgfYLfb5/POu+2GFgAfbWU6r9YxpSTcwXz45q3l4AsPpWfmjB0I8HUJFL4yVw0RflREnD/xIfYDWJLLPuFcZSDM1TtVVyP258IPJfkQHe0vVdaOJfMB3ucSTXtWQ0OdwJ+x0syrDx6+fW8t7HrzCSzXZKWIj4uFn/YVkEmODSxRVWCMbDCxUJ5Qtnp4DVSvkk7lVslIU38/tJqpLSI9DxfAl9uWgTeATVMrinzgWkt4f8VBUZQi3nGzRw1U8UeD20WNHxZOdK0jjxfBmudn8Q5X17wwU10442GdATq3u57y+BS9/JjKZ7MeGTWQMTFnNLEjdV1SY25+fn8ufL83D+7scLOKExk3t2oMJzYsJuuHVRUhKY9S7sg6uHBwNVw4sBou7F8Fvx1cDXC0SH8PzsRsX2PCd1fDseJFcH3zRmpCfCz07tIOfj6wSrMli20VGFY/voiacWQVHMx7To+JfP+dHYUUlNrP38kNsDf3BXBoXnGyLH0XFRUVYe2jCrgE2BVlE2e81x+bwH46cAJB+CQaf+0aw+zPhQuH1kJSAlMlcPbrJ8yqiJMTJzaAerxYhU+3w/zxD+qS7frmDdlPmSiBOTNZpZeJwbW6qd48QRJamB3Pf7gJpg67Rx9IIgaHhqq/HVlHUrAUE2tl6oyIkyH8K1QWauoE/6EzBrrlvg83wqj+vVkbbDY4hObIz7YCfLQZ4PgGWPb0NIiMMIKn2BVlbYUE/otgV5Q8nYHnTAA4ub50RwgdRJ1/MB/Ovp0NUVFsZgodut9f8zKzC2uWis/fzoW05AS9c8YM6E1Z1ZhuzZhOHxicgQVkjClIf4Gp6bMuqjfiNZrlK2BJHnFGjyNOER9F3R6/LsKzFizrPGdSYyAb78Dq57QxVC86fzAfvtz6BlpkaCCXmhjSEGc1XQ7HU1WrVnVY+6cC/gfY7XZcAkOEnDGiv4pSgzpZk8C8Q0ox9cmN0K/77dQxVTNT4TuUwGQP3QyH1r0CldNSSnUU6oJ/IDNpHcwlqKnjBQY2JJyZucRzjIEE5AxmOVfqGf4e+j3GYDEY1bhPZFCRFnzfel6kU4ebWP52WrFhty9wOJTRTkUZ7PV6W8XFxYVZ+6QC/gK43e5u3ArRo8PNKpm99qwUGUubPOCdJOyjtEM9EZn+wy1Q8OJsaFC3ps6wKHHsirIO82+43e4uvJ47O7ZV0fDPOllgLpGBdSY2M7PB4Maxzpj78+gHs/+dHSFr6D3q76gynChmM4ekZ2sMi20+XgR/HFmnPjbmATVryN3q97s11UFgYoMpzccmGljQxOxIn482w4TB/XRVCnOQWPugAv4B4E+DJEnfI3HjYqPhZ/TIor/l0h1C+6YZKg1PbQBkBINxKcT/xvCgoOus9TkUx3B+Xxf82dMYmZiCp383SUqRgUUGEpiYIzLngXz4dOubEBXtN1kWIiMj1Eb1akGrpg3UJg1ql7JwYHr6/2x9gz77peuz1n0R2liQzb5thcF9u+n12O32R600qYB/CHZFWckJvOW1uWRkN3eOmaFRjxU7jvD4ekpwi2VIkvS5tQ4ruB2Orlwi+yMj1M93rFTh3TVa2dZPd2mm4ZKX7xufe+0cMs97q2mmbeuS+TDs3h7QpEEdSE2KB194OPkwtGhcH0YP7K2+vexJTWdGzzTz+5rqFKSz9boVaaAfLoD/7l8Nqdq/AL6vx+Xqa6VFBfxDCPJ42nJm6tulHfk1mBgW9y1MYu0wYqJDq6FqJgsWLUvyW9Z6yoKE4IRQWZI+5gPo7m63qyi1yOIgMA2XsIb0ZahLXovOa31OVx+4CnFQm/626L/685ZySl0nNA823l6iG5aN0refMduHAxvz7VlpUAGXAWSZhWV14kzUhtf1mSiDUQRJp+uoXBpqnXcwH77Y+iZ4AwOpwxRFftVaz6UgQNDHEe/t0R5+R18F9Onl9ZbFvDqTGuf1e8SBV+Z+GQxZxkDg7yqWSXXoA0D7KqDkRWvMBxvJUZ+/C76Xy1URLPuKATqUcDPPQ3d1M0lhkVlEm61hyhIk0HtrYMcbT+odpyjKMGtdfwbcbncHyWb7gZcTHeWHN5+axpyM3lurqxp620wMZTknMJ2OIuNb7jfdI1wX6+P7DDXvNWTcD7dA3ouPQHxsjCh5f8YMp9Z3rIDLDHZFKSSCKwq8v+olmk0SpY2+1TrWxCzi/on18NRENsePM3UBAQGd7Xb7k7IkbVMUZTWakpxO52AcNMHBwfXCw8NjqlateskMnLIsP80ZggaGwwn9e3eBdwtfJS849MXQV2GUwbTiMd83Mav1HS+yNZ7RrBbHColpP1i/GIbe35O88Ix22nCZ0bLAwMBw6/tUwBWAyODgFEmSfkXi39SiEcAHxcbn0dqBZX2uRUl8aiP06dyWSSCb7Y+yAqH8WcTPr4Cf2my276z3cIyNjYF+d7SHN5/IUj/etIRNYpCj/EYynZE6glPO6G2HejZfflQK85gahVL1GK7x28Cc4N8rhM82L4XcZ2eoD/TtqmaUYe/W2qwqir3Ibrff53K5moaGpgRb6V0BVwA8Hmd/3glPTHpIZU44glSjrfZzJX6GRdWC33t4FfkOd21/My741Du3eZdB8NhWgGlrf4YZRRdgZvGvMKPoJ5i69juYnPslPLzoPRi2sAQGPL4W+s5YDp2Hz4N290+FFl0HQoNb+0K1JjdBWr1mkFC5DsQkpakeTedGDAj1gWJXLrmECFF2OCAsNATi4qIB/R/SkuLVzJREyEhOhOSEOHLoiYmOBDem/vofsd1CI6Mg1M+DXleC6s1uhqTq15W6T0T0kZAk+ZDdbp/q8QTXtvZDBfwDUBQF00zhJ1Ddn/OcSlKrTIkrSOIymJh9ajU8sR5eEhx+7hz/Mkxb+wuMX3GacJyG4v645Rrq576Escu/1M6f0XH8yq9hyuqvICKBSUNvcAhMyvkMZhSrNDhmFv0I01d/oSZVM9ayhQYHwYP39ITe3W9T27VqAvVr14DataobWLMaNK1fG7rfdj3079NdTU4wlg5FxifBuKXvwszC72FW8a8wawPAQy/sBr6iJT6zFjy2+UeIz6xNx67ACIipdiNEVW4JkelNITypLgRGpoLTGwY2yfxlwq+MJMmfulyuSQEVjj1/H2w223YkaFh4mPr1zpVsNkv7oROZU2Rkkx5cCnFadRPc3f126ijFocDwhSUwKe+/Jua1MrQJkXnF65zBCb+ksoYv3A2KncV2S6xWD2asO88YfcVpGLvsC5heeAEGP7kBnG4jeGGjOtXh2PrFtOSHJnH4KuWTG+CrPXnkUM/vRX/h+x/LhRlFv1F5WPf4ledgcu7nEOpnP25OjwcmrvwY+s/fYDAnTu7oydMzwJdyHfgzMe9zS/BnYuT5lhBVpRX4kuqBJySGfK35s7KsvGztnwr4E2Cz2XYwJg5Xv357pcqZ2GBeM0Nbt9Z9ZI4/Dq6GapXTqWNi06rClPyzKjJAWYwrMnTZeMb03HhNWk9d8zP0n7taVyOqNLoBZhb/AmM1RkdE5pu27hcY98b7ULlBC5MUvK5OTVg4Pwu63X6D6Xx6vWYwZsm7Kg6Cscv4lwDrPwvT134HsWlMTZIVGYa+sBMm538PE3O/gSkFZ9Qhz25ROw99DGq2uh3Cog11w0AbZQ8Nia0KMVXbqMHRYr46suZkW/unAv4EoPWAE3Hr4sfJ04wzps681r97QTe23oN68ani11QeGbLeTXfAzKILGjNy1JhyJaoHnFHN19h5vm9cEyX01DU/qfc/tkpngozrWqiz1/+sqR6MkYmZ3/wcpq29AI9u+gGqNTWkrYh129wOj278Hqat45JXY2Cq/yuYuuYr8CexgSnLEgx9fidkrfqh1IDk+xPwmdU/wqz1v0NWwVm477F8aHh7b/AEGfo8x1Y9HgDFzlaoSJL8id/v91r7qQIuAZp14jckYNXMdFDfK9JXFzAJK8yYibqwVR/mTPxBMax8coreQZ2GzoUZRb+WlqzEwAKaGNlyzXSPWYJnFXwPI14pAbs2aHxxSZBVcAYmZH9DknTWht+h56SX9euIdncQ+JLrQ3TV1rSlpDT8mtMB3UY/p85a/wdJ9Un552H04iPg9gaQ1PcEBcPYN45r6pHRXr1N1E7hy6EzNrsHn5u5/leS4gPmrVGnrvqGpPnYN94DdwDL+GSzSeeCg4NDrH1VAZcAr9erh5iKifbD2V05AO/zSQVjwsNQG8o6p+GHG2HcoL6MKWyVYOCC9cRoJilbSuJyxhalLr/HyuCChNal3tcwfe3XEJvBPvU4cdN/7iq4e/aKUlIvKCodoqrgTxdmaWpCGFW1NVg/7Yh3z86BnhMW6sdpdRrDjMLvSTfmjCsOqLLQKqmN9zYz+6S872FyzqcQGMYc4SVJ/igtLc1p7asKuARkZmYGKoryLu+wutWrwPv8J0iYTLAyrq5OcGl8fAO0bdOMyggMj4Bxb56AiTlfl8GAVgmroXBuwsozMIGfK/W8uaxxy76E2et/hw5DHinFjF1HzoOM61ox5pAV+qmKSGsIEakNiJnFXNAtug2EnhOfK2Wyu2Pc8zBTk868rYwxhcFGbbecQyZdyZlYO+b7y0+THn//nFxIqla3VLslSaqIMfF3wOfzReOyJFxVy4mJIabmZw2Hz3cs1yLgrGfLjayMvS8Xfi7Jh2Qtuk1KrcYwbe1/YTyaxjizlWJkQSqhhBN+AEsxtiC9zIxiMMeE7K9hyqpz0H7wI9B9zLMwfd33dG7amq8htQ4bXBfDzIbXw/S1/6X78bluo5+Brg8/AdPXnRfaVXrwlWJm0ztqTKu9G3//cSvOwrR1/4WY9KqMYRU7BPrTILra9RAcbQwqh8Mx2tpHFfAXINTrreZQlNckSfrF2uEYCrVZo3ow/sG7YdWLj8CH6xfBH+8VwZc7ssmJCO9p0vEeFW2r7O++9KeV64kTsr+CcW9+BMk1G0JcRlUYveQ9mJj7rcCgIpoZ18QowjVeNuHyL2Fm8QVo0W0QYxjZTmpEdNVWJIm5matF98FkaxYHmsGgQt0rz7CfUpKyfAAZ7RHfc0LO1zB22QlIqlEfEqrWgdFLjtM5vIZtuq7tnVS3bHey1GeVW0BM9RuEbEnS74GBgRnWvqmAvwm4UDHI7a6PqxFkWd4mSdJ3oteZFTs9NAemr7tgkVQiEzPEezqPXKA/13f6mzBtzc/a9TMwZdWPZF3ACROOU/X9CzBVu4Zb1L9N5ev23S8gIj6ZykczF9puIzBbUeXmdIzn8fqknC/MUldrA1oiWBsYYl2sXtyy9jC8AFmrftQH0dQ1P0HfaW/q79Z55NMwvZANlMn559VBT22ifwe85g2P+y6qSvNHoqOjfYqiNOMrwSvyOf/LYJeNGBX9Hy+C6Wt/U9HGyicqTDNzy0+TjonSr3XPoXpH959bCFkFP8C0dReg66hnSg2OS6FNqgT3PZoPU1b/qDMyDgI8x+8J9KcS86IURumHx9o1tf/c1XQ/fxYHxx1jnytVjzUOhRW7j35WxcE5Of88DHpqK9i0qezWdw6BmcW/6e8/a/1v0KK7thKG3DUDWvoS6kZHpDaY7gzwfc3POxyeW620roArBIpizxU7E/0c4jJrQu3rO0KbXsOh68gn1XsfzYcHn3sLRi85qk7KPQ3ztv2h1m7Dwl25Arzw8OvvqhNzviVpNjn3HOD93cc8Dz3GvgB3II7h2+fVO8a+oPYY9xL0GPsS9Jz4qjpwQZGalf+VocLQIPkNWnQbzNpEWU/rQWQGpq/F5JBN6ZjnTW595wh1ZvHvujRHaTw57wzcNXOF2n3UM2r30c8hgzIc8xzcMeY5asMdY56nY5xi7z9vDUzOO0vtn5DzLb6Pbj5r0K4fqhEql9Q4iGetvwC1WrfXaGaDkJgqEFerLfgzmoFNyzglyXJFKtx/EzweTzQuBLU7nY8qir1QluUPJEn6gTzShND/ZWF4bDJMyP6c/QQtPw1TV5+H4Qv3wt2zVkKfqYsZTlui9p62BHpPweMl0HvqYug1ZTEd3zd3rZqVdw4m0E/Ul8SEWflnITqlCpXvcAeDn/LFCUnBM5uBw8MiE8Wm14Apq1BnRSY0qz2iisH0blHlsF43Zvom5n4JEYlM2ldtejPMLEZVydDZ0UdketEF6DN1kYkWzkAfODyaDZukcYVfcrmF6Ohoj81mO4GdFZNWTUUphrNkWflnIDzWiFHxZxFVihGv7IdJud+SLjtg3jr9WmBkMv088WynTKVoAQERSexZWyUY9NQWmoDgTCYyMWfcSXnnoOPI56FBp2HwwDM4/Yw/oub7GJ6FKau/hoSqzCEJp+FxBm/8yrM6s3OGH7uMqVZDX3gL6t7Qib5i4ntJf3K5VwX8H0BKSr1gSZZPY0dVa3aLOr3wJ7JODF+4T7U7maXjzgkL4bFtQEw5BXH1D6Q3o+6L59C7DJmPd/g9jxSoeJ707TuH6efDkuqQCoHMG8ElcQZ6mzEvNMSb752o4iyjrrtbENv20Ev7ILHerRCW2gQadhkBk/K/hnErmQphkrL441r0M1RvfgurPzoRJmR/RtPSZmYXkU2XT8j5BuZuB2jRnVlV2BKngBZW+lVAuQB3bKVKlX7CjmrYrp+KPseoTkzMNmawSIql14BWPR6Cu2eugNGvvwfjl52EgfOL1JvvnQjp9ZqD4jAylg5/eR9N8Wbln4PYjBp0zu4KgMgMnnqWMTFnZDS5KS6mt6bWaqROX3sexopmulISFq0L38H0dT/BxBzUwZnnXVk4o/hXaKaZ91xeDzz8+hEaCOYyReuNURZOez/03Hbd9VNRHIus1KuAcgBBQWENeJLxNr2GGX/vK87AtLXfQ/+5a6Fl90E0rSzLZevUkQnJ0KBdLzJnTVvzHX3GkYkHP70NbBoDeMPjSXVA0xqiWaVoDt5wprrgYBj2Uok6MQ/LKc2UaBsWpS1jPMNurO/rTPwbtOkznMpGaToY1RXNFGhmZI6a8xKpIj/B49tVSKlRn56XZfnruKpVKyIElT+QW3Fm7PDQPHKDtDIOuViuOAuT887DjMJf6Y9+VvEFci5CtWLcinMm10lEvHbLfZN1Rg9LqKGrEgw5EzcCf2ZTCEuspd/b4aG55JMstsE8kWKW0uJ1mgwRzmM5nUYYC2jvf2w1ZK36ifT+yXn/pRUvaGqbWfwjTFjxIdz/WAGpQLHp1U0DVQtE83qlSpUkKwUr4P8YPJ6QvnzSpPvY51WcQCAGEHRSbg0wkB9bzzOGH7v8DE0hp9ZqxCSY3WWySCDj6qqEgLKDOdFXbXITTC/8UXe0L7turW0G06o4jW6VxOjTfMc43dasZtZvCVUatVJ9sfGq4rh09iRZlt/1eDzt+tfrX5ESrDyDJCmDeKfdOwellNlPl0s+8W9e1CVLMdly9vOFejG6VmK57mA/+FGVSDNUCFGd4CqFO4RFsEeXy9FLjtLPVVk/eKVVgLLOs7bh+9w/d43OmBG+cLVurerQ+ZY2lPIh55lpcHTNy/AzBmDE2Hcnt0Bqkh4taI+VXhVQDsHudM/lHfzAExtgMqkHnAnMaDCx4YTDmUWU1tMKf4XOI41POE4gMPsw14XNDMxVClx1wZ/ByROcSjYzqlGnVb2gfYuLJSK+zwNPrtfLfWHGwyqL9WxxY+V4tAiaNWRebTab7WxYWFiQlWYVUN7AZqPYEvhDNfTF3fRDZkwiWL3GBCY2oSD9cJau6Geo2eJWYgR0+EHXS2RWsyQWJbJmsUhtQPfjc9fd0gtmFF9QmT4uSlfOvNZ2lPYTxu2kvO9g+Mv7VVy3h+WOuKeHyhJFml1a2b4WIrdLO7pXluULCQkJKVaSVUA5A7vTRYEMvcHBMHrpMfqEi8zBljEJjFxqX1QxcKr3G1p9ERDCZrucgeGkKpRllRAZGXVk0SEoLCYBJqz8VHChFAYRZ1b+NRDaI34xcH8iqiRvHNXb8+Ddd2hRlsrwydbid2D6AyaJKXpmTSvNKqCcgY05f0NQmA/GvnGC/HmtUs8k7awMpe3rqsTaX6DXxFf0z3dQVBqt5mAMXFr6isd4H67+0J5V75uDkybolWaWrsYPnMbE+jnjHr5PrpdLj0FgKEvEc/8d7bXsqWUs79Ik8dj+vdhXRJIgPDwcrTcVUJ7BZpM2Yof5EzNgUi76OzC/Bc7InFEN3bc00r302cd7zsGUgnNqlcbGSmac6PBrs3ORaY2YWkGqBdvnpjdcf8efwRXUOPXN/SgujYY+ztvIz6G/9PjlH0JIJFvq36vDzSxCETGxEO+O48mNMP0hU/LFjlaaVUA5Awz9hB0Wk1YNJuef1T28zAxi/kybmLcMRKca9C2elP2RvvYO0eEOAr+2tg71ZPzZi0htqM/WISZUqQUTcz6m58n2jGWWYaG4FIptG599DiZkfwK+GOafMaB3Fz1oY6mV5MTEG+CREffpTOxwOCocf8o7OBwOzJAJLo8Hxix5n9wXOdMYn2tDEhvncd983nqMzIz+wZNyPoTEqsZkhtMbCuFJ9WhFBT+XVq8FTMr9jDFvGdPIJsYsVS+v2/wM4sTc72DM4nf1QC7PThmh8mSRJilMDM2Cucwafq8giSuYuNwDrurF1b3Yad7gUOgzZZE6KedTmLbmW7IyoH/v9KJfaQUIOsrjVCzO0iGz4YwX2oTx54kjLtdnqzPO0vo+HgILPdNmrP0W6t3QWWdcxMYd7qYwVZNyv9MGD3qY4SDR1vyt/Ip+Fqn87G+oPrSg4NQxOSGt+pGtNFl3gWYTcdp8RtHPMH3Nd5CV9wUMmJevhvqZ/TklKYFSpGGSSCPmsRHAkZj4xAYYfe8ddL9ks0FoYGA7K80qoJyCloTFxGD/CzGdrMsbCJ6gILJuoAUg2BcJvthkiErJJFUiLrMaxGVUg/jMahCfURXiM2tC5euaQXKVWpBWtwnEV66p4jW8j98fnVaVdHRfXAqEREZDQGgoeIODqB6XNwDkvxHxc/ygfqZ0Z8wqwYM1ctWCSeL7dOuEDYI9nnpWWlVAOQWbzTaFd7gvIgJiYmLB7/dDZEQk+Hw+DLUFoaGhEBISAkFBQRAYEAABiF4veDwejMROiNGHEF1OF5qndCbKSE+HNq1bQ7OmTaFJkybQtEkTaN68ObRo0QKuv74NJCUznRXR4XBoZbEyEd0uN9WD6PV6qe7AwEAIDg6BsLAwCPf5ICIyEiL9fojyR0FMdAxEREToZU4ccjeZz8yxPEQprDHz8fXQwch78ovf70+y0qoCyik4HC49oHZ4uA+ioqIhOjqGmCEmOpb2GeL5aIhCjEKMYlt/FKFfQ7wnPIzZfBFHjhwBhw8fhK1btxBu2bKZ4ebNcPDgARg0mLlLsvrDqUxelt/P6vJTfWZk7dHaGaO1UWsXDj7uFzL87m4qZU49tArOblsGP+5mGZ6MJO8sgPdvB1apVdLYolZZlt7PysqqcPi5WsBmsy3nTPRnEe2osiwTYlBvu91hSGKXiyQqv7d5ixYwYvhwwpEjR8KIEcNh+PBh8NCQIfDAAwOhShW2hAmRl4PPIyqKXa+HL/r8q9jlthsAvimBpyYbi2L3rnyGZYvi+vDhVXBszUIK8oLXHYoDvdYq4GoBSZLWYMdhHIiINIzO0wh8KfXJRTI0rhoER2dAYGQKeMPiwBMaAy5tDRradhWnlzzQ0FsNLQ6S4qR4wJQAnCRh2X7IZSLer0epl2gaWlacVDbWg/XhmjysHx2GsD1BkSkUCis0vgaEJ9el9qMvBm55XIsbm9RX4fQ7cPv1zekYg33/QrkCtQhLqEqc2giPjWWLWrH+QI+n4qfuagJJkvdj5zG3SdFRR5xdM2bZ/BnGtDFOZEQKx4QZeE8ThplNzfsc6Vg7f1Eso+xSbbs4YrxifK/WzRqqU0cN0pf6zxnzgJb0XdOJD+TB+d054PMxFUiWZcxoVQFXGRymznO4L8IsGrOKjKttxfNW1K9rjCjejwwqlmM804jQWob4nMHYeK9Yp9FmHAR2V+lwrg/f31NVT21SWcphzTLxwUaoX5s5wmMelYigoFQrgSqgnIPNZqOAhjh7RhErkSG0qWHOxCbmLFM6ioxY9nkzo1nPl42XGiRmNEthlPY4sYLvFRwSrM4eM1j97UghS3CDP3QYrf6DYji5cQmEhoaQlEaLRFBQUJqVPhVQzqFmzRu9sqx8hp2IOifzZdC8zkq5T1qPrcivW7dlMZr1GYZlM612Dx88tL1Y2Wwfp7VdWly1jPRUgA+3M1vxyc3wbUk+zJ8yQg0ODibmZVPMyptW2lTA1QL16tklSd6JabQc7qAXQxNqjQqOrjY6KLb6GMLo6mODYmuOQwyJrz0+JL7WhLCEOhNDEmpPDkuoPTkkofaksITaWaHxdaaExteZhhieWHt6eELdGeFJdWaFJ9WbGZZUd3ZYYt1HfIl1H/Ul15vjS6o7Nzyp7uMRyfUW+JLrP+lLqvdMWGKdFxFD42stDE2sszA0vvbLoXG1Xw2Jq/1qcGzN1whjarweHFP99aCYGq8H0ZYhnY+rsZhfD46r/np4cv1FntCY3EvFrJMl6axDcTxkJUkFVEC5BEw+6fV6IzGftfVaBVRABZRD+H9Drbx3/4UoYAAAAABJRU5ErkJggg==;fontSize=16;container=0;" parent="1" vertex="1">
          <mxGeometry x="600" y="530" width="100" height="100" as="geometry" />
        </mxCell>
        <mxCell id="EP9idgTvT9CNdn5mAOOD-28" value="&lt;font style=&quot;font-size: 22px;&quot;&gt;&lt;b style=&quot;&quot;&gt;...&lt;/b&gt;&lt;/font&gt;" style="text;html=1;align=center;verticalAlign=middle;whiteSpace=wrap;rounded=0;container=0;" parent="1" vertex="1">
          <mxGeometry x="550" y="555" width="60" height="30" as="geometry" />
        </mxCell>
        <mxCell id="EP9idgTvT9CNdn5mAOOD-29" value="社区民警" style="text;html=1;align=center;verticalAlign=middle;whiteSpace=wrap;rounded=0;fontSize=16;container=0;" parent="1" vertex="1">
          <mxGeometry x="535" y="620" width="70" height="30" as="geometry" />
        </mxCell>
        <mxCell id="EP9idgTvT9CNdn5mAOOD-34" value="" style="shape=image;verticalLabelPosition=bottom;labelBackgroundColor=default;verticalAlign=top;aspect=fixed;imageAspect=0;image=data:image/png,iVBORw0KGgoAAAANSUhEUgAAAQQAAAECCAIAAACXMz5AAAAgAElEQVR4Ae29B3yc1ZU2vlgzau6mhjRINhvSG9nNfvmym02yu/k2yWaz+bMbdrNZbEuyqiXb2GAbMC0EHFoIzRAgQGghhBI6ARJXuUiy6qjXUe+a3t75c++597znLdOkGVmSxz/9xue999xTnvOc+5YZjf7Cm/6XRiCNAEfgL9I4pBFIIwAIpJshzYQ0AgKBdDOkqZBGYME3g8vrnvDMDHumOtzDLa7B1x0NT0wfe2Dq4A9HfgU/Xxi85az+nemfBYXAFwZvwQI9MHXwieljrzsaWlyDHe7hYc/UhGfG5XUv2OZbKGcGj9cz7XGOeKYaXfbHpysvH//994bv//Lgzz858NPz+nef079rlX17jn1btn2rta8CfjL6ypf1bT4j/bNgEFjWtzmjrxwLlG3fmmPftsq+/Zz+Xef17/7kwE+/PPjz7w3ff/n47x+frmx02Uc8U9Mep8frWSDtcSqbwe31zHicg56JdxzNt0y8eenIIxcP7T2nf+dy+7bMvi3L+srTRF96CCzrK8/s27Lcvu2c/p0XD+29dOSRWybefMfRPOiZmPE43ae0MU5BM3i83hmPq8899rbDduX4i18a3LvKvt3SV7H0Cp/OKB4ELH0Vq+zbvzS498rxF9922PrcYzMe1yk5WcxfM3i8XpfXPeVx9rvHb5x47WMD1y+3b0tf58RDl9NEZ1nf5uX2bR8buP7Gidf63eNTHqfL657PrpinZoAropdn6i4Zeehs+87TpLrpNGeNwNn2nZeMPPTyTN18XjvNRzPMeJyvztR/Z/j+zL4tGek7gQVzvztrps7Pwgx+d/Gd4ftfnamf8Tjn4SY7tc3g8LoOOtq+Mnhrbt82a1/FGb3k4Q+VTfnRuzkBfZ1yn3at0b7Ou+4wur7Rl1GfjsTU13nXHVJTkBdViMe4Tl9nkB4ardG1VBNknX50ZWNRYur3bbb2VeT2bfvK4K0HHW0OryulLZGqZnB63b3u0Z+MPHaefZell7cBAIevDJoyRnfxyvsEZ0HA2gNqvWVsT0J9VEY1FHA56uumhEHeM8JOIsbRLASDxqlAZYwfA4skoKbqggYpZY3xMo4JgJkCGCGkHm4f/QrQZDxqOonDiJkajcuWs/RWnGff9ZORx3rdo86UvVOR/GbweD0jnql7Jv90Uf8NVtEGsk6IICALh6qsVetBoKHY8lDoawfRcu/mM5iCcVZbJOpU6HP7euMyJKqv60asJY0BZXUhBAbNDGbROE1NDoIFjXE5hciYGDfbLEQwWkwiZaqJnCxBfUpZjKS3jMNOEzHNVKagK1CPtjoYAwrcu7W34qL+G+6Z/NOIZyoV704kuRmcXneLa+AnI4/l9m4T6PRImHokTVliAAoXmAIHDpBV9fk4zjJc+CqoCoxrlOUs2FdfYxkHg9Q4Ky3tDR45+IJQIRjVOyhvFqtYQ4JTmbtqnI8wKLA3pIAZGTMFgyJxEowRRjACO4LQJzAaM0Wn1Li6HOKXFpDxauKQDlFQM9XBTvAUQUoOqNZ0vWQOY27v1p+MPNriGkj6KSKZzeDwuPY7Wj9qv9baU846AeoNqfaUndGNwKEgAUIdKAO8dhNyC1OSQzrjvZuFcawiUk1YpoTj3lkwklViFQ2G6KNx1Kc2MXJKJhPjxJ2aC08QYNFFznRkeFTfHEYKFGBL4k8IRkhHFww7xGCoLwm7BhACI9jB14iZIh+4gN5NYeSz1p7yj9qv2+9odXiSeReRnGbweL1Or+vW8bfW9e5YRoGjXKGF7Oa9AejgOB7CKnqo0zcqoBGcwuUo4JSpMqqBgIewir5CMDhiGlukWVPjdJAaN42BKkAiqEbt0ACoTJdH14+eF9jUWdMdol8UMFTjctTRVYdqkuXLesrW9e64dfwtpzdp79AloRk8Xu+IZ6pk9Glrd/kyRHAuAtY4TiOJ6sdpFtQSMq6rXExHCRmPaU2nkKjx1OknCgt2qS4j7eGy7jJrT0XJ6NP8FiIJz5nm2gwer3fAPfHtwXsyuyvYtUr8P6mDHmJIyH5CyvGVKgEo4gfNqJnqyBOyn5BykmDM7K749uA9A+6Jub9XPadmcHs9ve6xHww9kNW9ZZ5qb2RDeuS0RyCre8sPhh6wu8fn2A+zbwaP19vrHvunwbuzetKdkMgp8bTnbir2zeyeLZcOPTLHfphlM8DV0b+xc0KCV0dpKqQRSA0C2T3s/DCX66XZNAPcMf/z4N3pq6NUbHJpm7NGIKt7yz8P3j3r++nZNIPD6yoYeTLhO+bU7AezBi69cEkikNldUTDy5Ow+xZRwMzg8rr3jb6Y7YUkyaWkkldldsXf8zVm8H5dYMzi9rndnmtf17EjO+wnpc0UagRQgsKy7bF3Pjndnmp0Jfso1gWbweD02V/8FfXvSnbA0dtAlnMWy7rIL+vbYXP0JfZ4vgWYYdk9dOvywpbt8CYOYTm3JIGDpLr90+OFh91T8b03H2wwOr+uuiXdye7YuGbDSiSx5BHJ7tt418U78N9PxNkOXa/jCvj1LHr50gksMgQv79nS5huM8OcTVDA6P60dDD1vTF0gpuNtbYuRbaOlYu8t/NPRwnE+W4mqGd2eaz+ndudDyTMeTRiAeBM7p3fnuTHM8J4fYzTDpcXyh/+b0fXM8uKd1FiAClu7yL/TfPOlxxOyHGM3g9nqem67O7Sb3zV1mH0rTDeJhV+kZKOM1RleZZpAqdJWaoEkVusnaSMbREQi4PDHjxBE1iNaMxnVTdJVOmWZB1XQW6CGVcQkd1MjJgJEaJAEvWwgwYmwoICYkVMGlrrLcnq3PTVfH/O7KaM3g8XqnPI5vDdxl6d4s6Mt4LPkNMi0zwARchyhRHwWIVejwmqG+XkdWFJWpJrNTahKM8Mun0JcIkg6SLMAUKusiF+OGYPT60jhYo4wBxDB4NEgdIYwAgt64hB1mYaGqQ2CMxzhGQgOgsmqZ+8VDExjlliGWc1TRfjzBoHGxKh4YSe10bMQsmFkVFkt3+bcG7pryOKJ/xjtaM7i87hemajK7y9lm0FXGXyFbHrHgIsgMFKkgZmGVpKxQkzply0RdcblOELBKI6bGhaMzukqXdYrApH6pdEQDxv7R+dKNw1rdIDuUNmkwqIaC3vgyDTK4VqdfygGJF0aJajwwMgQkLOhdBCkzUpFku57IVBcMBoyCzohuPBKMGAMKcdZIoy8jNzqFEarM4szqKn9h+mT0L8SP1gxTHud/Dj6U0VXGqcZyQ0Hyj7kRg53IFYEsG2cc5Qtl54AyrjIK0CQyVWKcm0L9ZdKdtqmIa+nxDK6piRynuMDykiOoBiP01eiajkh2inzZIU8fQRPKnSwj9IIWUKDBCPQIjOiFWQBstbCgHQhAn5d0jWokGD2rUAeciphlQdmsETRtMJhLxJrqLMiaCo9kFmAU5ZAxxAkjqFm6yv5z8KGpqN/MF7EZPF5Pl2tkbfd2FRSA0gCoqDqECHDgKxBCHkJYoI9oikHSVBR9WlQNFjIMnU1GfcJ+1ReGhwJgrbUD1pDButjQmsCErpXshODFq1TQZASDZIqmgAFA4uI1Kowa4xJGDBVTAGR0sKvNYFYjxAE5IMKTybJD7UJVATZBLdoiGEiH4w8WcBUcQkbqK8EKI9GVQB0nWKFZmF3bvb3LNRLlAxoRm2Ha49w18kKGBBfsCogJBIJ8FBHMH9S0yqIkMmI1XKKs84WHTJCONJFEGAR9XK5fImMAwhlpoerLbV4XvMpCEjxYg7XoWhM5scbU5CEGoHqR4EeKBBMER8KLDAYGcS0eCjUwLpWFmgwGV9Fg6KBOpsZBxhFVkxgXMch9AZmtKpPA9KbkGUOjLI1HgXFZZ+mu0RemI58cIjZDj3v0Y73XgmkI3ShDDiJWDq4IRfaDJmeyE+BC1FeN86wwf2GBGIcRXEirJQalI9TRGi8B42LbI6Ga6LNqleAZSQTDS0htoiwEuSkKR0QfotU5QjSwu9AgTqlZk+zorKqADAMB8YydqXrpBZHr7NOoBOwyGMbLCDWSIEjYMTydPjkUKM0CRm7EJBhp/GO91/a4RyM9YzVvBrfX88p0XW7XFrV4HSWMFh0lPGcmCzhYbjxPCT1CBjpMrUMokyl+3cy7Xw5S46wqpLolZ4ALmRL3iOAK77BPwCrcM4gRYRNHiD4LT1tLvXHtKpzll2Q8QabAwjMJBteyTBmMFJC4YBQWOIxqRThEMEUGBYwcMWqcxRYNRh6YAXbeHtIRwI5AobIU5gyjWmVzGCVVBM6EVzRTsVZWRNaIG8/t2vLqdF2kZ6zmzTDtcZYOP819CzfcMQMa6s1rADK+gleu38FLwtzz2mvQhEykWZji+tI4JsOWc6CpgMs1LqRaKZBAsEcEIMIGKsgpIAdak70HkcjIBXtYkBADZESC10QucGfBAOmlHSSiyDE2jNxUymAUcLHuihNGjgAPW4VR7E26GsGmIzCXBIhSUzVTSQBAm9tBGKUgvHeUnCEwRIKJ0kClJHOkEciUlaO0dPjpSFdK5s3Q6x79TO+NrAGQHDwaUWY1DoxAgCV5IEPs4LQQmQhKQY+J7lLpAnEDjWA5GucCnF64a5WjIjzsAdj85ELunRceaKrrClDDyLF+TFmbqRo5jstMhfIZkCmHWyTIecZk0TDCkcG4jFasBXZSHEqXqTBSZASNziCVlsbpcmpfZ5xZw4yQRrJ1cSGzxtTwh1RBrkoIRtk/ELlKDxmMDkY4nDOMUKPP9N7YG+FKybwZXpmuW9G1FQqJvSi6nAOh7nwqHUXVJUt42cSshnZyrdAXdAHqqMbpcokR9gOqoaByTi2wYAnoCGoSxsvYkA0osEzlrIxWjJwBJyuZNZ/l2cEIHeey4JDgK+EojVx1RzM1CVUXjGAndarhjYRdKmCCKJhlqtYF1YTAjMuoBKqozPmNKQuPOhjlcr42onFYy3SkcWzFeGGkwciAJcgru7a8Ml1nettg0gxur+e60ZctJBTBDIxy4Qgyw1lGaFxuHFk4yaYukjlmbVxuHEld8AlatnSUXjf6sultg0kzTHkcPxi4f5b0SjCytJc0AvOPwA8G7p8y+9yeSTMMuSc/1XN97BAT6v6ElPESIv7WSsh+QsoLLZj4MVlokacU9kSMf6rn+iH3pPFKyaQZjs50nNl1eexmSKgqaeU0AgsGgTO7Lj860xFXM9w7/m5uZ0W6GdIILFUElndW3Dv+buxm8Hg9RUNPZnaULVUg0nmlEcjsKNs+/JzxQ0r6yySn1/UN+50ZC+aMlq5cGoGkI5DRUfoN+53GrxjTN8OYZ/rzvTcl3X3aYBqBBYXA53tvGvNM666U9M0w4B7/eM+1CyruUxsMe+euo5j9tBef0V5k/gMKHcXL2I98pyktLGAEPt5z7YB7PEYzNDntZ3VtP10rCmwutnSU5HaUre2sOK9r+4U9V3+278av2W/7t4H71w8/VjTy5ObR314+9vttY8+Vj/62aOSp/x169PsD9/2d/fbP9N14Qc9V53VtX9tZkdNRltFRyj/Mku6Qhbg7nNW1vclpj9EMjU77madZMwD1z+7a8dd9t+QNP37H5NsvOWtPeHtsvsEu/9hQcHoy5JoJeVwhn0fxexS/VwngD4w4Q76ZkGci5BoMTncFxpp8g8e93S84am+f/ONPhn59cd/PzuranttRZlnAO+Xptv2d2bW9MWYzPDN5fGXnFgZNe4INnZB+e4L2EzIeR/DZHaVndl1+cd/P/nf413dMvv2Ks6HZNzQRdLkVv18JhsJKeM7/QmHFrwTdin886LL5Bl9y1v584s2fDD3y+d4b13Rty+ooNX9KkVCmpxpGTQsttGCibj0rO7c8M3k8xpnhl+Pv5HSUa5JEo1Cn6NVCRKiAFkyFeMziQp1ZDAbHURMEqZDRXmLtKF3eUXFh965v9N95w/irJ7w9UyG3Vwkkhfrx9E4orHiVwETQddTTde34y39vv/3DXTuXd1ZY8UOpGDymQwWcjSIgmDLxiKVETbp34CoUYBaV6XikMHQx42H8+hhSPGsjmTWNXMaf01n+y/F3YjTDrWNvZneUi9MCDQXkCK8Z7fzGEfV1gukqY6ymavGYMi4kxq3tpdkdZWs6t/xL/90vOE8OBaa9SiAJO3889I+so4QVt+LvD0w+66j6lv3OFR3lWR1l1nZ+utCljLkY09RxVLeQ6oOR6KaoPpPNaqrToQZRRkGnrDuMqQYsh1WoTAd1BtVDbeS4VlUoyekov8fwvpv+adI/9N1hbS8jzVDM5CT+kMhYCxktEwUSBquNub7RAh/JaC/JaC/J7dj8j/13PjJ9uMM/ElJCkcl5KmcCSqjFN3z/1P6/s9+a27EZIjdBhmaqQamYEZfO0iaBcVU/MRj1ZvXW4uOG6l2jnxF/TYUFQ5q6rOM+tHaU/Uv/3THODF+3325tLzWHIG5PcS6PTO5IOUca10C8rL3Y0l5yQdeu4uGnTni64R5AScZtQOo6RgkrcI9x0N2eN/z4B7quPKO96FTDqEM1nkNdgeghlbmpjhKVAG3xGOcnqySR0Npe9nX77XNuBkPcakpqoCRzg/4ytmcTBe0hTqFgxoniZW0l7Ef1CHJxZnvpR7p23zbxx3m+H0hWnwTDIX5f4bxu7OX3d11hwY3JJNloMOK5IgqMbMocRj2wmi2cRBLFuAiAKxM1rDsKzJdQUIMxO9fpa81XkWAwZQMrMB2eL7djbS+N3Qxf6d1rYdo0Gha3mg+PWI2ea/JDTXokMnleZnGDjk6T0xqzQjUc0aLAfPEpFFjybSXW9tKP91z7yPTh3sCEbwHcFcylPZSw4lMCXf6xfVP7P9J9dRZvCYK56Hx91Sli5jBS5I0w8lkw0kYqjvijfTQuiMFMifBoiYW+SkGxf2nsSKbKQW5HH6c0LrywQ9BvkwIPUjYtZS9pNoy2vcTSXvqV3r0xzgxrO7dlIN2xU5nj4mVtEiwQRNo8GTElg2CHNEqRm8yBT4FNMMJlMSvGZQ4sW+lXVS5hg0yzJKOtJKu99NM9190y8YY9MOlXgqf85ngubaBb61eC7f6RG8Zf/Vj31ZnyLBEdRrHjmMNIisLRQxg5mLJqonwIO5yEeSE47CwA7BAmFGeIcqB9YUpogi/QFEVEC6ogjLRxa6p9ZlPlRlsJU2PbH40W91lKVGkZNcEmX57RXrK2Y2uMZljduZUnICPgoRP3nPr8vgfURLbSjXqo5g9LWPRyVkImotTmRhnPt3y5SlwXsUPZpZntZed17igafrInMB4ML9D7Yx2/Z3HoV4Id/tEfDz5yTuflFtyD5XYAtJCwUAYIxODMKRQ4pOJUL2EUu6ygOC+TnBKlp9Qk+6u8ZIAKAhF5udlySSHSlvLSgHJX0EOGJ7mh8QiDnP3YBlIBzgZsOQQmicdHJBoya9rDq2M3Q8dW0XYAB6TEm4lsORJldAwK2NNynCTPloizGMxCi2NpabjCHZwTER0hyLRLsttL/8F+R53X7leCs2DYolviUwJH3V1f6r0pq6OMXcpGglGdElQgsMvdVBCaEJedY5HTjKxwKDkqa6FXE2HInsFGkiyUTICqqRsiH5fGyalAJsWYI7ghCYANxuKUG6uqr0aCiTBBdjVvAxkVb6T4m4HAhDExlOVFC141iY0ccIQzKfS9RFbCoUYDIZLOVncmNXo1bpmbSCyjvdjSVnxW5/Z9U/sng65Fx+k5BjwZct0x8fZZnZdn0AsGqBGDGugoSSC3FbZrCq6LukgiYk2BcwA79IwsAecTZzOsBU2x9/PzEici9y62XuSJZDBhDqOWNhjpSJzzpRc4xCsFoLWejeLEwikkyalmSpISkcjg24tXd8a8TOrYJuwyskKUGCt0iDSnYTnEhPpkCb86UqEXNmUOeCihBJgIWGhKVMjSXvLd/rubfUNBJbSUbg/ib5KQohz1dH2z7w4L3eDl5gJ7KnBUwgj7OtZIkkacQ2AL4zib1BRXYclgD5Z7s+pXKogOBC/MLG8kpBPvIr5KNBjpWB68jASC0c0iYYRfwUaRqerL4FSzkK1a3bkt5j3DNmhumYDMkPmW+WN8uMeLXQqJS1fJsCTdmX20ACGyt1TkWtgAcPPg6UGqlvaS1R3lN4+/7lJ88/YZivg5Op+aQSU0E/LsGntxRcdmDh1HLyqM6n6M9FXfCyMbnL6mtJR8PyIsZM9a5FUZr5FkCNfRUIiXFSnLLoFUDlAXUpY0IGyUDJHGhX2wAxs/xGZuHIPndtpKVnfEaoY17J5B7hxyn4C4tbmBRfbKLkkxIAkN2Q/ExRzPSp7Esa+wlQk0wp2wKYxb20r/svuag+52t+I/PU8IumZTwooz5HvV2fDRrqvYm9YCQJUxsigwgjUSChqQgV7Mgig9m5X4A9159eUgPaWoa/mOxjmjNy6ubdRNUMYmqC8OgcpgXKSjNpt69c/j1LIR7GhSk9fe3KnuDT4eZDyXSfwGGjPkMSE0XFBTEv6YaRYHTwkFFp9YKGAVmXOUeW1wXBXMjLcVZ7eXfaf/7jqvfQk/MtJxPc7DgBI87un+e/ttme2l6j4NVIa9DF+1pWRVELBzAWR6ftZcwctmE5YF7YQFRl8+gtuzThDGkQCybdg4dCBQiJ+gmAuuCa+4vcqABQlhG0VHqppgIyYoSKhjI7vKiOeeQbSmoLLwbXhSxMahleVZCTSFvrrlk64Q+gx91tmQCXuVaMq9AY0saytZ3r75fwd/PRycWeAfqYiTvklXU8KKPTD5r/33Lm/fLPrBDEZaHS7zKmARedHZOKkRnBMEq0SxpIIkCa9dSUarWk2snbAmmY3jeI0kRkSDaTmAfFMdsQ0Ul2iMC6KLFoIpIJjQ17IRnpXFcc/QsZWvZ2QFQW75jLLgRuQPwMlBEagIXb9PaEzx5IUpTEPaAXcwm9FWkt1edvXYS46QN+kcWmIGp0OegqHf5LSXYT/Qikg8eU053XlFsKZAZUlHyXtBcdonsugqGdgsK7fqLmpNcaGqb0pxbAYuABsxC96fwEYRuSYdziVQRnfqhitnY58Z1rSzZhCBClDUvmfotMMhCwLAIvqycWGfaC1exoRi3DZQE0Ln4coloCZwFMaz2sr2TrzpUwJLjLgpSsel+PaM/SFL7MT84kcWC5EX5MDatYrq8BqpxUJ9XimstVSWNZWzKmF4TUt43WV7SPJJ5ohxvpYTGq21CjLIYMQlAwSDJyjVqWQXMWU0Ltkr2CgP20pWt8e8TIJm4GwWQXArLL5WtgdkAHw8DoiPjfDrPJkDh4ZbUPXFqVBMIdakW3jxABduPLd9810T7wYW6ueuU0TouZhVwmG34r9x/NXstlJeLwEpqQKjAisWR5jXixGXlYMWFKrMawqakoiwDUsOkBMImmKavPRihOtIhvCmQgpBQwJHZU/CcmMwsK+LyAUDectx2VSfc1KbqeqaIbMm5j2DODNAPnIxJMZSagE4OKbYA1wNThRMRybGlLmdZa2qPuAumoEqt3HjrN9YkivbK+6d/PNp8tbyXBpAt5b9zlDId9Xoi1msHwTscDZQi6iyXypw2EXt5L7G9PmJhY3LiwU2KGskC82qDMZBkK3FN2nGAX4xRmst9YVHeggEo8rILg0beUiSYGhHk6lGX2bK2CXk2GeGNW1b0TSwWT2kQUO4LYL6qIOeYIQ1g0wMdVAwTjHgWotXtJX/dOw1t+LXVTp9GA8CSlhxhXxXjjyfCVWPVSPOb1JHrm9aGllTSSy+OYrlknk6AkDzYMUz4gpG2Dcqq3Yk/TRxJmS8tXhNW6zLJNEMLWyfZr7xFUbwFaaoGmrSKdRHAWdpk+BsS3FOa+n2kedcIV88hU/rmCKghBVHyFsw9JusllJWQSwNClgFRB62LTzEVaBppi8so00QJE3VWTSFxtEacgCnUKA6aCFR4zQ2tCwH42sGumx+5ayWkkvs+8aDTtMapwfjR0AJK8PBmb/ruU3th/ktpb4ZFp73hd4MH++8xh6YTL/BHD/po2vaA5Mf77zG2lKy8Kk5/xEu3GawtBS/v31Ho3fgNP/QUXRyz2L2bVfz+e075p9qC9/jwm2G7JbSR6eOBE6P30yYBadnvSSghG4bfyt9sWRszgXaDFktpfmDjy/2X1yeNV9TvdAR8v5//fssC++q3UjQ+RxZiM1gbSn5cMfObv9YSj96FAorHsU/FJg+7O74o9NW6e4cDs542Adg5/UOhb8P4B8MTB9xd7ztaj7q6RoNOngYKeyIUFhp8g2+r317RkvRfLJtgfuKpxm2iByaEwGuuTgjkn4zf7Sn25aYvhhf27blZUdd6kiphJWpoPvJ6WOX9O/7SMfuta1bVrZWrGvb+rGOq3/U/+CzM1UzIU8KmShNB8PsNxAem6r8d/t9F3bsXtu2dWVrOQuj85pL+3/1u5lqVyiFv6ThUwIPTR3KwSetunJEOoxUU1N9WdB4eyAh/eYiJIxqP5KF+Ni4pm1LjF/uWdPKm0Hnm4JCI8Bxqk+IrkkAQ2TKotMyW0q+b783de8qhMJKu2/k3+z3Lm8p0wZTlNFSZGkpXtFS9l/9v+r0j6b0xj2gBJt9Q//S98tspKMWxtyWsh/3P9TjHw+m5uMnSjjsCvm+3fsL9WJJloDBog2GsY3UiB+SzY7qq0a0W6eOD9A8KgGINTEll2sikYFRjyI2ucNq9GXDUO+gjwFgGzcXr2mNsxmYCYmIPhSY4tGgV9ABaDTxgZp8VbED48UfaL+yxTckd88k/6+ElVbf8Ic7dmbCs0UITLxK9FuKM5tLvtB1gz0wmaJ+CIWVeq/9Lzuu0nJOD6Olpfji7p92+8dTFEZQCR1yd+S2lLF+oDXVyxIZUVNZO0Ij0R5GXgIf2EJpBHwhF3FcGOf0jUYY7p2ykRoU4zwdJmMzQII8hsjG42mGrQIpSEmkB0HL0BEmvcC3fHVQRqOOyIjZSJG1uXjXyPMp+gCSEg7PhNjsh5QAACAASURBVDx/33OrFbwjWBgMgdLSXPTdvrvdSkre9p4Iur7Zc4fYa3niBGHJSx6Vpbnokv597334NMm7gjQXDIeKh55kW4M+DGNlcUQrmMNIdUCWI4nqY3XMBTSuY5oGRgkv6shV2mDWtMb8OEbrFoMtZLDWusY0TCH7pXvWS7iKRswGL2jfZfMNykol+X+/Evz5+JtWtZkjhSTCszYXPzpdmfTOfG+b3zP6h2xxakI0MBjYd+GQ4ZPbUrZvcn+SsZDmFH6OWt1aLi+EoLIYlTwJCCKScdE8AitZ0wiHKjGIAhtEIlG/KOsEyhacAoJhYCjoYJTjGqckGJ5gPGeGLdpUZdls0oGKC4RIX6k/1MdBklJzkaW5+Lbxt1L3uwrOkPeznddaeNoyIwyAxoyDRR/ruGY4OCOZk5z/x4POT3RcY8GejAWjpbn44q6fpu6ePhQOFQ49wW5dmosybPwHYxPblqy4eqgbQcRQiKAgkkU1EOirjiRIFRRwLWoaR1AZw6A6VEYFJsTdDJAGJqOWkMCnm0VkbcS9yUJh4ZzWba2+4RQ9RAqFlVqPPae5NIMFI+NRgylmPIBiQ9j8cGVLWZWnJzlNIK1UujvXtsD+QpwCEYGFIhJ19tzWy9t8I9JA8v9v942c37adI8CRwcI18xhYPFLAKR2MhphFX2nGdbBLm2BcRUAWAsokLPBBlEHQGJer9IMqjLLEMCKDwQ63FcXRDC1b1MRULOQugtSJJOB+E0mBjy+zFZYNPZ2ia/RwOOxXgvdO/nmZbZM+l6hRWWxFv5+pSe796y8n3s1tLhOFieodQ13RUv4HR13ym0Ba9CqBH9r3ZdokO+OLCsM7xUJ8BBNB6vY7baZrWmI+TTI2g9ZEUrBY01LR7h9JLu1krdn/PiVw1ciLy5oSa4YMW+G+if3Jfbh55fDvs9kJKu7dxFaU21z24MQBmk7S5T86bWtaKhKKaukpL4hmsNiK/6nnzpT+7o5PCdw4+sqypoJES/jrqcPJbYbrRl/mV2sJNMPy5rLfTFUmvQGowZmQ5x+6b00UnCWmv0CaofBXkwdT+pm8gBJ6aaY2w1aYUP0ybcXvulqSexvzu5mqFc2bEwpjTUtFpbuTcjfpciis7B17w5rI+SqhFBaF8qlvBout6MyWrf3+yeRyTkcXJRweDsyc3bItoaqc3bKlzTesMzXHw27/2Pmt/G41buZ9tH3XSLIfahmz4Hf25Qnhs8SUT30zZNpKftT3wDx854VH8f+w735L3BRcZiv8D/uDSf9giEfx/2PPnda471YzbcX/ZX8opadNaAx+pXTbsgRPnkupH059M2TbSh6aPJi6W2fcAoPh0HF395rmckscRLTYij7QuqPTP5b0wJRw+LC749zWy+Ok0UfadjV7U/X5FAQHHrjdNf52nFEtSbVT3wzLm0urPb0pvUbCkgeU0F0T7yxvLo1+frDYilc1b75/IlXfTONVAj8fe3M5PGCNeqZa01z+8OShpL8LjoBQQQkrle7O5Qk+6VpKXXGKm8FiK7qgbedMcD4+Mg2F9yqBm8deP7tlW6TH6pm24nNbt/1i/I8p/WNwrpDvxtFX1rVsiXS9ZOVh7JvYn9KHbLQZwuFwj3880fuZ07IZmiI/CjSdMh20FWU08R+5HWbaii/p26crSaoP/UrwoKv9y50/zbUVZzeXZtlKMm0lWc0l2c2lubaSr3T9rMbTm9zHqaYZeZXAQVf7Zzuv52GUaMJoLvnbrlvqPfbUfThFCSvwp6ZD/A9Ow+tU0P133bcuaypkZZI1EoK2cJpZozIUWmcBD5Oij9Z0QkLGtUkleGZoko8m0QoKxpjYVAz93OayfROp+hSaKQVxcDrkedfZcv3oKz/qe+A7PXddan/wZ6Ov7Xe1zedXGsMHad922q4beflS+4Pf7fnlf9t/dfMYC8MV8s39N+6UcBgZHwyHgkoooIQ8in865BkKTLf6hhu8/TWe3mOe7hPunjqPvc5jLxx8gr01iZSiAtSa1hSKjhxAZWwGOgWzwghvNp0+m4pKGKrPXBRq9HGr1ampwUQ1biuKoxmat6jbuchE7hywhURKWA2OB4EoEP21LVtqPL1I0HkWlLACFAkqjCghvlnOcwzhcDiUmjCCSmgoMF3l6XnZUffL8XcrBp/5Yd99X+26+S/brzqn5fJVzeW5trIsW4nVVmxtYj+ZtpJsW2m2rUSUm3IXmEepT0tvVlnRTmIqccJQ74Qw7IxED5kcwbjaA/JiBIMRRvhCYi2+ZqCLKSIYmXCjC1Q2IqqhIPU/0LrDHpicf/4tSY/BcMgR8tr9k686GrYOPfulzp+ubd6y3FaS01SczYmeyUlvaSq2qFSTTMLSCIEQBTdaVjVS00atjqwpaYNIxiVPYInKKGmcmjLKQj8+4zRTWKjPVA1mTXPMzyY184+s6GOCzV4LB3MD47Jf6SqYpSNNRRe1Xz2R/ra8ObSmwj92NRJwPD9zMr//8c933PD+lu0rbeXZbL+HMmtrxAblCGOzlNVxOiItiNrx4qo9AMt1+vJQVZNGVBcq/yITBolElbmMbBYJYkbSNYwjG02IZ8bepqI1zRWxfge6uUI9bzLs0KUUGgsz9JljAlRfDpIaXNx5U9Lf1ZoDtRbNUvhqjw7f6GOTR9b3//rj7VevtJVlCnKYcZTUyNpUlNVUlNNUnGsrWW4rW24rW9G8mf1wOddWkt1UnNVUFLuXkAnEOKGKLDeqoRBNnxKGEEzlPZoFQepQhbjYKBeSYOJsBh3dTQxJFPgUccDHiT4i0lSU0Vj0je7b5+ch+qKheaxA/UpwNOg46GrfNvjsB1qvyG4q5jsR55AKOzu0MNIXL7eVrWve8qHWKz7Vfs1Xu/Z+r/fugv7Hrxl56faxtx6ePPTs1IkXZ06+7mh81VH/wszJ306f+NXEgVvH3tg9/MKGgUe/0/PLv+n82SfarvpAy/a1zRW5TaWZcInFigg15cSg5ANZjURHWVzIxxuLxDYaSZ/sm4xIjbITqEeVUcBSSTamH5WNahYimDiawVYh4ebW0YG6Dxm8Ch0YlwGBPqTNFAotjYX/2fdA+i8UxuI/m1fCik8JTgXdv5k6+rmO61fYSjk5OLdUSIusbFNnNwkrbWWfaN+zsf/RRyeP1Hr6BgJTk0GXJ+SP/09lK+FwQAm5Qr6JoMvunzzu7r5//E+X9j34kdbdy5tKs5tKsppKrE3FYhMUbMbekIxElgMlGAcIH3BWDEqCacZRX+7InDwifcE0OQX81g2KwwhsFD3DLMTXDE2YJEkG2po6xhxAYFNyJ6Bq0pq1sSiv/7H5ee85HsItTB32yEsJDQambxh5+aLWqzKaCpfpcS6yNBZZGjetsJX9TcdNu4aff8VR3+4b8abmj305Q94m7+Dvp2sqBp75TPt1WY3FFn4WEjsmLTTKQLiYhIGWkPQwoTsYVBUIu5ByOkG4pt1itnfzVfE1gx592RvCsbahMWchRJottDYVFQ88uTApuECiUvi7wreMvn5+83ZLY6FFg23RssbCZY2b1jZXfLPrtltGX2/w9vuVYDAMz4hTmAG8dxFUQp6Q/7i7+5qRF/9P589W2TYva9ykvzJhDAECUBoQmZEVD42asBwV5FkC20wwkBKSKGvUYhufQzNAzzVgthiQjIY2pSYsoZnZWFgx+EwKi7bITU+F3A9M7P9gyw62+yJjJOzZTSUXtu68duQPvf5xd8jnV4JJ/0xhPPiF+PWbK+Rr9A6UDTz9gZbtmbpQka8ycsJ+YIIkDC6EJaivIZJU1gxK7jE26n4i6JsZX2OL+TSpid8zgA/qzEQuyqCDjYX8UEZDo+RqmY1FpQNPxYP4aaXDbw8Crzkavtzx0xVNZdZGQFXAaGksXNlU9v2ee15x1A0EprxKYIFcZ8IDrh7/+NNTx7/eeWsua2Ad1wlNBU/MuKFrCUob3ZSObKgZbdzMo9SPuxkagNnkFUzQV8F+nrN0IDoVD8EOP7Q2Fub3Pz73Dx0spVbxK8FO32jZwFNn2rbINhAcsjQWnWvb9hP7w286GqeDnnn49NTsgA0qofGg83fTVf/Wc886W4V6TkMOmPKEzoICHUFZJ5ge6gapO2gYI5n5+JqmOM8M4ED3yg75vkWt63TExsa7CKe4YGko/Enfw6fk5D67Mqd0FfzZtddmGv6y9SorxbOxMLOxaJ1ty/d67j7oap//7wmfXdZKWHGGfC/P1H2tc+/Kps3iLEEJg7zUCZEJwzZWoBBdgtsrNQ5qWhjFdYpxSqrF0Qy2CmYlkgkaik6H9rdOTR5+r/vuefgdt9mVcz5XhfgfINw2+OyqxtJlBEZrY1F2Y/Hn2q477O7wpObpUErTVMLKTMjz4szJC1t2ZjUUWxrI1mkkFRJG0kMQjx6ijlGgamgc1LB5CLZG4/FdJhndJGnkKx03e077P2gLXwz+jc5brVquWBoKz2++/Jdj74wt8k+sKGFlIDB1zfCLK5rKLElijpHKcx+J48zQJM8MKUjjM23XTs/LH0NI6f43F+OhsPLKTN2HmnfoOiGroej7PffYvIPxv002lzBSvVYJh4Ph0GFXx9937s3U9vzcSZwsC6e4GS5svmIokOQvM011XZNo36sE3vv4w4rGUtoJloaiNU3l947/yRXyLbG354MK+1ztlUPPrW4qSxaDk2jnFDfDWU1bW+blt92TyOBkmXKEvLuHXljbVE7Lmd1Q/Pm26464OnxKcIE8M01WvmCH31h733A0fLD5ioyGTTT3Uy6f4mZY0VT20kxtcuFe+NaUcHgi6No99PyKxlLKgNzG0v/u/VWvL1V/nWThIONXgnUe+z913bGgLplOcTNkNxZfMfjcwinS/EQyE/LsGPxdbkMx7YRVjZu3DT7rOG3uoEJhZSzovLT3wZzGkgVyV32Km8HSUPT5tht8p9Mfe/Yo/m0Dv13RWEI7YUVjyb6JPztDqfoLPfPT5Il6gb8rt23wt7kLox8SaYZ6+cZZQ2EGlSM9ZYpHp6FwVWNZt2/sNHkfOqiEbh59fXWjvH2sL7Q0FK5uKnt08shp+4jZqwR2Dz2f21iiIVVM8lAFKsfDxgj6cTRDY0VG/SYWKJpgMr/1YeMwhQJXA2WdvqrMl4OR+sKc+qJXZupOh/ehQ2HlycmjuQ1F4qqgvtBSX7iqsfShiYOn+W84+ZTANUMvZuMjV8ENSiqQkWzR2YgES4yNaxpjfRxjbWM57wSMjAkWbQ9Y6vhsQyEfRwXNEnZVIPphE9dnh5b6TdkNxVsHnlmwn7RJ9NQfST+ohI64OtY2brbWFwk8GwpzG4ofHN+f0m8rixTPghrnfxned+XQ77MaioAkhGBImwiCyjpQkCRUx4GuckMH9urZyLi6prE8xu9Ar20otwj2A7nFK/BetIGG5Yzr2BVqA0gdHMmo25RRt8laX/jJ5mvcIf8SvlJiN4sB5xdbr6dwLW8ouXnkNfdpdp8QqQmVsDIZdP2k9yGrJJugEOyzQB4pUxhVOtXzTVbqsK2Wy/GzMb5mqJNumFCQwQ+ZD85m1SWfEkGIqQLUAX04BB00lV1X+LbDtoRPDhNB1yU991slYhl1m3Lqi9f3PZK6P1sYiXMLeTwUViaCzv/XeScCpXKGM5sRRghsG+U8jMJGroMdwvRVNmo4LI2vjevMYGC/jLLAUgvRFFi4J3WcFJ4PsjiA/SyOWjhk7WSp22St21TQ91iKfk3xlJffpwQemziSW18kwdmUWVf4zY5bxxf5J45SAWwwHGrzDX+seVdmXSGDi/OEN4CGMIgk5TToyxGqr8raWTZO2bi2IZ7LJMljHoQ0wdgPboQAnvgr6gi64yBfop+11m36qO3KmZBn6b3nqoSVKnfPuY1b5WmQ5X5u09Yqd8/SSzYp7REKK286GlfUF7Pzg9g0VYLREwKSig9GZ6PxBAL6uIp1xZp4m4GdAdh5gJ8K+Gstj7W2IAO3eehjkYPQx0BZ6FwZzlZgSrQ4W1jw64l5+u71pNQsTiMexf/fPQ/K8ydDILuu8KnJo8n94Dr9TlX+JZlxRjd7NfwK11R8J+d7F8x7hl7MqS8WfOP0YNuouAyBJkE2Ag/5thsnG8EOkBnYy+V4mmGzGhNpBjYIZwYQ8JXrAO/FQugiVBYL+XKi/Onma4aX3If2npw8uqqhFAppqS1YVpt/Sff9U0H37GlotnIs6DzgbHt68thjE0dem2no9I2GlBQ+j/AqAZt38A/Ttb+eOPTbqeNHXZ1Jv/mZDnr+b9vPEDcgEj1kWzCyUUcwPJQ6JmykdJX6a+s3x3qaVC+agYZilGHjFx0CQYAPEpBIiY2IPiYjBTl1hX90NC2lz2mOB52fbdkjT/cF1tqCDzdtHwnMJOtNFSWsuEK++8b+dH7Ttty6wpy6wuy6opy6wtX1pet7HhkKTCf9mURQCTV6Bv6165cr6oq5u8Kc2sLldYWfaL7qhamaJD4ZU8LKAVfbWQ3lwKgMspcLzlB2UZnzLQE2srWCjWsb4m8GU1ob4tD0iemSSIN1Bf/Q8fOJoMts71t8Y0o4fO/YuyvqSrDhrbUFd46+laz310JhZSro/kHX3Svqiq3ykhV9ZdcV/pVt5wFna7LchcPhoBJ6YqLyQ43bs+sK0REImbWb1tWXFfY9nsTfTvEqga39z2TBVXckzsQcN/Iz8pI5N0Nk0zq84jlcXlf0+MSRpO9n899JSjhs909+sPHyTEnTrNpNf9N642TQnaz75vGg85Lu+9C+EV5rbcHHbDuPubqSciIKhZVXp+vW1pcZGw9dr6gr3jnwXLKeCirhcKOn/4KmHWg/1UIil0lJ5b1pYtbagq+337IEnjmGwsq+8T/nkB00t67wt5PHk8LLMPvix+BTk0epfVM8M2s3/XvXPc6Qd47bgcLeAXB9rnlPlN6DAFbwt4yS1fA+JXDn6B+z5IZimmMSBxdWM1hqC5bXFd00/MqiPjnAhzE/06JSJ7N206ear07i3wSaCDq/3HpjRm1+TCqsq998wNk6x2YIKKGHxg9YT8Z2l11XeGn3viQ+K+vyjZ3XsCVmmklRWHDNYKktuLDpil7/+BzrdwqXB5TQ76errOREuqqu9PdTVUkM6bCzfTW5G4lChazaTTsGfjdH1x7Ff2n3AzSjSB6ttQXnN26bYleDyfnnVQLXDb0UT9tHCin+8YXYDFm1hf/Rvc8T8icHznm34gn5/73rHkqdzzRfPZnUBwPPTp7Iifvi4Ydd987xTOsO+f6u7WdR7hYo4d47ObR4h5J1QaiElaHA9HkNWyme1F0S5YXYDNbagty6wscnjiQL0PlsByWsjAec5zVuweJl123aPvBscnN5ZvJYnM1grS34t6575t4M/7ftpjibIauusNHbn8R8+XlpH+KZRPbrTC3EZrDUFmTWbvpQ03b2RSnh0HxSee6+/ErwkfGDFnI1/77GrQ2e/rlbphb+5GheWSfeoNVVVHeYVbup1P7EHC9aPIr/37vujacZrLUFZzdUjAYcc/RIkw0qoZemT1pPinfZdAkm8XCBNoOllr1F9S8dd04HPUncYyjEKZKng+6vt++l17jf7fxF0v9U12Bg6lPNV9OWi8SJ1fWlL0/P9SsX/Erw9pE3raTDI7nLqi38bucvAkn9PV7+6W73X9p2xnyWFSmqOMcXbjPw80PB5f2/dYS8SdxmUtQDaLbDN3IOvG/Kb6Azawt+Pvz6HK9S0DgKPiVwx8hb2bX6N790VbfWbvp6+965vxEWCit9/okPNW6PScfcuqJnJ08kff9678uMy/qeML7Zp8t3jocLuhngSevTk8d8i+RrRpWw8q6jOZvc2q6sK37X0YwkTqIwGJj+TPOeKFfS1tqCVfXFr83UJ4WaobDyyPjB5bWFUS6WcuoKv991tzsFTz5CYeW5qaqY76ss8Waw1Bac21Dxh+napFQ0iVw0NeVXgntHXsdrpIza/E83XzMUmDZVnuMgfEPrxS3XW/klpY4H1tqClXUlT0xUJvHjGD4lcOPQy6vrSowdaK0tyKot+F7nL0ZS81FLJay0eodW1BXp0kzu4UI/M8DNw0W23cddXXNkzzwsd4a8P+i6mzbDZT0Pp2KnhFxCYaXfP7Wp77Fz2dtS+ctO5i07mZdxMi+3rugf2m/5k6M5iW9+gUe/Enxy4uiXW2/IrisEd8xjbf4FTTuuGnw+pb+R4g75/sq229iHSeyHRdAM8HDpY7adnb7ReSD0XFz0+6c+arsSP11sqS3YN/bnpDOSRqiEFa8SGAs4fjNxpML+dGHf47eOvFHvsbPvaVVS8iAuoASdIe8RV8cNQ3/I7310+8CzL0zXjAed733DRbI+hUETRFkJh/+39+GYt0lz6Y3F0QwWdhYuvMi2u9HTn1LEEfrZCTXu3rX1ZViPrNpNf3a0zkPASlgJKEGvEvAqft+8/HG3YDjkUwIexf/etx4FlNA85BgOh/eN/Xl5Kq+UFk0z8H7Y9OXWG6vc3Snda2fXBrDq5ena5eQJz+q64gaPfS4G02spAgedbavJXoObTrKExdQMkPOnmq+u89iTeF9I4Z6j/Mj4wSzykaRzGyq6Fvyl3RxTns/lnb5RfneUqnffFl8zZNTmv79h6wFnK79Inc9axPClhJU7Rt/COzx+W3nFgH8qxrL0dNwIDPqnPtx4ebLOA0Y7i68ZeA755zZU3D/2pwX1XXTv/Wr8NYMvIMQZtfmfad6zBH43I26uplxxNOD4q6Yr43nfHauQkJCyZkjokyQnCywJ6ltrC1bUlVw58LvpZP9y/axLGlRCO/qfRfQzavMvbr0h6b/7P+vwlsDCiaDrE7bdiHACQnzsirsZjOZwxJTKOAvX0KiDArm2Zp1gqg/juqlaoWytLcipLfxq603t3uH5eZoRnU8BJVRuf4pViAe87GT+19pumQl6oq9Kz8aPwFTQ/Wn2iSyzewYkiZFLsiKahaCvVY6jGeo2C7LS9ULmv/qEFpG7EYV81VREHU4mNkuMR1bOOrnpr5p2vZuCN5jiLxJoBpTQZvuTLGwebUa6GRJFMJY+awbb1Yiw2HdUbhB2QQOoU3K31YwQfT6+ti7mt2OozUAW14CcbwGBvqr+iD5QRKwq4KvyZVZUjQetM84MojLI+Mr0rTX5n7axTz2c2o9sBJXQVvszlhpo5vyMk/l/3XrjwrmKi8W0RTA/EXR9smm3JAOhTQ3wMBIbJVf1zJQWGN/YTxzNUFvGVIU/yUI4xEFxyFleA6+4hLvEbsGFqk3UlE3CdLgjuuqkwTiMiPG8W0feOLXPW0OKctXA8xwoFmpGTf5nbXuWzDffLIReGQs4/qrxSkFFyWB2HkZSUUEQjM5yWU8kGOTNUBv7zFCmOqvOt1RL7lKm0iBoMzBlEk2kuGG5TlljE50Sa0R/WXXev3b+Mum/NpAQA5Swsnf4NcQqoyb/o41XpuhTegkFtmSUB/1TFzRcjggzKs6OjbDKwMY4zgwnyzRewRDGgdHQcTpIx438Bjs6/UjGa3jyOAuH/HVZdd6lXfuS+I1usyPQr8b2Z5Lw3ldX0e0bm52p9CojAuybMuoqTNhImCBaRcco3G0jsZGPrz1ZFuvrJbEZkLgLT8io2virsQOn9jIpHA6/MFWTW71JVKs6f+3J4ibPgLGo6ZHZIXDM1bW2Vm7NKSDhEmmGVSdL+nzjp/wB6zFX1+qaYmyG7JpNR5wdi+jX9GbH0Xlb9fDYgeU1RQhv0oXYzbDuZCl6tVblWarz4RUHqaCfiq5flW/hCmBBv9bQ+joFOLRW5Vmr87/YtGfu3xs396L2+ScurL+CAvLo+KEUfZR67tEuOguFvY9lkxMvI09Vno4VFHzdFBKG6lA5djOsPVlGKStkILGW66rvKnJxT+gO0YMFpkyM0JjoONpEQcxCq0AA1fl53Y8k6ys+50IRR8j7/9puz8C8qvKKex9fvF8ANRcokr7Wo/g/23SNldRdw5lqubFKvkUhjAX4SXuJN1XczaBtQfDEdmWgI3llIeoO6YiMQLMWG4OnKtKgxqUszktVmrOTtWrjY+OHZ/G57hD/NYBA8n4BwKcErh98SWxXVXkZVXlfsl03FnAmnRmnm0ElHO7wjayoKRTsAj5Q3vMRxhxJFcEieSGDh3hpA8qSUYzJsZthXU2pbhmsBzaDD8pslLErqD7rE5EJI7RQxubhLYvj0Y3DrKU6f1VNcRf7s+rxXpwrYcWvBB0hb7Wr5zfjh58YP3LS3eMIeTwhv18JBtmvqszyH/sTTNMNWVUFiNjqmuIjzvZZmksvkwiEwsor03U51QxYwRnYYSVz1HFU4Dumqiy7Qs9GGGe0zF9XUxrjaRI0A1QXXeIhMNs4jgo4ZdTEKaMgG0ZkjgpoBBWyqgr+b/NN8T9HCoWVmZDnZ4OvfLrxquzqgowTGzJObMiuLriwbvv32n9x8+Ar+x0tk0FXQAkFlRD8jaaEeqPFO3TWSbZ9wE9mVd7dI+/E36iy+un/NQgEldC2vqdzqguQAIhwdAH1kTCgj+N0+dqTs20GasVUNvVnqjmLQTSeU73p6v7fx3mT6gr5np04/vnGazKr8jMlX8F7ZlUeGzmxMasq77zain9uvXWH/dknxo8cdLR1eEemg+44P+sxGXT9n+afWqo2YlL/0XFv+rZBQ+3ED1wh36cbr8qkm722fIh2JAEJE0nBWpWXwJkhipVTOJVTnf/adOyvBvIpAZtn4Bste3OrCrIIpqaRZ1blZVcV5FRvyqkqyK3KX1Fd+MG6bX9tu/7HXQ/cMPjSw2MHXp+ur3H1NHsGu3yjdv9Ev39ywD/Z75+0+yc6faO7+3+fcWIDWv5w3eXpt94S57+6IqiE3pppzEqQ/Yh//MKib4bVNcU97IYh4r+AEuz0jW7q+fW5teUx2yAKcLxD8nOrN62oKVxdU7yupvTsk2Xn1Za/v3bLB2u3+hmUbgAAHhxJREFUfIi/fqB2y/tqy9fWlFA7udUFPxt8JX2lFLFCsSa8SmBj9yMU0hTJi7sZsqryv9b8s0g3DKGwMhKYuWPozU817M7hN7UpAjG62cyqvL9uui798dVYnDefV3gRL6y7XHdZGx3z2c0u7mZYXl14+/AbRhRD4dBU0P3GdMNfN11/CtsAS7KupnS/Y65/PseY5ukw4lMCtw29YTmh3oMhqkkXFncznHWyzKb98E+If6lWl2/0X9t+sZw8iUs6cAkZzKrK/2rzTQvhbcHF1T/870ROXFB3eTy3vwlVxFR5cTfD+2sr+nzqH7wKhRW7f+IK+2/PObmZPs8xzXyeB3OrC/440xTnI6nFRdnURRtQgg+N7p/LnV5CVV7czbCiuvDO4TfhvefpkOeh0f0X1e+0ntg4D9eXCaFs5Y+n/rn1No+yWP82V+oYH8Vyp3f0ooZdiUI9a/3F3QyZVfk51QWXdt5/0+DLn2zYHc9j01kjNfeFWVV5T45XJvcPeURh0mKfeu97gK7pfz471nPwudcFLcy2GU6Q94ZNZTrI3syS+ifMZDpIlSPJaI2/U5ZdxZ54irMBTqFNHIEH1fTQVKaDumfbdAplFHTRGg4zq/I+13AV/0uYUR4FL3YOJy3+GlfPB2u3MqZShHUVmV1NqUEix9EM1aUsmln/QDKUmlFMYW5RdOhUQsYhbVxO1+IgFeYSDLVD5MwTeVv6nloInzZPGmdTY2g66P52623stEDQM5dj1pFaoMpU5jrrqmN+HAOa4Xh8/QBqx/OsKNBQdDJVi8c+2oxTGfV1fk0PUTke4ydIgnHqg9Pjeaurit6abkxfLEVpooASun/03ZXVRebsR/BN60gHdTWNVak4mqGKnxmAuJS+srqM90av0fXpWsiN6usMUuNR1NDOrI2jBfRiHKHBmM7qFDAYKViO511Uv6vTO5J+T9q0H0Jh5Zizc/WJwkyEF6CDQwmjYJ0ObWPh0IhuCu2g2eN5cTRDdanqGC0e4w2Ah4kK0ZdHnzX6iqJvxMK4PPpIosaj6BNH/9Vx/yn/+gJTLp7aQSWsDPinvtCwJ+t4vgnrAEBjTePDXDUYQT+OZqjizQDrda94eCzPig5AxsPj2ik4xFlTC5Az1aEyGsS1kfQxEqpJZWMwNBF0pBNoMKiPgzQYnEULUi33xKar7M9F+iDJqWXkKfTuDHl/1HGf9dhGQVwslsRN0AwPEVidgArIAVSgUzAoR9ZVxbxnqCplEcACNE0FtKhT043TJSjH1NEp4CEKaErnXWYYLXidETxEIYpx3ZTpIbWDMhcyj+Wtrip+ZuJY+m047D1nyLu196nsY/miZAgpQocjUdhIdaiaqRGqcCwvjmY4IZtB5yZ9ODcEso7ln1lV+vxEdZy/jIGkWZKCO+S/c+jNlSeK9J0wN5ATsrbuRMwzQ7oZUlaPrGP5H6rZ+upU7Wl+veQJ+e8eenvNiZKEuJt05XQz8CvAlNE9ZsEyj+V9qGbrn2daTtuP8blDvgdG/rQOr8ZPXS3SzXCKm4F3y8azq0rfmKpfaH+YK9XXY0o47FUCdw69ufpEccxdYx4U0s2wEJohz3ps41lVpfcMv72g/jBXSptBCSuukG9n37M5xzfNA9HjcZFuhgXSDCyMFccLd/b9znEa/LEfJawM+qcubb8/89RdFBnbI90MC6gZMo/l5R4v+KeWW3sXwPfGpu60EFCCDW77RXW7soxPUU9pb6SbYQE1A+xV2ccKLqrd9cJEtVcJLL1Pt3qVwONjhz9Us3WhdYL1WF58zXCUM+boRisIx/JUAVsZp2DkaJ716EbjmUiMsFnJQmHcMIKWwR3qC/uRjdPwdKuozShylMiNqygsJrOGvKi+MTw5ck7V5u29z/T6JpbYR/renG54f3WF+dWRzN2cNjgLQnwwEr5FJoy0HE8z8Ke/lB9AdPWV1PsYd8msE99AfaoPpEE1Zpzq866DbGGt0JfGaTCM+lRf2mGDoC8FdEojkUCorRvNOGlgWAimsAd0llXjuFCGhxlBnJCmqs/Uso7lf6nh2ten6meCnqXxRrVfCX635U61ExA9FNQaQU05tVRYEEYpxAEj6wdaU7VGxAXfQONohuOlbBcXP5xYqgzjxKiqKadgn9ZRU68mlSnDNBTHALig2uSgMGvAe2wMrb7eHQ8YMDKdAoM0GBV0tEyzprBgMLpBXAhB4vIowTDNVccL/73t7gH/FH/wurivm5wh7xfq97BiUdhFNQEfOhWzpnKb09SLWqCY67gBapoarTse8x1ok2bQGUL3KKBjcGZ81RECgcDgqICzxtzQYxR9Ux0YpFPoBaeoTRxENQwG1FAZc0eBTuFyHKQCzlLjzM77qst39P62zzfOvxd5sbaETwn8o+1W0gyIvylWOIvg4wgChehRCzirh5G71llTD+NsBnCJr+gYBdUib3rUxFgxDaqpkyMpgxc6i/Z1aaMOBkbXUneoYBxE4zhFveAgFegSOh6pGBgnFWhI1AjTyeSb3wert97Y/4c2z9AivWp6r4n32F/IOZov+4GmDzJ9xdolBKPOJhpBy4gzCmIqnmYokf2EFdJZQX+6caN7HEFTkUZ0NqPo65zqFuKhqSOc1RlBd7rxmPrgRacG1nBQZxwDQwUQ8FDVzzyal3usYO3x4s3dT7R4Bhfj9xkfdrSvO4GMipRpnDDq1BBJOm4CY4RWzIu7GSqxJEZBl1KelSmjGm6rOKILeqPUp6tQx2D8KOjjOGaLAnVkDIZ6wSUoRDcOajplXah4SMOQcjQYaWBcPwKMmUfzco4VnFdV/o+2nz86emg4MMPft14c104TAdcX1dsGmbI+U4qhhA5uO+E1GTDKSxi1mrGb4cwTpZn6OEislYTKIiWzEcyB6qCM9ukIWMYR6shoDToEdVBAy6KFzCKnjiK50+mgGtrXjdAAqBynPiaoE/CQu8s8mrfi2KbP1l1V0vX478aPd/vG3CHf/HwgXAmHA0rIFfJNBJyTQZcn5A8poXjep/MpgQ0dD7G9MhIsFEmqQ+WkwgjBZFZuPDPmR7i/Wn9j1lG+v+qigUMWupzFm3pNzdTOU88ANGGNspGsOuNcgbqmy8Gsxjj3ro9cDoqAce+RoQp9eahWTneekdEKj1p9FhjqSxdq5GQthqfxK61pBmX6mLUUco/lf6Rmx4aOh54dP1bvtg/6p1whnz95f6ErHA4HlZBPCTiCnj7fRJWr+1cj+y9tu/+L9Xu+XH9dSddjf5ppjuevWChh5b7hd7IqITv6inuoTFzdvxBGcpWBoEkERIPRQyZLaxFhFMazjuZ9tf7GGH+555sNN2eLOx5ZCeQcOEDy6Q5pWDiFyirDJC1M9VVEzPYSYyQiZzNlbFo1GC1SNDb0qyrL9DHy6PqQDiZlVDYGT5VN9XXBUP2jGy38J/No3urjhR89ueM/2+7dN/xutatnOuh2hbzukN8bCviUYID9iL9LJP80kaKE2U+I/wSVUEAJ+ZWgTwl4Q353yOcMeccDzkOOtlsGXv128+0frN6y8miBtTLPUrmB/zC0Vx3b9L3mX/T6xmM+Aj7saF91rEg9ORgzNSJMsTIF1ogMjhj1cYq4zq7M/2bDzTGa4RvQDHT9PMgUjqS7M+kK2TymvhIKJiFlU3dJGsw4sj6jckP20fzzqsq/UHvVt2235Xc+cq39xfuH331u4sQ7M03V/O+ttHuGu7yjXb7Rdu9ws2fwuLPr7emmZ8aP3T30x919z/2k/cFv2fZ+6uTOs46XZh7NA5vyCofvqdpozz2x+creZwf9U1H+NN5YwHFx/bWWyg3CjtaCNC63HtNZ4+CcYc8+GkczfKvhluzKfE3cCTmmu5cxB+NIQsaNy0/hSKKRJ6SfkDLdRzkgmZV5/GejhR2utx7ZYK3ckFnJnthmH81fcWzT8mOF2UcLMo/mZTKFDUzhyHquk8cHTXivoYSEndms3PCxk1c8OnpwKug2vYvwhgI7en4boxmkQVMvmsGEkInMxuyj+d9tuj3GmeG2vteWH92kcR9/oGnN0xKBzErWY3/TcP3BmTbj899QWHl9qj67Mt4Gmx/urTi66V77WzGa4W77myvSzXBacnqOLMyqzDvnRNmP2u5r9w7r/kp3q2forOPFc7Sf3OUrjm662/5mjGZ4dqhyzTEZ9xHttbXxUDei4xCdPbKRn4uJQTqrW1i50cr0iTKMULXoszp9o7JxJLrx6Pp0rc61bso4a8xUt0TveoMGGd2sca1OIeZhdAVq3xj5kY3ZlfkXVF9+g/2lbt8YtsSgf+rCmu0WdjEWtabUuBGo6LNmwWj6R+t6zdGiZ4cqYzRD43TfOcfKYgSttatX1qWhi1J3qFOGQ2qfygAHjOArVTA1HkWBTlHjiDtViGkcV6EpunzWmaJZas00GNTU+TIqmyro7FNrqA86OoN0IV+VdWTD52qvfnGiZjTgcIa8+2da1tEdVqevs4a+IADTWWqByrq1aIHmwvXPOV7WON0XoxmapvvOPb6Z33LJJkZnqkBa3DRWGoRuP2D65MGCapO4o4Ngn45AwjBiMJ6pMy7U5KnGoB8tGKoswuD3moisPioCiwgyeqZEP/kwGoxTF6aR08EoMLLUiHHTTI9stFRuyK3Mv7ju2v9svff8ExVik54fGHXBm7HxAye2tMz0x2iGAef4J2t28Wx5woJMMnmWjBwnMqMgBQhlHEcBsVOhl2tRR1gWTrlxedWETkVJIBj6SiLkOmp7gH3Nwo2ZzKA0jlNMIHYwsMqN5sEIZU59oYwhgcBbXQ1AGqeOhHGurx0n5QCswJEuGIRRGseoONTx1Ui7FsJgrxtE4lxm8aAgjJvDaDmyIePwenGBFBNGtIkC0pqtlWXSwyjQQAbGkenGT9XsGnJNxGiGMdfUl07uASpIo4iyrITIKsohYBpFAcCVCjR5jXGsTQx9bajSrDAl66SxTMmq1RfBGFNQR4g7dVBSllpjs0Q5slMSG9GPYlxMEeWYxg3BGGCPai3VMMZOliAcRVngr82FFoUB9aWT14y5pmM0g9Pj+lbDXr5f8vWHWduph9CdvHKZh9GBjOzwBqapQgzwMd9qZGxW6HMLRuNsVqsvImH6dPsUdri+CIZ4l+HJONEvCQbTObwhsvGNqgVMDTJV81KNs+AxGKR4RBjRONlr9TAiyzluqnEBo5WNGGFkoCUKo2TbPMIoggcuRYKRZGrKxspoMKogSMJkHdn4j/V7nR5XjGbweD07Op/OOZIvceGY8ojpCJfVCGT5sWxUwDwlS0Q5xThZCyP6caLAwOKHEh3BNsqSDZwcwIONVkYsk2DQJgq6jEiyzDiqocBaGloIGU+D0Q9yvmoSx2Qjw2gCuyYYyDRy5Dxx6ZRFLuRoMKoJyoXiMsEsGFRGIXIwmsg1+imGUeOL1yWnMn9H59MerydGM3i93vvsf1xVuUllgwoiRxMOASmcksAxx8YpOatO8ZgygWS6JQgNHZf6spzaSEAT9YGIYAcHI0UlY2M9gzogo1mMk3YF1UdNaU2NE4JBgzI2pkBjo66JOxMd9IuWUR9tckGQgHrhS0SmWmUTRzIktaboWrcWx+FcJBcyClFNjHPeYMTAaF0Ob1hVuek++x91neD1ev/COHRsov2co6WiGRBKbhdwQZT1Aq00kQWaFBdtcAwyREqq4SrhhdQeUEYFPeg647pIMBEqEB1IHIyjC42giwQQR6CMQhTjNAbcBUwNkt6OHgzOAhHxkAkYOQYpYRezOI4CBKNbCLO6kFCHCOBdEwNfqwYjTak1heUYAAo4LgXVeCQYEUm5BE7mZx8rPTbRbmS+STMMuSY+W70blmUeZp9sEclIATLJlMUTAjtcL5JE3CFzvhBmiTLTF1capBmIcTEL3vlys2B4ntwUmeXBqNuSBEVjHBFkQa7XZCrLLPX5LB8kwTBYQEE4EpHwvETKbGvkaiS2uGEUxjF4A4wQAAKr31OkvoyBBCMTxOLChbUeZKa23oplwkhkvaCCahF1MOozVUGmMJLlEk9RGgaadjY6jGJWYxxiwGbg567PVu82PkoyPzNMuR0/bLoLLIrd5RASl+UjnfHQge5yUOjLQ1ktduEuqCP1BYEOb8hUjUsdHrEmAF4PGYxaHmETjUvs2Fqo3CGVx1pY1TM4VpQpMH21AGAHvfAAhEGwBvo8BYGG5tpPkEn4UjPlUaEjEKRxEhgJRiCJmUaAUahJrscVDA/SmKk2a0EAUQLuHfGUibDNSygYYcfIoS4UmUMCduERjHB9Zk3UlBqXbIwAo2hpTTCipuDih013TbkdcZ0Z3F7PDV3PZ8GtqoAVegCJhYdAX0Eg3EK4SyQNKAuis6lDeEIQGcIgkBL3OVVQ9XEttQnecQRR415grcoqiIotET9cQdaYtRnzq9XnxYYlIlOZAiSC+hiDNI57KoVRJQroYzDSuGaVsCkCw7CZIBYC7FwBBmVUQkHapzByonALqlOZJuiLHUfWVIApayTpKPISddHCKCjOewaREcZF/8jqUB3TTMGybD9uLSaMar4qztbD63OObLy55yW34e7Z/Mzg9XpfHalZW1kIcLPgDq23ct9IAkYXZAxMqRxiypAeCqjPdkfUh5IwZZGeAAWMS6TM9HnVD0G780i4TbZca1yETTpQcD2acZNgRCKIA5CAxymcaoPhg/pgTGAE0GAtRs4EfuUmYTTCnjiMZsFARxEvgJ4WRlZKlaBCWXSdCEyQATjHi8LUosEoy8R2DVYjMMsETU0jwciXs4ys/LLCvKYRYFxbWfjWaJ3xtBCxGXodI5+vvoq55BZx51YFqBy+giZVBllYkHxFNRRg98JD1BetJQCVkQDcEJW0iZq6YKAYtD3QCy4RXCSmUJ8qoz4OGuPEKeGX1VWELZT56QKCBC9oRBe5TgeVddGixyj6ppGrERJ4qSZ6FJbldq6LUy4BNqvJYk1pwOCUxowyThn10ZSqnAiMLGB+HU4i/3z17j7HaALNMO12lLc9pqaHocyLoAd3XpyekmQXVKYLKpgUlSPr0IY9nc/NeJwJNIPb43ltpGbVkYIUxZQ2m0bglCCw5simA+M249tt0Bsmj1Zhotcx8okTV5ySiNNO0wikCIFPnLii1zFielqIeM/g9XqnPc6rOp/NWrqXKCmCO212wSKQdWj9VZ3PTke4RorWDB6vp8sxfHZlyYLNLR1YGoGEEDi7sqTLMRzpGilaM3i93im347+a7snWPRVJnyvSCCxCBLIPbfivpntM32vDq6aI9wxer9flcb80fGL54byE+i+tnEZgASKw/HDeS8MnXB43Ut8oRGsGDz85fLt+b87hjQswvXRIaQTiRCDn8MZv1++dcjv0H9rWNkS0ZvB6vW6v5/nh46vTz1gX4YVBnEQ5HdRWHyl4fvi46UcwaDvEaAa4c7i45pr0yeF0IM2SzDHn8MaLa66JfrcALRG7Gbxe7/GJ9g8cLV+SSKWTWvIIfOBo+XGz316g54QEmsHhcf3Ydm9u+s4hfbG02BDIPbzxx7Z7HYZfdzZ2QoxHq3RBt2P4c9W7l/wukk5wiSHwuerd3Y5hyuQoclyXSV6v1+lx32d/K/1ppSXGlaWdzpoj7HednVEfp9LeiLcZvF7vsGvyf2z3pe+klzaBlkx2OYc3FrY+POaaonSPLifQDB6vp3na/umqnekPLC0ZxizVRLIOrf901c7maXuUD18YGyOBZoD3pI9MtJxbWZLuh6VKoyWQV9ah9edWlhyZaIn+fvNcm8Hr9To8rlt7XslNf0ZjsT1XWQIsjzOF3MN5t/a8EucTJNoSiZ0ZYKXT49rR/lT6M0tx1iatNp8ILD+ct6P9KeNXR1LSR5Jn0wwer3fUNfWd+p+vOJw/n3mmfaURiI7AisP536n/+ahrKvpnkJLZDGBrwDl+SdNdK9P9kL5eWhgIrDycf0nTXQPO8Uhcjzk+mzMDGPV4vXbn2P/Y7lP74aD8molD6zMP8h+ECQ51CrpZPDQuhxFU0BnXzYIa+jJVxlmdciTX0fUxMKM145TRlHEEV8UMnq6NqawDKiH9hJRTBKMuWUTp0PqVh/P/x3af3Tk2u3MCUHr2zeD1su9hsjvHLmm8S71egnB1QQOOOIWzdBwT0w2iMhYS7VDEcRD10Q6OoD6OoKAzbhoMGDSdMh2k+uCIjiQxGMwUw9AZN/rFfGEJWkBAqICzuIqO4CCa0o3AIcaAAurrRqLr4ywme3D9isP5lzTeNcdOSODjGJFOMR6vd8A5/t36W9X7aUTq4GXsCk895OcNXeZ4CMo6fd1azWzcxpmRy/gPBnMZi4pZk4KuMMbIjZFogiGpqRlFODdGz5TUWEKXYKb6XDBrEo+aToLGNchI9Exg5FMwrvoyi0QDY4LB8EyXH8r7bv2tA87xuZwTknBmwA4ZdU3t7Hg691CeeP8hUv7GcWSkcUqFEpBFKHWHMK4dBLMCaAPEzDLqk1ksDApqVEQfBk10MEIioBoTuBEcMTUOsyY6xKYavBxE46pNOaWOYAowpTs0GwSzIhijvhZGdITBo4BTauQ6a7pDQ/BoighZh9bnHsrb2f70aCJvMyNpjcKcLpPQnId9eMl1e8+r51SWZInMKVKYGx88cFnmAckMUD4QWfngZZlsNqa+qQXuN6Lx9cyyqXExiGFL70Jf5ytSIalxqZNoMIw9cq2GUmAcZqWC3jiMSx3TTM2Nr2cFYjUiP3rjMEVdS5SwpsIjMSLcUWRwVpqiTtEUEzRQZB1cf05lye09rzo9rrmfE4DJyWkGsOXwuI5OtH22alfuwQ2CZMg2FESqHA7AF6bwFfOnDUNn0RQKBzmtcSH0j5gluGNt2BStJQZD2kNnnDIDpmjw6BEiQUdQQtVU9GB4SKpxs2BUU5JDqr7MQh0BC4Sj+inOP2oTI6fZwaBQwxTQONqXAVAQdMYThVHVJ8YPXpZ7cMNnq3YdnWibxTtruIMbhWQ2A3xeo3W6/zLbvtWHCvjuInPAMoCwn9Mx5iDCyjQlOTSrtIOgz4xTfdRBQatgGozGAtePEozeIzQbX2VifH2mcRAjF6ZwLSaiCx4VDONG4xrodPpwqB3EYIwgaEa0q0z88iA13kn7aUyBplGfd9qByzhiQmfNoYKy1kdbp/sT/bSFkf26kSQ3A3/E5BlxTT7Q9/YXT+zOPbCRpYEFpgLKkCoeRhEYfNxaJJugYHwVNjkLQUYL6I5axkGjoDOOdnA5Boma6JHqwEI6BbP4isqoYwyGekd9XQDGVTQw46xxRK+PMKJASoxh0Nii2MRoqQ6V0fuBy3IPbvziid0P9r0z7ppO6BN4OtJHOkx+M4Anp8fd5xjdYNv3ocrynAMbREsgA+IUEFkUdAsTHdcth8NIRkyVIw1GMhJpXGcH1VDQKSR0GMlIpHGdcVRDQadgehhJOdFxM+M5BzZ8qLJ8g21fn2M0/t9PiET6SOOpagbw5/C4qiY6vlZ9/eqDBbNvCTN0ZtldaVOLDYGcAxtWHyz4WvX1VRMdyb1DMLZEapsB/M24na8N13y/7vblBzZm75fn1sVWlXT7zTMC2fvXLz+w8ft1t782XDPjNv8SeSOh5zIyH80A378043a+MXLysqb733e4dJ5hTbtbdAi873DpZU33vzFycsbtjPl9R3NpALp2npoBPrvh8rin3Y5+59hNXS9+4tiOdYcK0yeKRUfT1AWcvX/9ukOFnzi246auF/udY9Nuh8vjTtZ7CJT0keT5awaMwOP1znicdsfo8Yn2vV1/+ErVnjMPFarPndKXT6cZArkHNp55qPArVXv2dv3h+ES73TE643HOZw8gM09BM6BvD/+9uUHnxIEx2509r/248d6vVO05/0jZmoMF6buL1G3Ap9Yy3AmsOVhw/pGyr1Tt+XHjvXf2vHZgzDbonHAk771k5FhCwqlsBhqox+uZdjtHXJONU71PDBy8ofP5H9Tf8bdV137hxO4LKivef6TszEOFqw7mrzyYn3tgY+6BDbkHNmTvX5+Vvh1fSKeRrP3rs/evh+rkHti48mD+qoP5Zx4qfP+RsgsqK75wYvffVl37g/o7buh8/omBg41TvSOuyWm3MxXvGFBqxS8vlGYwRuz2uCfdM6Ouqa6Z4dbp/jdGap8aOPTEwMHLmvb9R8Nd/9Fw17dr955/pPS8wyXpnwWCwPlHSr9duxeqc1nTvicGDj41cOiNkdrW6f6umeFR19Ske8Yd97cYGSmR6pGF2wypzjxtP42ADoF0M+gASR+evgikm+H0rX06cx0C6WbQAZI+PH0R+P8BZKGFNR048i8AAAAASUVORK5CYII=;" parent="1" vertex="1">
          <mxGeometry x="305" y="383.19" width="50" height="49.62" as="geometry" />
        </mxCell>
        <mxCell id="EP9idgTvT9CNdn5mAOOD-39" value="" style="shape=image;verticalLabelPosition=bottom;labelBackgroundColor=default;verticalAlign=top;aspect=fixed;imageAspect=0;image=data:image/png,iVBORw0KGgoAAAANSUhEUgAAALEAAACxCAYAAAH8LmxTAAAAAXNSR0IArs4c6QAAAARnQU1BAACxjwv8YQUAAAAJcEhZcwAAFxEAABcRAcom8z8AAGTHSURBVHhe7X0HeBZF8zjv3b09PW/ypvdC79K7DVHpIFKtgCDSpJfQUQTB3rAgoJRUWhJ6ERFCRwUE1M9KsX1Ysdz8n5m9vdu7BD4L+Av8M88zz/XdvdnZubnZ2ZlKlcoBQHB0JkSmN4IgfxrgcWJiost601+C4OgM8Gc0JsQCt2zZRNvI9MYQmdEYQuKq4vFfh4jU68Cfzgrmhe8/sJ+2dA6vETb66xVg63jB0VWag+JwU8GK0wtRlZvr17AC67P/E7AALGz37ndU3Lo9Xoj0x4DT6aLze7Tz0VVa/PXCNYDklAxITE6HxOQ0SExKY9vkdDqP160P/CmQZXkvPqyW5EDHW9oAHCwAtSQb4PAqaNu6Ge0rigwORXnN+uz/AoADefD129lUOOzNBtibA4D7WAEel2SDerxIxevWhy8KwV5vG2wVVlC9SgYrdA8WlgOJiXHUYpWOs2HZ45Pg6IYlf77wwpceoQKwcFmSPsFCqfXHigCOrwc4VsgqKMnG6+etz18SiK4lOWC32+dop1jhAmqk+PMt5sALwN1xK87AzOJfeUEmlB1ucDo991ufvySIhY9feQbGrzgN4wi/BHdQJNtfzs795dZLkvQzHCuGGs3bUcvHE56G6esugCvYT1s8h9emrf3vX69AA/AGB1OLH9sGVAGKBGwxVsDe5jTEVr/pbxVOMHXtTxAY5oPxK7+GiPRGMH7lV3rBnGTWZ/408ILufbSA5PmgJzfphcOJjX+bLATYOuxYLATJwrhIK/zvsiSH1DqNYPBTG9Ws/DMQn14dJueeptan1mlMo/QfFS7bnbwAE9rdQeBwMfFrfeZPA33SdGxk2kfhZr3//wOw2WygOD0QkVIPfCn1AOmP56z3/WnAh5Ge7OPbCDp07AjXX9+G9vnX/i9X4HQ626Auwr/6Dk8IbN68GbZs3gSuwHD9a4/XHQ53R+vzFwVJVnQ1AR9G7YpYzGaDsPjq4M/Q3iSjMUiK/c+3WrJJ3yMZ7r77LrVTx45UaLjPD6FhPtrv3Lmzevfdd0FkekOQJOl76/P/CyAuPompD7rqYKgQcXFJf3ugwOiBfXQZgZ8v/v3Eof3stBGk+FgfuiRwmQBH11PBQ+/urnLVYdygvuxbuTcbXprx8J9v9c+H1lLL+na5BeDdNUxteG8dHM5/gRX47jpDNzm5AVwuxwhrGWUC/2o77fZpVLB23OS6OtC8UT1dXYBD+X+upRqAii08slp/iArGc3sZjUl12EOk+vOw+vlZKuzNBdizEsYvPw1Zq36AKau+ghbdB3FaQsvuA/R96/MXhWnD72c03ZujqQgMsRB/Ujr4E9nvB35pZm/8/a8VHhIaQvRDFSAr/5ymDpyGTkPnQbdRz+qVZRWcg9gaN//5ggWgFs3dBjBnK+ivP73wAkwv/IX2nR4PhIWFxVof/DOgF+gK9IErMEJUB/6e1qSB/pX24z9M5Wa6roHXYF/u3yq0ki82iWhNBWc0BX9mU72ioPAI6mTrM38KbDbbH11GPg1jlh6DqQVnYUrBWRi99Ch0G/McyQlt6P91sNlsOSKdRezUtpX6twuWJOkD9unnn39DDahXp+Zfl27lGurVq+exnvs/h4CoqAgkc3hSbd3IwLsBz0dHR9PW6CaG4Ul16HxYmDvOWuaVBPrN5woCaRm6tkGGC8K3396p76OKw+/lag8eR6G54K+qPn8DdIbmKhFvADY8qnIzauSGDeth//59sGPHdjrG80zT4Xoaf45R/0oPDEYprQHcAIO4cOFLsG/fXnjrrR1QUrJH3b9/LxpmYPuO7bB/315YsGA+H7VkCTIazdjJWtFlBU2TpYbgNjgkFJLIsCMYdXDLUdDSklMyISg4lJ7bV7KHtn9ZM/4HAA67gyqdOrw/eLwBOsUvhQGBgTB7NFMu7Ewh/lcaDHB0HcCJDQAfbIQf9uQbVpbDBUzJM1ldmL2I8PAqZpjS7unRoa3a4/brAf6z+YpRG9Q9K0mljYryk/ZJL3CoQNeoTha+ws6V5DIdkDeefYjh4w2v0yeOWdpyyFb17VvLdV3cWuE/BYNiJzfCgJ4d4YtdrCEiVXXK8gbTVmuksOXIWSY0MLCxtcJ/BLIkfQ37NEueZnuUZem4cIulwVrjjq6Fb3YsB3iPq/VC45nmfdkpq0NCQpxONar0w43gcbvXY6U2m+0HRVFed7vd1+Fxh7ZtAD5gf0tm6jPTZe+ut13ZxnL4GqllaQRWPG6lYQHj2xot2sHUNT/DjCJmqYQP2TzCzOLf1BlFv0HDW3uDzcZYwpdcH6IqtwS73dXbWuflAJIWoi1WcSjsrwJ/ZThqhskhz24Bh5tNH0RmNKWt4nDAyNf2sxeklzXuv2vGcmz4HdZKLxtEREREybL8XvdRz+pqOjYKG9B7yuvQa8oi6DNlETUGbWL4tXO63XRf3ymLoNeU16H3lEWk8tNzK8+CrZLtfVulSietdV1pgDFL3ochT2+Ge+esgvZDHqU/VDwfIZglyXpbuTk1VPyLQhv06MVHwGaTvrMWfCVBpzpvxMziX8CXch3pFDithdZ4fh3Zgzd6Us6nULXx9bTvdDoftBZ8xcAVECgY25lxPTatGpmtuTaYWruJRm3G/7jvDgzSxwk22lruFQVfbLLe/SRFcMph+ZfUkKjKNLUGY5d9qU9FcAyNjNE/RP96o20227SoqGiIio6GmJhYiI6JgdiYWJg0aSIc2L8fRowcwc5HxxDifVFRUTBp6D0q7M/9v6G0zWY7aP4pEP+A2V8KHou6M25DQ4Lh441LAE5tAJfDMd5a7hWF4ODgEOu5PwOSJK2WZfkt6/kK+CvQr18/V//+/e3W8+UC7Hb7E9ogAndIFPiS6kBkWkPGs/HVwB0cyQcZKLL8l6e6LxtIkvSLTVaYS4Jgywjyp+oNDI5KN9k58E9cku1X7O/kUgD+zCa6yUDHTPY3vnnzJkImn9kL6X/tJFma/KuizSTGWAOYjSMwMhm2bt2ijhgxAgYOHEjGGaS4bguh+xoxJNvGlae0PvnFZbA4Z4XXb7jxBijZsxv27NkNbdq0oXNmS5JZdl8xSgcGBoZHZjQxW4EsDUCKde/WTUV/HrQi9evXz2iwZsThZjL945LR+G8b3C8JsmzfgbynU1XvYuTdphCRdh25NdgkRR90OMC8oTGWZ1gjjZdtApIk77LW949BURxZ3EmJf2qD/CnUsFatWsE7u3epu97eCe+8s4ssS/v2lRAP79q1E97euRPq1atL94bEZOjsgFTGMmXZPt1a3+UCrSsbUuUHDuyH9euLdYrKsgzBIWHkKOWL8ENAYBAXYYTri4vgwIF9tI+yGsu6YjwsAHTp0gXq1GG2Y7TNJVjtcpo9zrQvOGLhsz169GATGgA2awVXAiA4OBSSUzMhMUlrmNhY6zGdS4ckbHRqJj37b1BWB1mWVYfdDutfeUxt2oAorZtkL4UtmtSH7UufBHz2X/na1azp9/LKbdr8FJkIDtBkLjRvXE830jDLUg40b1yfrpH9zmLakiXpZ2sdlw1sNtuvbz41nSaF0aBIjdAbp7ngkXVTsA4hUkO5eUuzxx1dpz2fDRER5IJweQG95+DDzVThdbVrABxnkkG3YJbkwNNThgMczGcmMO0cXd+fCzMfHqBTlzdaf+FjheB1u4dY6/zbkBkeHvj8jFGs8P15cFe32yE+LhbiY6N1Ey3/T3tiwhDjnHZ+2fyJ2vQm7wnGLnQO909tAl9gYLq13n8CugEbPtoMR9DL4VgxzSYxCmvdfKzYcJ5MSoBZowao9MzulXSNl8G3rMGX2fLp8wWmXziIJlahkt0a/364yWySFXEf+ztmDdQGoDYI6ZkPGEvJsvyVtc5/CkZlJdnwTQm5ghFFHE5nKapxu8O3u3PhvHavyLd84IWEhFw+qooQGxttjGwacNX1ihyKsvy3o+tp+sBEXTw+WsRQlBa8nFNbwK4o+eaaLgPEh4fHwPuFpkFks0kmyqDw/2ynhSW4DNZZgLNGNpx+B8u4Qh8MWZL+g9MLIuU0dqBKZVk67FSUB9xu91A8d74ERVquLh3Exv96aC0953Q621rruZygDxJ9NunLnXDrgGlkL5uY8w05xU5f9wPcPXsljHvzkBoaFaO/FEd3gBem5H8Ek3NOqIGR7AfV2lOXCyw8iEJ+PYxbfkrwRTbMr3g/bkMi/fDk1JGQ8/wsNdgXAWM1Y+HDr79HW4c7mKYVtBe6fGDSFTQK71i6QJ21/jfNeqmZXjVn6hotblGnF/4GOO/BqTuz+A+YteEPaHhbL93hafzKc9DijsHq03tV1eFwXV77WvOGdU1U7tflVnVS3ne6udWYBzHMrojRVVpCTNXWoNjZ7xLrEW5XZs9OW3fh8lM5KytLwkKXzJ+s4jcfJ9Ox2zlLTMz9Rp+Ewe2Eledg3DKj4egMPm7FWZMRHJ/hL+dLpT+XKwMOh2MCawRrLE6D3T93DfR/fB30ylpEEzJZBd/BxNzvwBMaQ4j7k/O+gj5TX1fxngHz18H989YS20Qk0P8gWpC+tdZ12UCSpK859dLrNoUxS4/DzKI/yG+OudWfhRmFP+lGlhlFPxNVZxT+Sr50U1b/CGPeOAUzi36GSfnnuXfLlaOyFaauOU8V3vNoPs0w4X7XkU+DP7MZ/Q33mvSqir0xOf+/UOPm+4jfpxX+BOi7jmyUVXAeolL+5gKnvwpBQUGpM9cbEgGxSad7ICAkVKdwWFQsNZgPNqJ28W8w4tUDqj4OVv7n32lwYGBIexzppgkYTR7zqQOD543ZJ3zmgQVFar9pS+m6dKU+1VZwuDxjJhd8rzXmNIzTprlYgxmFxUHKnSLxmWemjyKpA+8Xw79m+JZl5cUJOd9SQw2xdRbsrgCdwoorAMYuP6Pdw8QhirUH+3Vnsv3UJvDa7dWsZV8RsNlsG/GrZXwQcBXPL2B3B+oUdniCyRNA/JRPyPka7urcjn1BT26EkMDA26xlXxFQFMdr41fwBhtdPnHlKWooLqCalPOxZZLxDIzP/gpG3NeTNfjEBnA4HJ2sZV9JgFZ3DoV7ZufCw4veh/HLTsLUVV/B/O2/qAve+p1cvMcv+xBGLXoP7p6dDy27Dya+xr9u0lNOboAon6+FtdArCTTLiTOeMTFs5hPPHTx4gAyFuC9ew3upwWjbQLX1aJGakpISbC30yoFgmfwziHowKv+TBvclA0vRwkfw/L8HyKfifIc478ElhflaI1AcHkblK+Q2dknAFVuRabxBRgPNDTZfcwaEkxngveJF4HK5RlrLLJdgs9nO+3y+aOv5CqiAawS8Xm8bRZKy8WdEnNO5FOJ9kiSdURRlscvl+le/ReUaQrwhNSRJ+oYTyhkQBuGJtSEKndczm2oCkk2QoVBEf4Cw+Bo0Q4hrEvEYr4tfg6jMpuy+xFq0OFLohF/cbndDaxuuSZAkaSX/VkekNgCcxOZE4pPXNDHNP5FpjSA4So+2AMePHYVtW7fA0WNH9XMhMZUFQgsoTGxjPRFpDfT5ZUlS1lrbdtUDH/bIaSIhDMKWRiQSci4+17VrV6hSpYq6desW2LJlM/pnQGZmJnTo0IHmUsITawnPmjuMT9AbLhSNICqTrWPR8OoGm006hy+CK41MOpHOrQZBdULwxT2ZTcmYhM8fOnQQnnjySZEw8NRTT9F53A/wJZBXg5W45PkglikokURsFugER9ZfXqlcLgC5l/1T4wszonI3Ea6QmjjZso/hZQICAuHUqZMqLkbavGmj7g6FuGnjRlqk9NFHpyAgIICW1OtlCKvhDQ7Xjq1iJb0R/Ur/Gx5JlxXsducMEg/0cTLWyHECcg42iCJyssBpmU0BIxKJHCwiyvaQ6AytHsP/jHesuVyxTj6SuKsMEx92u32e9V3KLaBXKzousSEsvKyJo9hL8vV83rBYPoljwri4OGjSpAl07doFevXqCb169oTevXtD+9tvp/PR0dGlfDiw7qCoVHISJBTbQMi/CdoIy2gMsuJAJ6qd1ncptxAdHY1rZiEyrYH2Mgb3oEkZZSgnSIvmzSkGxe53dsHOnW/B3r0lsGzZmzBgwACoXr06/sOWIryIYWFh0LBhQxg2bJiak72SnsdySkp2Q2HhOmjQoIF+b1BkMkTrbqSGfMb1CHjd7yfflqsOUF2iFwtPrEkvkpiYCAcPHSBi3HPP3SYuDAoKgdi4JEhOrczcozS/Ld2nyxoRQ3OTQr8vvB8xNi4RAgKCTB1x7733qFgffijT0lhoA19SbepwmyTz+65ucDqdD+CLpKen6y8eHRNPC1E5EQ1CWvzMhPNJ+iJWq0+aFs1MR/MxEh/r43VnZmRQ5zqdzkHWtl7tAJIso+u5icsQFbsdvAGBEBbmA78/hrgxITGVETYlQ+NUg1sZZpA3Iq0sTkqn+/E5dLUMCQ0Ht9tD9VnrkiRmtLwmuNcKZF+w2cBhV9APj14Sp0K4vwi5wb2Pi4bXA5zbDXDmHbao8uAq+KkkD37ckwvfvLUczm17k9bW/rgnV/2pJE/948BqttAY7/9qD8DJ9QDvr6WAJbpPyon1OoHtikK+hFfMH+XfBM0DCCrZJHhu1mg4u30FHF77Kh2jTgqnNpq8Nmj/+Hpchqje0qapemPLxmB3ukD9AD2QRB8afr/mRHG0iJYsdry5NXS4qSXIDofgoGa4UMG7qyE+znBViYjwqTe0ZI7DSPR/HP3y3wQ+FH87ukGb+MgB+HgLnfti6xvEvbi/P/d5iqEoErmUsxyh4BklOB8Zx+KibF6O4BSqX9c65r011MnD7+lh1HGUcXp0dHSC9X3KFTjs9uexod/sxdgAhiPUM1NG0At8tSePpsXQoS85MZ4cUUXCcUJc0Dy2EN9fvZBd4/eYiMz967Lho+JF+jMXUHwInWN2G8qmdd943+5lTxnnjzHvXC/zKCufIEnS7wGBATQkjZfHmFarAMOoLZg0lNYA4Is8O2MMbU3iQvfhQ2dDPcAh/PoexuAUOBjdQAVXUP7cb+8yIlG5Jzca1zlH6xFJs0mu0320iB7buhJGD9DXn5dPQPFQJSNVJd9DkXP2ZMOLWmw0+sDtWQmHV71MxyXZz5kIJYoBXTyI5/fmwIl1C6FRnRrQoHZ1WLZgchnPiuKi9Hm+37xhPXC6XJD97HSoX4dZ+Rx2+xbre5UbkCXpC4/Xa3zJyWta2+7Pg+XzJwN8shUWZA2jl1EkqQi325c8cRGCCIQXiY6dpC311RE5WtNORNHBZTI/b+znwGebmPuM9T3KLXhdrp7EpR/isDdeSPzg9O7YVrXZbL+Jz/Ff7vxnZ1IgDk4gLi6Mj5RB5GPrDZkr4odb39TrshJWP9ZWVOx8g5lKg4KCwsT2lHeANx6fKLykQRx6wQN54PdHom6K3FsKJJvtF+qkj7bq3KlzNudmQVyQCLEMfdN1vQytk7no+mgrEVey2X61tqFcg9NOK+hovYHIdSIXw/Eiejm73d7H+rwIks32Lt7XAWNxf7hFe95CbJ2wIjEvdoyE3Qx3drqFEVeSPrDWeVUAfuwe7NvFvEyBcx7nOEFLSK/fGnpNXKi26DZATandGDxBwaWGfllYq0YVmDXqAXjnzafg3NY31Z/35MLve/PhQkke/LA7Gw7nvwgLJg5Rr9M+YGWhTZK+VBTHMOs7XA0An29ZKsg/g+NMHKYRuv+8deT/JjruMZ9PdKw2AnTMLGZOrF1HPEHHU1b9BEFhPlwZAfDFLoDDa8mNEo6sA/j2AHg9Hgq3OX3drxTQ4/o+I+n5KQXMMTu6civy20eMSGVuQJz4V4PrAHy2eYlZFgsyFPfx/HktpNaMtd8bLvg6cvdP8/mZxT+RhWzA/ELWCcu/hKz87+HWAVkmDr1twDTIQr/X5adpUUTPCS/R+VkbfmPPFHwPM4t/hnsfzYPoFC3EMYoPhUWA+zeiEv4jUBRlAzaUrR8rzcF8/ylNdZu65idGRDHWkxHzSRXjPyHO3vAHPdfyjsEws/h3qKQFqkI/cjL8V9FXlcDsDQDVmzP5O3P9H6YlCXzkiJ04dfWP1DGtew7hZZRfCAkJScRGBgUFqRhjGXVlk6jYmwO1a1RVMf4vrr8wc63hxKwT38LV45afgQbtehIhni5hkXlxegr/IDmBF7zNzl/fe5jgVi7UoUUfMwJznYbpa3/Sn0dXSVw8a323cgk+ny9DlqTDvPGIGWnJZE68vtcIk5s64pQ1P9M93Uc9c1GxIRILOa9ygza6Rzn6hFZpdKPuD226VzjH67tj3AtUH/r089BuESn1MY7wF7ivKM7B1ne6mgA6DptHvtX4UcMPGbrjzyxiy5uGvrSXVs6JnSPiXTNWMO4rZPeExlcnIofG0YJMdXohixPW9eEnSj3LET+KI147RPu4ngw7bMhz20jux1Rufi4ssTa/9+qGFStWyIGBgQ0dDkeWIimFNpv0H3yxSblnabmAw1V26of6bXuQ2Bj1+rt0jHNybDJWCxG29LjOrZx7p6w+D5OFtW54bXI+C4c3bS0uEGHnZm34HZxuY5LWbrfPtbb7qgaPhxyTYfq6n2DkKwfoJR/Z+CtMXf0TTMj+mri+84gFdD6r4Aeo0fI2muaPTGdxgHCLiQ/q33yHal0G9MCT22H0khMGkZefhulFTDyNXnJU7xCxc3qMf/Ha4GYLNMeXQvlIMnrVjzBl1TnoNHSuWu/mbjDoiWJ1ZjGuozoDU9f+TEM7KIrHbmHOMcExTC3LWvWjRiwmjw3iMVmP+9O1ZEAD5q01OmTFGVqOh6IMQ23idb8/Mcna0KsWJEnqjy+FH0DOidaPFT8/MfsTRgDNS4gTGdU5xulnaZVdWRzK9/mHVsSkpHh4ZPxD11iUeAFsNvlJfLnJBT8wbcCkwhkciIRudedwIgrGTOUEZl4/LAxY23snlUFkY80xloUL72ySDWaP7K/PF5K6eYzZVwKio33WNl71oNgdhd7gEJiQw9czi8iH/mlaUWuTKpF3p9lJkHn/4HmczsJlxPxZEhl8UbeGuPYuMCQEBvXtZhiRcHuS/fYHuYMw7PC1BTabtCE6paqwINwgrFlk4C81s0Og5yXmx0DHcH9GM80TsxKtFsbfauuzooyekP0VhEUnQJ9OtxgEJiKz8N/uf3n94L8CTqe3Db4c5ljBj1vp4W4Me9yOXf4FZOV9ZpKp01afY8TlMt0S7dXoqDPwmJbLRZ885YQ+wYgc4HZ3sLbxmgCn0z0AX9Dp1NNzXXaUZEl3WHx+ygiAPdyuohFZc0/wer01rO27JkBRHEvxBRVFAbfbDUFBwRAWFg4RERHgj4oSFrjGESEmT5oEhw8dhEOHDsDBAwdg6NChdJ6H/8VnIiMjweeLIE/PwMAgIjCWj/f1bH8THCl4EerVqqaHBv72bRYoydq2awZku2Mb82FGTaEpJTrCPzn8q8M1HWzRTmPwpV4H4cn1KOuLL7kubRnWhvDkuuBLrqcv8uHRHhgyv2f8QKJ5s3n9WhASHAS3tGqiz950atsaZ06uXOi2/3uwHcElCGaNQUTxnKhZXOresraNwOFly81ubtOMcfGelbD4sfHXNhcjSJL8Ha7dYxyIWbWaMU7MxHV8bF88R5yJx7TVjtGhm/aR+zkHC/va86jqoZl06P29ITqarZ13KMob1jZVQAVUQAVUwKUB4/jeVu82T9euXd3WaxXwJyEmMDDc4XCMlSTpCP6U2Niixf+BNh4ZYJ/D4RgREBBw7Rl4/gkEBAQ0lyVKZqUTDReWO72hEBiRROkNcP4NF5xzFQz1YNSLQ2OrQIAvERyeIDEUG6Fks33qcDj+naBL5RHssv1Zg6ASBEamkB5rBGI39F80YSJRg6LSIcifRmvs8JyoJ+MxX4UaGIETtsYiS0VW3rTWf82C3W6fz1/cExLFdFa+QtVEWIbimjoMkYu/2qxTZG1uz/pDwgluXuzOCC2/bG3PNQPh4eEx3NjjDY83EUdcemsirhAWYdy4sbB9+zbY+dYOuO+++/Tz1EEXWXyul1O5hb7SFeV6sNN57UwlISiKgg59tPqUE7bMNdXConW8BzuCExJXi2Isiy1bNpERiJ8P9CWUIqhYpvj7jHVzNyxFUUZZ23lVgsyGJXhCo2nI8kQrRAiRsAKBiRiZLP3esGHMkoYhFRiBN8PefSV0rl27djT/psexKKvDLHEs8F5cCI/Pyf+X+YAuByiKMpG4zI8fMJHDxFQ81sgAbMvFw+LFi1WvNwD9HaB4fTEUFhayj2JgICXc5WJC7zCRyJphSDyH92GuuZDYKhqR7TOt7b4qwOPxROELeMPiSg1fbhFjRDAPaU4EvI7P9+3blxLjpGqLyRFx3TUGQ+zWrZtGYK5RaOWZRoMl+ovQFlQD8XmnMyjV2v5yD6T8ywqzmIlD1cplFk5mqhrjXh49ElMlYRwhJOrBg/tpf8+ed+iaz0dZLpiV7RJix0x0Q0TJdn2m5eoBp9NzM39pehkxZpD1ha0E17b4/LPPPqMeOXKYhbfZZIS54ftHjhyCF19kjoFiMBIj5ZPRaVzTsGobXNY7HI6O1vcot2CzSf+V7S5GWG3oimJBl4tEhNLxfvCZoCgmEkJDQ+Hpp59W92KGp/17Yf++fZTp6bXXXqVpI7wnICJREz+CjL+YnLcQGBHbapOkn6zvUZ4BQuOqaC9r4VSrqDBxsMhhDSk8DZ++Lwud3hCBcwXVj+oTYgmJHajHGTKIHRpHwcOvKjGhp9+yvpyV2OIwZrMRTSAssSb9GGDsZMpSaERH0RHlO15zBYRR3r2IlHosdA3/8eDE1IltqZtQEylpLN2Y9SXKMxixg8p4KV1UoDpWpTmEJdQg52wrEb1eL2RkZKitW7eG3r17UYCmXr16Qe9evaBFixaQmpqqlhVfCBfP+JLrQHQV898il82sfsbhfLRcdQTGYae/nEZM03FaAxNRI/2RMGLEcCgqKkS1TEUt4a23dsDbO9+C3XvegX17S0hdw2x7JSV71N2734Gdb78Fb+3cQRoFXlu1qgDuvfde3V6BiJOfnKO57GftMEQEhpC8qggsSdIXpKIJf1jsI8deiK/VQD+GOY8+Qln9tm3bSoHxtm7ZDHPmPAo33XSTytW0iyFGC0hKSoLOnTurC+bPxzIo6NOOHduoI7KyjFVOkuywEJfL4iYkgrDN1vcotxAWFhZHXBxfTRue7M+Mp63Fob9mzSp11663ifMee2yOGp9g2B04OhxOCAwMhrDwSPBFRFE8oAh/NKVfDAoOBbfHqzubiIgRth6b8yhpG7t374KCgnw1ICCAfqtdgT4tCq35A3dFMndeSVAUx+vY8JDYyiQL+YcK42EePnyI4rTFxcXp4cWQmL7IKIpalZJWBZKSWbAlFuFKiGRlzcSYnE6BmVLSKtM+El9R7DqxExISYPmyZSoai17SdGYcQfhBDIlmTt+KYsfItVcf2O32x0XO+uSTj9VHH6HQ+OzF7HaIjk3QUlkK4cUuElrMRGz9XksnaPtI8JjYeBOHPzJ7Nnz2KXP+5miX7U9Z231VQVpamlOSpP+4nMYCGTTe8LhtF0UrtwpE1mO4lbqXc7qQd1RLhop18vodTieGcfi0UaNG18YEqsvhelrnGLuD5ClPqIpbg4gCF5qIawl+JxLddC/LLssxKYXVgYSPjIwmMaQT2UEi7NoARZLIbGm3KxQ3TRyieOx0uih/cERkFMTExEN8QjIkJqUS8Y2geBmQkppJyAPjUdC8ZEzrmwqx8UkQFR0P4b5I+jA6HNr6ZgG12Wd+jG26NkCW5a7ENXY7OBwsoy7+IGQ/MxN6d75VTUyIg0pl/K39XZQUBZKTEuCubu2h4IVHwOP1UJ1YPwbFw3ucioJ+y9cGhIe7Y/Cl8AWdGmdNG36/EcNifx7AkdUUHAQ+3QbwzV6A/2wDzH6J8SZ+2psP53dlw7mtb8BX25fB+V0rMRKh+ktJLqU/hP9sZc98vp2Vgcl9KRIWC9/wwnQWNgFHECew1+utaW3nVQcYAFSSLP4K2jF8tKXUiv9z6CQtiJCPN2H4BWOBurg0gIeuOVCACw8lpu7ZJPVDekaI6EIBR9gyAowsyGN3YjtkWT4ZcBXEoSgFcWFhsXwG+cbWTeHQqoXw3ds5MGpgHzq3+qXHtHzBRuwKxAkP3qUmJcRBv063qAlxMTBmYB/G5ZZIV/gMEXhvNgzo3VnFhev9e3VUkxPjoG+XW7WRYQ6+9PlO5uGORMZt/z5dIdIfQfsOu7zV+g7lFrwuVy9sdGSED+DUZsZBe3NBfX+digS5rk51iIryM7EgEFePwsLPo9M0PmeNyqId6+fwGU0c0LP7cimSVSku3rMSTr+dDYomouDERoADubB/DYsZ53U6b7S+S7kDj8dzPza2Z8dbKC4le7FsmDDkHqik2AEOFsDEQX3ZC76L1w0i6VzJiWYlJo9QZeVizqV6iByDqMZCGAP3Zz/L6qdohOy5mtUqYzRajLBVfiEgIKAyNrxfl1spXBh/ud+1YJ95T0+n+JihoSGAgZE4UU0cjHi0CNo0bQDf79MyzuvBm6yENoj9++G10KrJdQDvF5njEgkiguPSuRMYgT8wclYXPDudy/1yDZCekkSxMXVO/ECLpIoi4WA+lOQ8R8ff7skzAouKwZn25UJ6KpvprWSzqaRZCBGyzLJYw8MFtFofn0lNTjTEhYnbjf2JD2J4dRsbYVqZa56fWb4JLEnSZ8QVH6PMRa5jHPQjT8X+n61weN1r/CXgs23LDA4WCXx4Femw/D5cqVmKqAJH074W9w3R7nSyINMaMU1bCi2ZDW1bNVF9vnAaZXw0dLi5FXpj/mF9r3IBoaHe6vhy/9nyhoVbcuB44av04u8WsdCLrRrWJYV/aD+2rlgXC0Kk11H9e9G9dWpWBR7YlHO3GOmViYxsugfvxWemDL2vFHG5tkHnDuRBWFioen2zhgaXf7KNnvW4XKOt71YuAAmWkpSgBQg1iIv7I++7kxykz+/Lp33UKvBlDuawKK+cCzmhaXsgD77fnUs/HrrcPbIa6teuriYlJahpqUkq/oDwMGRU12EKga4amonRDpNM1rj9qaxhTJX7aCPExWE+kXLqFxHocjXGBv/+XqHBJRw/ZMtXB/bqwo6PF4HH4wEZtQmME8+Jw4c8j0Jo/aghHiqArrfeQGF02zS9DuDdteZOKYVGO0wfuePsm7B0fhaMf7CfLloyMzMDre9WLkCSpN8SE2IB9hvDkb/QvXe0Z3L0w81E3GpVmHF76tB7iXt0UWIlqB5gVORCjXBiIGjxeW1frN84b5xb8hjTIBDJNqGUY8dsHgb3c032Wrnnu7eWw9mtS0F9v4imiPBeRZI2E9GPMQ7mBC2TE7nWgMMeP3ZENI1g+COBWQ90ecxEgEhg85ZpG26PB61pH1rfpVwCz25Aab4tL0T7+/Ogfds2RFhZkn7HZ+ppnfJB4Wug0op4kUstXKgRPvepaVRGwcJHWRzMo8VQ/Po8du6ZqaZnrITm8Y8Rz2m/ypGRkX7ru5RLwH/6wX270C+oThRhyyOOeFwuU9hcnN2gjqF48WYCczEh7sN7a+H6FiwNhIidbr2BrjHOt3Su8KtM3P5BMZ85xtx75R+0/NjwM/1t8ZcTRAS+1BGWvSArK0uyPo/nmzeoq+qZD3TCliEqODef2ggXSnKBTJSntN9c0zNGZ5k6en8u5fXQOubqAD6ZiZwhciEf1vhi/9118fgMbrcb4+jAoLvuICIbXCyUIf5gcHlsIqJxv9hJ+n24PZAHD/dnIb4CXa4m1naUW5Ak2491MdgF/bFpnKJ/rBgRDuc9f1ECIzjtzrvw+g2o9GvRYMvkYpHQWudZ7zOLGu345Eb8a6M2OO12rOuqAnhjHsaGN7+8TuySbFg2f7L6v/JgeDz2OlymHlzzCpvVsBD4YsQ2ca1I8COr4diGxbqsvurSEletWtWBDf9lX4HxUeHcywmwJ5sSjUiS9CN/UUSccJQk6XNJktbZbLZZdru9e2BgYIYkSV/idcXhhJznZzHd+dAqg5gmLjaLCTpGMXNqM2xYvABcbg+v65C17VcFBHu9N+ALWLPGmLfZ0PHmVjphhy98W739gWlQo3k7iExIAbuz9IyvFd1eL/TudAtkPzVVPVH4qvpzSS78ujcfftubBz/vyYNP1r+urnlhFtzbo70aEFi2DzGbRVZWezweHClXB9jt8mwi8HHUf7VhqX+EBDy8CrYtZSFrZxaxEOIUmmvlOZiY+y1FtJ5Z9CvMKLoA09aehxlrvqV5tXo3dVF7jHtOrdKwdSmCXQxTazWEvlOWQEqthhR1+8Z+o1Rce+EKYlNCHGXZvkPTgMovKIqy3hsQoJsFuc5a1td88pC76cWyVv2gx0uzBqZjAfdPs6D5vVm4xRkYU3jZaRiz+DAdD8Cofp9uB3iviOGJjfDE1FF07aHnd1DctFnrf6fjDkPmqBiI3xMSTcH2/ZktCEOidRdVXC7wufW9yg1IkrQzPDxMJXuq9SNkwRubN4RgXySFueWBQq3BPsXjWetZEOf75uRT3Eok+gNPFNO5oKAg+AP/5E5tgoT4WOL2gQsKVbwHO6rb6Gfovkc3A8RXqWUQ0yZBQEQyI3blliArundP+QRFUda4PR61VNx3gYvp/IFciIyMgPS6zWA8hVhkUf5Kx3wXQ4qfgYz6LWiYT12NUVy/hHHLvoAZa7+F4AjDVzgsKhamrf5GFzszili6iTrXd6bRgPXhuYk5n1LAfoy0jdftLkNW2+2uO63vVi7A43Tegw3ELC46MTXimoj9Pkt3dkOf0UIGAyGo/sozMEHMbqARedYGxsW9pywmDkYc/PQmIhD+7nI32MFPbdbzedz2ALNXzN7wuyVGJusAjM499o2joDgUaNb5fmjc/q7yzcXYuDfmTdL++UtzMO1rgTn7TltqChBqEFTbtxAYY1XedBeTr5gKovs4No/nDomiUF6InmDGzR2GPKaLlY5DZmvcq5XFsxgI4iir4Dxx9+yNLB2FojjK54Jwh4OFSjx/eF1pIusEZgb3kS/vNYuDsjiYxwTWtshxil0Gd4A2pNGXLSiCBeHIbAoObyhgCF28hvNwLq9X+5AKokerhxHX6EQ8nrbmGzU8JrF8B3KWWXInmJ81nH51+R+cTuB3C4kAk/PMHzQxL4aZow2uow/eBhZGvFWPB6H7qKdony3dYpOi/aavgGbd7tc4nYkGE5o42CBuN60sxcls1MHBwSnWdys34LTbp2pcAD063AyfYv44tHQdKoBz21fQ+RlFmE3G4CR82Yk5X1NcYJSfBpENTmMqHH68MCb8GcoUg2VhxECe32hGMRL1LKWPEJ/ldXDCshQ+51SsE4+Ta9QHV1AkRFVpRZl5JVneY32vcgd2u32KGLoW0//Wr1WN9vFnwiAw46KeWcxWwIgjDGudUJzr2f70dd/T/TwcORG48EfTc9QpvHMEnLb2F8YA416i4/YPzqbjuNptwRMSc1Rr89UDTqfzRrvdns3tENMwaL5AhLHLT8NN/ViSVsxWMDnva+gzdRH0mvI69J6C20XQZ8oidfAzW3UiPfwqi3Dip2itLPfGqEWHWIz35WcoSVWfqa9D76mvq1gOlTF1EWTlfw2TV/1A99981wQqi+fiEJoMwQkJocLx1QGKoizExo9fdooybGHGl8n5mGDkLDS6tR8oTgclIukygqWaLAunrEbx8iV0GsqmiHjQUNzvNvIp4vBLZaHpMmIB/ZY73G5occcQEjuYJQxjx8uK4z+xNW+m+2S7fYG1/eUenE5na2vEa0m2QWRiOgSFR0JAaDhMzMafBRYefO42gMc4bgWYWYyhyZkeW61pW4rrQIsZMcaD4oSaLdvrIwOzhqG4mVF4gbaI09b9Qh2Af5GB4VFQo8WtbEQs/xJGvsZGREhMFXAG+PBv7+qOKRweHh9jt7t6OhyuVyVZPlzJZvvdn5RB3NzhoTmlOI/jtDXnKcuAOyAA3MF+CgWDRMZ9ynSAHWRRxfAZXR8mTeIcRKVkQFqdFkK8+NPQcyILRyPgtQM2m+1EWt0WKnKwOzAQWvUYBPfNWQ33PJIP9z5aAIOeZBOm980t1EUAxtjhMSf42mL8gIkftP4LNkNklethUv454YN3Bio3vhH8SWlEbH4v/tDMLPoJ+s/H9O9o64i7qrLhXhIkm/RDzRa3qZPyvgO70w0tewyFWcVoO/iGfhjmbGEZBfo/XgwzClkOuYi0hvp6Z9zHc7MwfY9A4Mn530KnkS/AxJyvTJpFneu7EMdPzPlW0FAQvyRRgmU5HFdnLtEyARPttezxkIry8JYBzI6A6BYWCyJOXXMexr5xnPZRg8AcG7SQW4vpM2HFJzpxDYIyohqcehpa9xoGdpdTnZT7nalDECdkn4NQfwzaikus7byaAW7sN4Zl31qOZsrfYegLO9Xr2t4B7QfPVCfnfq6SgWb5l9A7i3lmYlhxLiI4ge+alWcirv6Tgvsrjf12A2bQ/ZiIit+LHz+st//8QtIyJGZEujYAtYtuY5/XcxXpaEl3htx33S09yaZrpEfDYBosBEHzrg+YnyeicjQI320sm+FGTWXYS7vhpn6j0U6tL0SXZfkoxie2tvNqBuiTtdTgNgtBxi3/koiP00thUXHg8IRAhCnmRGMKfxuTWoU0EYPIAgcLhO8zZYlJ9KBHfJdbb4Dw8DBcLL7W2rhrAaD//GITYRhBBFvEijM0pPHegIgkXUXjQT1wlgLdAjAjl1GOmbh8O/BJZjqFT95ii19woeLebGhcryYS+OrMSP4/AB54cpNOULO50iA2T4wdnlhbI7BBZDyH12YU/1aKg40yWVkPPsO82MkjU58kyIZbWjfBmedvrY27FgBGLnrPIMRFCDyl4Bz7wJGRhxNXwwwWUG7amv9aCMx/MAxxgekpicAn0azKbdbZcF/PTrg249r5uAkAo5ceM3Mbn07SiI3XOOdFVWmhiwbOwai24bURr+w3iwVNe6AO44R/QyMwOrQI01yD+3Qpv8sH/iHAxJWfmrlOJ45B4DsnvERfevq5QOKmGVu0SeC13lOWmrQRzv3iuXFvfqBzsDiHmDW4H0gsFPk1BzA574yQUtL4sIlff8yGmFiVyVqK486Jq9mEE6rWIWuZiZhCObysCSv/oxEY3V6Naa3Zw++9hjk4+7PSHCxynqYTo804LoMZ75HIvpTrNOLWpjTCJt25LFx+Giau/IgR+BRyMPdlzoZHH+5/rRLYBl0ffgrGr/xKI5Dx9TeGt0HsrILvIbO+7kQN1ZvfApPytY/bpQiMVrWV5+DOsWxmmq2fNj5ykwf1uTYJ7HC7MccmhPqjoc71naDt3ROhx7gX1Aee3AjDXiyhr/7YpcdgUvZnMHX1V5Qreca689B+0CTo+OA0mL72O9IwECdmfw5jlh6jj+bQF96BgQvWQ88JL8Mt92VBrVbtITyGxWN7fc54fc0GJ/DAnh15iJlrEsDpclH0Ps6ZlxORMzGkl8vFwiyKyw44ge/v1ZkHCLkmAcJ9PvD7MeVkNKWSpLSTlHqSpZZEDA9nEa4//eRjOEgRsA/AJ5+wjxamnIyO1p6NwefwGXaMZUb5oyitJSPwJoAD+QYX782Bpg3qIAeftTbsWgG2GNDhgABvAAViRoJFRvpNBMdzjMD/gUMHD8Khgwfgs08ZgZF4jJgx1FG+iAjqkJCQUFqbhzGC+LQVfLIVbQ/q+b24JoStWw73hYMsS1dPtJO/COSMZ7NdGRGBiDkz0JcC9zFoEm4/LH6NcfBR5jvncrnGWxt2rQBLACUmP62C0/I4c4z5NtgfGyZJxWSppuSpQgJVX0p9LYpqUwpAytJPok8wKwPzHmFd3+xZxQj9AbNH8HV8GF/I2rBrBUwxhUU7gzUcLr8uhqe1Xi/rGR6UGetye9xCPIlsWDJ3Iuf0axYEgpiJW5qQIvGsHVAWYY1zyMlcZPxypJCJh49ZWAVFURZbG3VNQLduK2TGwWVYycogqJWABqEv9ayZwPDFLlr2Cx9vodAz1zT3JibWCsEXjKrSkojsz+BpfoXUvto+l89GOmDjHE/1q6cAxvt4SmAtbXB0Vbba6fYbW8IdHZgnD2bk6t+/v93armsKHA4HRqn6V8DtdreXJfkLXAzuUJRx1usVUAEVUAEVUAEVUAEVcI2A3++PDA4Orut2uzu5He7hTrtztizLS3AdrCRJu202W4ksy+8pivKxoiifyrLyKe3LyklJkg7abLY9dsW+xWazvYlrARRFmeR0ugc6ZWfbgICAqomJifinUAEV8PegXr169gCXq6nD4ZioKMpGSZK+sq6HuBSityJmdsV8bLjeATMCGuhkOdyE1OV/BlnwC+kbSZK32WX7TKfTeVNERESAte0V8P8h+Hy+aIfDMUKWZZSOpZgHUXa4wR0UCUFRqRCWUJPszJRtrLJoF2G2bDqPy34pzRvau5sa95CtxEgki1kf2XXxHs0mnt4QfMl1KaEVZtDFyQMcBNa2CQx+yi7LszFMj/UdK+AaA6/XW01RlEUY39TKDA5PEGWxxMkSNtHCmM6wkP5vxOeQ+TBIgKxle7ciSmJ3iJ8mZlgCX1yGUrqsshAHCGd2fD7In0LtLlUHm1zPDnQHXl3BtyqgbLC7XH14QHS9kxUHBPgSISLlOhOzMmZhpntjjsQ851KKodOQeZtBQLg5/SB6aIwePQo2aRmh161bC3ffzSIaiYiSFhnTxKzWOv4HcuaOSG1ACZHx/UzvK0nnnIrzASttKqAcA65QtzKuKxBT19bVGAazuOIMKZ/QE5I006obYSuktmX3GfNZuI+Mw4NacExNSwPM8oo545GBt2zeTNsd27fBjh3byanDxGSyncoxMr2WZlRzG/HYaJMVsRxMS4lfFWusM5vNdsbhcNxqpVkFlBOw251zMYoV7zBMhk3qAeZc1vMqGwzItyKzGgxsSecuXCPm0dwQuNSLj4+HtFSWQr5bt26AeUWJgbdsZriZSeTDhw9Cu3bt6D6fz0ex7nFfcbg1JtaynOv1C8xrSs5t3KN/LUz3G+9KAzetge6YQ8xcyQb2qzHywLUKsiy/KEobXA1Gyz10fxeR8bROtzKoyAhlofY8P8afueAoxrSImHx34qSJ+prHqVOnwvHjx+CtHdsphTTm5j567CiMGzdOf2b6tKnqo4+wwCyIITGZEKVlKja1S98XBpalvfydaLAKA1CU1sj0KKGDhHYjyrL8ipWmFfAvgcPhuF20KgRGJlvWKnEUGdiQxFZGMDFNGddEJzD0jBOSucMzzzwDx44fhTlzzJExAgODICUlxZQvF3HevLlw8uQHMHfuXP1caGwV7WdP/FpwZjTUH6NN4j2CVOYSWhi0VpognXDQGG1CyVxO4yReqyBJSi7vAFzoTCYsTVqZOl7vdIGhRUknMq7IvCIzCwzBVunUA9lhNnmh8/PGjRtg+45tUFKyB7Zt26oio957773QtWtXdDOCJ594AnZo11EyFxUXUURUsRz0943kZjxR3RGlsKWtxjuavxbGPYZ6YejTnJmbgzuIecAjSpKywUrrCrgCIEnSO5zoaBbj0lfsYM7I1nM6Y1uYlO+LDGF6lrZNmD+yNlmRlpYG+/aVqIsWvQbDRwyHjh07qsuWLVPf2rEDNmtWiVK4aSO89dZ2WPTaa2qnTp1gyJAHYeFLL8KePbvV9PQMxkiKHfzpDbX2GF8NU7tLMap4zRikBh3MktjEyJWbm6SyJEnvXiR9RwVcDpAkJYcTOyS2smCesnSmBc2f1oswxcXO6wzRiHRh/OzzNiiKHe6//z4oLi6iNTx79jCrxKZNG3XzGkc63rQRNm/ZDLt2vU33432DBj0ATqeROT44Op1NfPCfNH2ACcci8+pfCeu7aD9/SB++LRMbUn3ie0nStRlq4/8cHB7PbVwH9obFCBLY8sNjlUKWY126WTu9zGNettbhmlqCgycssSbYXWZdFxHjgzdv3hzuvPNOGDZ8GIwZMwZGjhwBvXr1gjatW0Nyspbd1KRGeCE0vhqzpHAG1FH7YeNMKVovrO/Nmdr6LoLk5TSz7mPd3rBYrU2kI/e09kEF/EOQFWU5J7AvpS5N3bKOYJ1sYsIyOpF1pLB/EQYwP8MlmXYep4rJFZ9jU4hGfTy9IUlQpzeEIk9bmVREjPyEemgYMm1mE4ipisuwmpPlAMsiCwVOS1M7OKOxAWVIXOtANAab+bz5XvFLZLyfNrAzm5AtnbdfYbnvKuBygiTJ+5G4aJul6Vr0U7B2isiMZWxNTKwxBu9c3CIDRdOaPNahqCt6QqPB7g4sNalxJRGdhBSHhyZpcBYuLL462XoZs2trBgUpapKs4iDkjKwzsSjhNRQYHukg+GnstfZBBfxDkGXKiUpOL8hgXBKXLX0saNIBWceRH0JmEwhLqAGe0JhSFgcR0fpQu3Yt6Nipozps2FB17tzH4LXXXoVVqwrIDrxj+zYVrQ6I+/btVffv36fu378Xf/wAt/v374MDiAf2q3hu394SvA+279iubtq0Uc3Ly4WFL70Es2bOhMGDB8Ftt92mVqlSVU+fWhba3QEQ6EughbLMkQjNc8a76hJYH6z8/c2DmqEhibnKpijKCmsfVMA/BKfTeQOqEkhgT0iU2SohShRRAvNOJaZtRtYF9HPAqV4rU0RFR0GXzp1hwYL5ZC7byxhNffvtner27dto4mL37l2wb/8+dn7X2/SzlpuTA0uXLoX58+fDvHnzaELjwQcHw0MPDUGGh2FDh9L+gw8+COPHjwMcAIgvvfQiLF++DIqKCulncM+e3cTYWO87u3bRFDWa5N55ZxccOLAPdr+zCwoK8mH69Glw0003QUgIS44hIkrRQF8iRKY1ZF8UbQDrdBAHvX6OMTHavtFjD8tBRnY6PW2tfVABlwFoalnrMG+o8XPHJZD5s4qOMc1oUsLqyhgcHAx9+/SB5cuWqXv3lqjIQMike3bvJomJU8Uvv7wQmQ/atGkDcXFxPGbNv4YOp4MmSm5p21YdOXIkSn5169bNJNn37N4FO9/aAXtLSmBPyW5YsngxdOvWtZTkxulsmglEawepX6XVD0RUUVBt4s/Z7c45VtpXwGUExekcgHP/SGzUUzH+pW5q07zKfMl1qAPFDr399ttJkjFTGEo9xqyPz5sHt956qxoezpKnlIV2uwO8AYEQGuaDyKhYiI1LgoTENEhKyYDk1ExISa2sYzJhpglTdKwMKWmI7Jiup2RAYlIaxCUkQ0xMAvgioiAoOBTcbi+Z8Kxt4YhRZ9u1u4Xaj5IcVZaSkj3qwYP7YfWqAmJq8X4cyKR6ZBqzgki38MRaur6PdHU6nUOsNK+AKwAtW7ZU7IpdtxkjekL8EJ5Qw6Qq3HzzzTh7BidOfECeZc88/RRcf/315CppZQqn00VMGhObCEnJyJyMGZFRE5PTidFom5wGiUn8WNvn5wktx/y+5HRISkqDJP0e3Of3asjL0stMNwZKWmU6jo5NgJDQcJNtWWdUWYZWrVrBEwsWqLvf2aV+cPwY7Ny5Q73t9tt0vw4c3BHJdcAdzFQHjna7fW1iYqLLSusK+BfA4XC3lyTpPS6dMX+i3W6HNWtWqU8smK9Wq1pV70COKOUi/TGQkJRmMGpSGh1zJObTGfVvosjIZaH1upX5sS36vjA4ktLpPLYbJTpej/RHg1tLmixilSpVYMH8ebBhfRHFCOPnbYzpjzkc7s5WmlbA/yE4XC5KwmRFDCEYG5cIqelVIDklszSjiselJOhFmM96LEhYRCZxyypLkOL8GWs5puvWcxbpnWweeDgo09KrQFx8Mng8ZVs3bDbbtRnw6FoAm802zdphVmR/3k4IDAyGcF8kRMfEQ3xCMjFAUkq6oL8Kem1KBkk94/NfBkOXIUXLROuzAjNj+YQpTI1IShF1a0PfxusJiamkm/ujYkkNQp3d7nDoJrJLodPpfNxKuwooJ+B2uwfyjlJkGRwOOzgdDkK7XflTHXwpRAsF6p2oU+PPHurRKOU54uccpR+6Xnq9gRAQEKSjlzCQruE9LrdHfw7LwfJkRaHy/147jWdwnR2GAEW0KwzFMqVK0gQr7SqgnAAuTeKdJUuS3pGsM42fubo1q6nqyc0qfFDEosRjMon3i+HnvQXw2eY34Ej+S7B58Xx4Y+5EeGb6KJgy5G4Y1LcbDOzTBbq0bQ1tmjaE1s0bQvNGdaF2tUxISYqHuLhYiIuPhdiYKIj2R0BkRDiEhwaDLzQYwkNDIDI8FKL9PoiLjYK4uBjCxPg4qFY5DVo0rgetWzSCNs0awh233QCD+nWDB/t2g5kj76f6c5+aCluWLID3Vy+Ezze/ARf2FQAcK2btPrkB4HghwEdbMPiv8QMn40Arm4llWe5opV0F/B9DiNdbw2m332+325+12Wx6R6LktCsyOAQpjLbUzzDfsRZ1VI9hjrnotXz0FJUfM3wfygc4th4O5j0Pi+eMhcdHDYBXZo+B3SueoUTUlAOoZCXAvlyA/blsi3gAMR/goIB4vD8P1H25qn4/ItaPwerfL4J92c/CokfHwOOjBsJrj4yBA3nPU/1UD8aZFOKti0jvsD8XMNhylN+wOtDXyG6nLT+HdAhwuzv7/f7k/v3rXdvhFMszuFyufrIkncAEVLxzCCUJQsPCwI8dWUaQksz0FPjvvlUAB/OIUY0g/JwxjMwzKKHvbH9jKcuGiN1vu0HL96Glo9grPE/HItPxASJkZcdBc7QYalWrfMl62jRroMIH6y3MW5qZqf7j66FFo3r6s8i0IhOXhaR+KMqLLStMbFcWvE5nK1mSPhWJ3/6mlvBO7vPGZ/XIagr5ThLu3dUAn78Fz04dqd//QJ+uLAa/lWG5FBYlMe4fWkWRzn/akwdwQlM7PtgIP+zOhZNFiwAOFOjP6NuLIV0XB42G+3IADmI9i+DX/atYPdjGExvhp5I8OLHuFfhtXz7AXk1qX4yB+TmU2McL4d3C1yAl0RxKALF1k+tUOLubEp59U5IHz8waA8Ehwfp1h0N5zUr7CviH4HY6H9SyaBC2bFQfPt62TKWMG3uzKSEEY4Zc+P1AATw5eZha/PIcFQ6vZp364WYY278Xk3Q2SX131YsqMbuVmQTkiX70hD8CgxrH7DOu3afya/o5/Rkzo7Hr7LjsLX9GbJNQBr2vqTxVQ3NZyMyHC0hXLnxtgVqJZUOFvt1uB/iQD2SN6T/eDPnPsoyqiIpSsUzpsoDH4Wgn6rcDe3ZikhD1Sz2bVA5j4qPr4L21r4DDwWaxEuJi4HyJJpFPboaObVvTeY/XC59vXkr6MGM4gUE1SayfFxkRt5iq8dgGttWzqRiMre7NZfdjGYJU1xnfxJBGuTrT43ugVEa1AfXgE+tZGRrTGmWUYmJjsFGZTK3Q6zm2DvKfnakz6COjHwA4tUF/V72sU5tg0hAW4AVVELfbfbu1TyrgT0KjuDi3LMtHONFvatEY/vhgo868JsbADju1Ge7r0UHvpDvb3wzw4RYmYT7ZBhMfNCLvzB33oCaFymAwjelKMdyJ9fDKo8ZSe8Q72t/EPvuiCiEMAus5Ha3XxHpOboQH7+puqueZaSMZM2v3iFK8NIrlcsZH+myAR0Y9oJe59sVHiLGNNmnPH10LG142VmsrUoUZ7m8BxsvnVgSnyw0HVi1UyXykf0KFzt+XC78dXAPJiXF0P66YWPfSo6zTjxfD8U1vQGyM4Zk1b9IwgM92sLJEhrUymiZJ6drhAvh4/SJQhOlaji/PHGUwmMikF9svxbgCAx8vhLxnjCz3HB0uF3yycbFmSeGMjOWIg9nCzFSncHxyI9zV9TYqT7Y74GTxa5pVxdKeUxtg/oQhjJY0Ne9ub+2fCvgfYLfb5/POu+2GFgAfbWU6r9YxpSTcwXz45q3l4AsPpWfmjB0I8HUJFL4yVw0RflREnD/xIfYDWJLLPuFcZSDM1TtVVyP258IPJfkQHe0vVdaOJfMB3ucSTXtWQ0OdwJ+x0syrDx6+fW8t7HrzCSzXZKWIj4uFn/YVkEmODSxRVWCMbDCxUJ5Qtnp4DVSvkk7lVslIU38/tJqpLSI9DxfAl9uWgTeATVMrinzgWkt4f8VBUZQi3nGzRw1U8UeD20WNHxZOdK0jjxfBmudn8Q5X17wwU10442GdATq3u57y+BS9/JjKZ7MeGTWQMTFnNLEjdV1SY25+fn8ufL83D+7scLOKExk3t2oMJzYsJuuHVRUhKY9S7sg6uHBwNVw4sBou7F8Fvx1cDXC0SH8PzsRsX2PCd1fDseJFcH3zRmpCfCz07tIOfj6wSrMli20VGFY/voiacWQVHMx7To+JfP+dHYUUlNrP38kNsDf3BXBoXnGyLH0XFRUVYe2jCrgE2BVlE2e81x+bwH46cAJB+CQaf+0aw+zPhQuH1kJSAlMlcPbrJ8yqiJMTJzaAerxYhU+3w/zxD+qS7frmDdlPmSiBOTNZpZeJwbW6qd48QRJamB3Pf7gJpg67Rx9IIgaHhqq/HVlHUrAUE2tl6oyIkyH8K1QWauoE/6EzBrrlvg83wqj+vVkbbDY4hObIz7YCfLQZ4PgGWPb0NIiMMIKn2BVlbYUE/otgV5Q8nYHnTAA4ub50RwgdRJ1/MB/Ovp0NUVFsZgodut9f8zKzC2uWis/fzoW05AS9c8YM6E1Z1ZhuzZhOHxicgQVkjClIf4Gp6bMuqjfiNZrlK2BJHnFGjyNOER9F3R6/LsKzFizrPGdSYyAb78Dq57QxVC86fzAfvtz6BlpkaCCXmhjSEGc1XQ7HU1WrVnVY+6cC/gfY7XZcAkOEnDGiv4pSgzpZk8C8Q0ox9cmN0K/77dQxVTNT4TuUwGQP3QyH1r0CldNSSnUU6oJ/IDNpHcwlqKnjBQY2JJyZucRzjIEE5AxmOVfqGf4e+j3GYDEY1bhPZFCRFnzfel6kU4ebWP52WrFhty9wOJTRTkUZ7PV6W8XFxYVZ+6QC/gK43e5u3ArRo8PNKpm99qwUGUubPOCdJOyjtEM9EZn+wy1Q8OJsaFC3ps6wKHHsirIO82+43e4uvJ47O7ZV0fDPOllgLpGBdSY2M7PB4Maxzpj78+gHs/+dHSFr6D3q76gynChmM4ekZ2sMi20+XgR/HFmnPjbmATVryN3q97s11UFgYoMpzccmGljQxOxIn482w4TB/XRVCnOQWPugAv4B4E+DJEnfI3HjYqPhZ/TIor/l0h1C+6YZKg1PbQBkBINxKcT/xvCgoOus9TkUx3B+Xxf82dMYmZiCp383SUqRgUUGEpiYIzLngXz4dOubEBXtN1kWIiMj1Eb1akGrpg3UJg1ql7JwYHr6/2x9gz77peuz1n0R2liQzb5thcF9u+n12O32R600qYB/CHZFWckJvOW1uWRkN3eOmaFRjxU7jvD4ekpwi2VIkvS5tQ4ruB2Orlwi+yMj1M93rFTh3TVa2dZPd2mm4ZKX7xufe+0cMs97q2mmbeuS+TDs3h7QpEEdSE2KB194OPkwtGhcH0YP7K2+vexJTWdGzzTz+5rqFKSz9boVaaAfLoD/7l8Nqdq/AL6vx+Xqa6VFBfxDCPJ42nJm6tulHfk1mBgW9y1MYu0wYqJDq6FqJgsWLUvyW9Z6yoKE4IRQWZI+5gPo7m63qyi1yOIgMA2XsIb0ZahLXovOa31OVx+4CnFQm/626L/685ZySl0nNA823l6iG5aN0refMduHAxvz7VlpUAGXAWSZhWV14kzUhtf1mSiDUQRJp+uoXBpqnXcwH77Y+iZ4AwOpwxRFftVaz6UgQNDHEe/t0R5+R18F9Onl9ZbFvDqTGuf1e8SBV+Z+GQxZxkDg7yqWSXXoA0D7KqDkRWvMBxvJUZ+/C76Xy1URLPuKATqUcDPPQ3d1M0lhkVlEm61hyhIk0HtrYMcbT+odpyjKMGtdfwbcbncHyWb7gZcTHeWHN5+axpyM3lurqxp620wMZTknMJ2OIuNb7jfdI1wX6+P7DDXvNWTcD7dA3ouPQHxsjCh5f8YMp9Z3rIDLDHZFKSSCKwq8v+olmk0SpY2+1TrWxCzi/on18NRENsePM3UBAQGd7Xb7k7IkbVMUZTWakpxO52AcNMHBwfXCw8NjqlateskMnLIsP80ZggaGwwn9e3eBdwtfJS849MXQV2GUwbTiMd83Mav1HS+yNZ7RrBbHColpP1i/GIbe35O88Ix22nCZ0bLAwMBw6/tUwBWAyODgFEmSfkXi39SiEcAHxcbn0dqBZX2uRUl8aiP06dyWSSCb7Y+yAqH8WcTPr4Cf2my276z3cIyNjYF+d7SHN5/IUj/etIRNYpCj/EYynZE6glPO6G2HejZfflQK85gahVL1GK7x28Cc4N8rhM82L4XcZ2eoD/TtqmaUYe/W2qwqir3Ibrff53K5moaGpgRb6V0BVwA8Hmd/3glPTHpIZU44glSjrfZzJX6GRdWC33t4FfkOd21/My741Du3eZdB8NhWgGlrf4YZRRdgZvGvMKPoJ5i69juYnPslPLzoPRi2sAQGPL4W+s5YDp2Hz4N290+FFl0HQoNb+0K1JjdBWr1mkFC5DsQkpakeTedGDAj1gWJXLrmECFF2OCAsNATi4qIB/R/SkuLVzJREyEhOhOSEOHLoiYmOBDem/vofsd1CI6Mg1M+DXleC6s1uhqTq15W6T0T0kZAk+ZDdbp/q8QTXtvZDBfwDUBQF00zhJ1Ddn/OcSlKrTIkrSOIymJh9ajU8sR5eEhx+7hz/Mkxb+wuMX3GacJyG4v645Rrq576Escu/1M6f0XH8yq9hyuqvICKBSUNvcAhMyvkMZhSrNDhmFv0I01d/oSZVM9ayhQYHwYP39ITe3W9T27VqAvVr14DataobWLMaNK1fG7rfdj3079NdTU4wlg5FxifBuKXvwszC72FW8a8wawPAQy/sBr6iJT6zFjy2+UeIz6xNx67ACIipdiNEVW4JkelNITypLgRGpoLTGwY2yfxlwq+MJMmfulyuSQEVjj1/H2w223YkaFh4mPr1zpVsNkv7oROZU2Rkkx5cCnFadRPc3f126ijFocDwhSUwKe+/Jua1MrQJkXnF65zBCb+ksoYv3A2KncV2S6xWD2asO88YfcVpGLvsC5heeAEGP7kBnG4jeGGjOtXh2PrFtOSHJnH4KuWTG+CrPXnkUM/vRX/h+x/LhRlFv1F5WPf4ledgcu7nEOpnP25OjwcmrvwY+s/fYDAnTu7oydMzwJdyHfgzMe9zS/BnYuT5lhBVpRX4kuqBJySGfK35s7KsvGztnwr4E2Cz2XYwJg5Xv357pcqZ2GBeM0Nbt9Z9ZI4/Dq6GapXTqWNi06rClPyzKjJAWYwrMnTZeMb03HhNWk9d8zP0n7taVyOqNLoBZhb/AmM1RkdE5pu27hcY98b7ULlBC5MUvK5OTVg4Pwu63X6D6Xx6vWYwZsm7Kg6Cscv4lwDrPwvT134HsWlMTZIVGYa+sBMm538PE3O/gSkFZ9Qhz25ROw99DGq2uh3Cog11w0AbZQ8Nia0KMVXbqMHRYr46suZkW/unAv4EoPWAE3Hr4sfJ04wzps681r97QTe23oN68ani11QeGbLeTXfAzKILGjNy1JhyJaoHnFHN19h5vm9cEyX01DU/qfc/tkpngozrWqiz1/+sqR6MkYmZ3/wcpq29AI9u+gGqNTWkrYh129wOj278Hqat45JXY2Cq/yuYuuYr8CexgSnLEgx9fidkrfqh1IDk+xPwmdU/wqz1v0NWwVm477F8aHh7b/AEGfo8x1Y9HgDFzlaoSJL8id/v91r7qQIuAZp14jckYNXMdFDfK9JXFzAJK8yYibqwVR/mTPxBMax8coreQZ2GzoUZRb+WlqzEwAKaGNlyzXSPWYJnFXwPI14pAbs2aHxxSZBVcAYmZH9DknTWht+h56SX9euIdncQ+JLrQ3TV1rSlpDT8mtMB3UY/p85a/wdJ9Un552H04iPg9gaQ1PcEBcPYN45r6pHRXr1N1E7hy6EzNrsHn5u5/leS4gPmrVGnrvqGpPnYN94DdwDL+GSzSeeCg4NDrH1VAZcAr9erh5iKifbD2V05AO/zSQVjwsNQG8o6p+GHG2HcoL6MKWyVYOCC9cRoJilbSuJyxhalLr/HyuCChNal3tcwfe3XEJvBPvU4cdN/7iq4e/aKUlIvKCodoqrgTxdmaWpCGFW1NVg/7Yh3z86BnhMW6sdpdRrDjMLvSTfmjCsOqLLQKqmN9zYz+6S872FyzqcQGMYc4SVJ/igtLc1p7asKuARkZmYGKoryLu+wutWrwPv8J0iYTLAyrq5OcGl8fAO0bdOMyggMj4Bxb56AiTlfl8GAVgmroXBuwsozMIGfK/W8uaxxy76E2et/hw5DHinFjF1HzoOM61ox5pAV+qmKSGsIEakNiJnFXNAtug2EnhOfK2Wyu2Pc8zBTk868rYwxhcFGbbecQyZdyZlYO+b7y0+THn//nFxIqla3VLslSaqIMfF3wOfzReOyJFxVy4mJIabmZw2Hz3cs1yLgrGfLjayMvS8Xfi7Jh2Qtuk1KrcYwbe1/YTyaxjizlWJkQSqhhBN+AEsxtiC9zIxiMMeE7K9hyqpz0H7wI9B9zLMwfd33dG7amq8htQ4bXBfDzIbXw/S1/6X78bluo5+Brg8/AdPXnRfaVXrwlWJm0ztqTKu9G3//cSvOwrR1/4WY9KqMYRU7BPrTILra9RAcbQwqh8Mx2tpHFfAXINTrreZQlNckSfrF2uEYCrVZo3ow/sG7YdWLj8CH6xfBH+8VwZc7ssmJCO9p0vEeFW2r7O++9KeV64kTsr+CcW9+BMk1G0JcRlUYveQ9mJj7rcCgIpoZ18QowjVeNuHyL2Fm8QVo0W0QYxjZTmpEdNVWJIm5matF98FkaxYHmsGgQt0rz7CfUpKyfAAZ7RHfc0LO1zB22QlIqlEfEqrWgdFLjtM5vIZtuq7tnVS3bHey1GeVW0BM9RuEbEnS74GBgRnWvqmAvwm4UDHI7a6PqxFkWd4mSdJ3oteZFTs9NAemr7tgkVQiEzPEezqPXKA/13f6mzBtzc/a9TMwZdWPZF3ACROOU/X9CzBVu4Zb1L9N5ev23S8gIj6ZykczF9puIzBbUeXmdIzn8fqknC/MUldrA1oiWBsYYl2sXtyy9jC8AFmrftQH0dQ1P0HfaW/q79Z55NMwvZANlMn559VBT22ifwe85g2P+y6qSvNHoqOjfYqiNOMrwSvyOf/LYJeNGBX9Hy+C6Wt/U9HGyicqTDNzy0+TjonSr3XPoXpH959bCFkFP8C0dReg66hnSg2OS6FNqgT3PZoPU1b/qDMyDgI8x+8J9KcS86IURumHx9o1tf/c1XQ/fxYHxx1jnytVjzUOhRW7j35WxcE5Of88DHpqK9i0qezWdw6BmcW/6e8/a/1v0KK7thKG3DUDWvoS6kZHpDaY7gzwfc3POxyeW620roArBIpizxU7E/0c4jJrQu3rO0KbXsOh68gn1XsfzYcHn3sLRi85qk7KPQ3ztv2h1m7Dwl25Arzw8OvvqhNzviVpNjn3HOD93cc8Dz3GvgB3II7h2+fVO8a+oPYY9xL0GPsS9Jz4qjpwQZGalf+VocLQIPkNWnQbzNpEWU/rQWQGpq/F5JBN6ZjnTW595wh1ZvHvujRHaTw57wzcNXOF2n3UM2r30c8hgzIc8xzcMeY5asMdY56nY5xi7z9vDUzOO0vtn5DzLb6Pbj5r0K4fqhEql9Q4iGetvwC1WrfXaGaDkJgqEFerLfgzmoFNyzglyXJFKtx/EzweTzQuBLU7nY8qir1QluUPJEn6gTzShND/ZWF4bDJMyP6c/QQtPw1TV5+H4Qv3wt2zVkKfqYsZTlui9p62BHpPweMl0HvqYug1ZTEd3zd3rZqVdw4m0E/Ul8SEWflnITqlCpXvcAeDn/LFCUnBM5uBw8MiE8Wm14Apq1BnRSY0qz2iisH0blHlsF43Zvom5n4JEYlM2ldtejPMLEZVydDZ0UdketEF6DN1kYkWzkAfODyaDZukcYVfcrmF6Ohoj81mO4GdFZNWTUUphrNkWflnIDzWiFHxZxFVihGv7IdJud+SLjtg3jr9WmBkMv088WynTKVoAQERSexZWyUY9NQWmoDgTCYyMWfcSXnnoOPI56FBp2HwwDM4/Yw/oub7GJ6FKau/hoSqzCEJp+FxBm/8yrM6s3OGH7uMqVZDX3gL6t7Qib5i4ntJf3K5VwX8H0BKSr1gSZZPY0dVa3aLOr3wJ7JODF+4T7U7maXjzgkL4bFtQEw5BXH1D6Q3o+6L59C7DJmPd/g9jxSoeJ707TuH6efDkuqQCoHMG8ElcQZ6mzEvNMSb752o4iyjrrtbENv20Ev7ILHerRCW2gQadhkBk/K/hnErmQphkrL441r0M1RvfgurPzoRJmR/RtPSZmYXkU2XT8j5BuZuB2jRnVlV2BKngBZW+lVAuQB3bKVKlX7CjmrYrp+KPseoTkzMNmawSIql14BWPR6Cu2eugNGvvwfjl52EgfOL1JvvnQjp9ZqD4jAylg5/eR9N8Wbln4PYjBp0zu4KgMgMnnqWMTFnZDS5KS6mt6bWaqROX3sexopmulISFq0L38H0dT/BxBzUwZnnXVk4o/hXaKaZ91xeDzz8+hEaCOYyReuNURZOez/03Hbd9VNRHIus1KuAcgBBQWENeJLxNr2GGX/vK87AtLXfQ/+5a6Fl90E0rSzLZevUkQnJ0KBdLzJnTVvzHX3GkYkHP70NbBoDeMPjSXVA0xqiWaVoDt5wprrgYBj2Uok6MQ/LKc2UaBsWpS1jPMNurO/rTPwbtOkznMpGaToY1RXNFGhmZI6a8xKpIj/B49tVSKlRn56XZfnruKpVKyIElT+QW3Fm7PDQPHKDtDIOuViuOAuT887DjMJf6Y9+VvEFci5CtWLcinMm10lEvHbLfZN1Rg9LqKGrEgw5EzcCf2ZTCEuspd/b4aG55JMstsE8kWKW0uJ1mgwRzmM5nUYYC2jvf2w1ZK36ifT+yXn/pRUvaGqbWfwjTFjxIdz/WAGpQLHp1U0DVQtE83qlSpUkKwUr4P8YPJ6QvnzSpPvY51WcQCAGEHRSbg0wkB9bzzOGH7v8DE0hp9ZqxCSY3WWySCDj6qqEgLKDOdFXbXITTC/8UXe0L7turW0G06o4jW6VxOjTfMc43dasZtZvCVUatVJ9sfGq4rh09iRZlt/1eDzt+tfrX5ESrDyDJCmDeKfdOwellNlPl0s+8W9e1CVLMdly9vOFejG6VmK57mA/+FGVSDNUCFGd4CqFO4RFsEeXy9FLjtLPVVk/eKVVgLLOs7bh+9w/d43OmBG+cLVurerQ+ZY2lPIh55lpcHTNy/AzBmDE2Hcnt0Bqkh4taI+VXhVQDsHudM/lHfzAExtgMqkHnAnMaDCx4YTDmUWU1tMKf4XOI41POE4gMPsw14XNDMxVClx1wZ/ByROcSjYzqlGnVb2gfYuLJSK+zwNPrtfLfWHGwyqL9WxxY+V4tAiaNWRebTab7WxYWFiQlWYVUN7AZqPYEvhDNfTF3fRDZkwiWL3GBCY2oSD9cJau6Geo2eJWYgR0+EHXS2RWsyQWJbJmsUhtQPfjc9fd0gtmFF9QmT4uSlfOvNZ2lPYTxu2kvO9g+Mv7VVy3h+WOuKeHyhJFml1a2b4WIrdLO7pXluULCQkJKVaSVUA5A7vTRYEMvcHBMHrpMfqEi8zBljEJjFxqX1QxcKr3G1p9ERDCZrucgeGkKpRllRAZGXVk0SEoLCYBJqz8VHChFAYRZ1b+NRDaI34xcH8iqiRvHNXb8+Ddd2hRlsrwydbid2D6AyaJKXpmTSvNKqCcgY05f0NQmA/GvnGC/HmtUs8k7awMpe3rqsTaX6DXxFf0z3dQVBqt5mAMXFr6isd4H67+0J5V75uDkybolWaWrsYPnMbE+jnjHr5PrpdLj0FgKEvEc/8d7bXsqWUs79Ik8dj+vdhXRJIgPDwcrTcVUJ7BZpM2Yof5EzNgUi76OzC/Bc7InFEN3bc00r302cd7zsGUgnNqlcbGSmac6PBrs3ORaY2YWkGqBdvnpjdcf8efwRXUOPXN/SgujYY+ztvIz6G/9PjlH0JIJFvq36vDzSxCETGxEO+O48mNMP0hU/LFjlaaVUA5Awz9hB0Wk1YNJuef1T28zAxi/kybmLcMRKca9C2elP2RvvYO0eEOAr+2tg71ZPzZi0htqM/WISZUqQUTcz6m58n2jGWWYaG4FIptG599DiZkfwK+GOafMaB3Fz1oY6mV5MTEG+CREffpTOxwOCocf8o7OBwOzJAJLo8Hxix5n9wXOdMYn2tDEhvncd983nqMzIz+wZNyPoTEqsZkhtMbCuFJ9WhFBT+XVq8FTMr9jDFvGdPIJsYsVS+v2/wM4sTc72DM4nf1QC7PThmh8mSRJilMDM2Cucwafq8giSuYuNwDrurF1b3Yad7gUOgzZZE6KedTmLbmW7IyoH/v9KJfaQUIOsrjVCzO0iGz4YwX2oTx54kjLtdnqzPO0vo+HgILPdNmrP0W6t3QWWdcxMYd7qYwVZNyv9MGD3qY4SDR1vyt/Ip+Fqn87G+oPrSg4NQxOSGt+pGtNFl3gWYTcdp8RtHPMH3Nd5CV9wUMmJevhvqZ/TklKYFSpGGSSCPmsRHAkZj4xAYYfe8ddL9ks0FoYGA7K80qoJyCloTFxGD/CzGdrMsbCJ6gILJuoAUg2BcJvthkiErJJFUiLrMaxGVUg/jMahCfURXiM2tC5euaQXKVWpBWtwnEV66p4jW8j98fnVaVdHRfXAqEREZDQGgoeIODqB6XNwDkvxHxc/ygfqZ0Z8wqwYM1ctWCSeL7dOuEDYI9nnpWWlVAOQWbzTaFd7gvIgJiYmLB7/dDZEQk+Hw+DLUFoaGhEBISAkFBQRAYEAABiF4veDwejMROiNGHEF1OF5qndCbKSE+HNq1bQ7OmTaFJkybQtEkTaN68ObRo0QKuv74NJCUznRXR4XBoZbEyEd0uN9WD6PV6qe7AwEAIDg6BsLAwCPf5ICIyEiL9fojyR0FMdAxEREToZU4ccjeZz8yxPEQprDHz8fXQwch78ovf70+y0qoCyik4HC49oHZ4uA+ioqIhOjqGmCEmOpb2GeL5aIhCjEKMYlt/FKFfQ7wnPIzZfBFHjhwBhw8fhK1btxBu2bKZ4ebNcPDgARg0mLlLsvrDqUxelt/P6vJTfWZk7dHaGaO1UWsXDj7uFzL87m4qZU49tArOblsGP+5mGZ6MJO8sgPdvB1apVdLYolZZlt7PysqqcPi5WsBmsy3nTPRnEe2osiwTYlBvu91hSGKXiyQqv7d5ixYwYvhwwpEjR8KIEcNh+PBh8NCQIfDAAwOhShW2hAmRl4PPIyqKXa+HL/r8q9jlthsAvimBpyYbi2L3rnyGZYvi+vDhVXBszUIK8oLXHYoDvdYq4GoBSZLWYMdhHIiINIzO0wh8KfXJRTI0rhoER2dAYGQKeMPiwBMaAy5tDRradhWnlzzQ0FsNLQ6S4qR4wJQAnCRh2X7IZSLer0epl2gaWlacVDbWg/XhmjysHx2GsD1BkSkUCis0vgaEJ9el9qMvBm55XIsbm9RX4fQ7cPv1zekYg33/QrkCtQhLqEqc2giPjWWLWrH+QI+n4qfuagJJkvdj5zG3SdFRR5xdM2bZ/BnGtDFOZEQKx4QZeE8ThplNzfsc6Vg7f1Eso+xSbbs4YrxifK/WzRqqU0cN0pf6zxnzgJb0XdOJD+TB+d054PMxFUiWZcxoVQFXGRymznO4L8IsGrOKjKttxfNW1K9rjCjejwwqlmM804jQWob4nMHYeK9Yp9FmHAR2V+lwrg/f31NVT21SWcphzTLxwUaoX5s5wmMelYigoFQrgSqgnIPNZqOAhjh7RhErkSG0qWHOxCbmLFM6ioxY9nkzo1nPl42XGiRmNEthlPY4sYLvFRwSrM4eM1j97UghS3CDP3QYrf6DYji5cQmEhoaQlEaLRFBQUJqVPhVQzqFmzRu9sqx8hp2IOifzZdC8zkq5T1qPrcivW7dlMZr1GYZlM612Dx88tL1Y2Wwfp7VdWly1jPRUgA+3M1vxyc3wbUk+zJ8yQg0ODibmZVPMyptW2lTA1QL16tklSd6JabQc7qAXQxNqjQqOrjY6KLb6GMLo6mODYmuOQwyJrz0+JL7WhLCEOhNDEmpPDkuoPTkkofaksITaWaHxdaaExteZhhieWHt6eELdGeFJdWaFJ9WbGZZUd3ZYYt1HfIl1H/Ul15vjS6o7Nzyp7uMRyfUW+JLrP+lLqvdMWGKdFxFD42stDE2sszA0vvbLoXG1Xw2Jq/1qcGzN1whjarweHFP99aCYGq8H0ZYhnY+rsZhfD46r/np4cv1FntCY3EvFrJMl6axDcTxkJUkFVEC5BEw+6fV6IzGftfVaBVRABZRD+H9Drbx3/4UoYAAAAABJRU5ErkJggg==;fontSize=16;container=0;" parent="1" vertex="1">
          <mxGeometry x="517" y="333" width="100" height="100" as="geometry" />
        </mxCell>
        <mxCell id="EP9idgTvT9CNdn5mAOOD-40" value="&lt;font style=&quot;font-size: 16px;&quot;&gt;人工通知预警信息&lt;/font&gt;" style="text;html=1;align=center;verticalAlign=middle;whiteSpace=wrap;rounded=0;" parent="1" vertex="1">
          <mxGeometry x="530" y="485" width="80" height="30" as="geometry" />
        </mxCell>
        <mxCell id="EP9idgTvT9CNdn5mAOOD-43" value="&lt;font style=&quot;font-size: 20px; color: rgb(204, 0, 0);&quot;&gt;传统工作模式下数据的上传与分发&lt;/font&gt;" style="text;html=1;align=center;verticalAlign=middle;whiteSpace=wrap;rounded=0;fontFamily=Helvetica;fillColor=default;" parent="1" vertex="1">
          <mxGeometry x="220" y="670" width="317.5" height="20" as="geometry" />
        </mxCell>
        <mxCell id="EP9idgTvT9CNdn5mAOOD-44" value="银行" style="text;html=1;align=center;verticalAlign=middle;whiteSpace=wrap;rounded=0;fontSize=16;container=0;" parent="1" vertex="1">
          <mxGeometry x="80" y="440" width="70" height="30" as="geometry" />
        </mxCell>
        <mxCell id="73cGROSH-C_oPAFMmvGE-6" value="" style="endArrow=classic;html=1;rounded=0;exitX=0;exitY=0.75;exitDx=0;exitDy=0;entryX=1;entryY=0.5;entryDx=0;entryDy=0;" parent="1" source="EP9idgTvT9CNdn5mAOOD-39" target="EP9idgTvT9CNdn5mAOOD-34" edge="1">
          <mxGeometry width="50" height="50" relative="1" as="geometry">
            <mxPoint x="480" y="485.0033333333334" as="sourcePoint" />
            <mxPoint x="230" y="464.17" as="targetPoint" />
          </mxGeometry>
        </mxCell>
      </root>
    </mxGraphModel>
  </diagram>
</mxfile>
